<svg xmlns="http://www.w3.org/2000/svg" width="48" height="49" viewBox="0 0 48 49">
  <g id="Group_68016" data-name="Group 68016" transform="translate(-854 -4164.5)">
    <circle id="Ellipse_1100" data-name="Ellipse 1100" cx="24" cy="24" r="24" transform="translate(854 4165)" fill="#fff" opacity="0"/>
    <g id="Group_68015" data-name="Group 68015" transform="translate(1059.378 -579.847)">
      <path id="Path_44800" data-name="Path 44800" d="M23.416,54.025c2.559,3.667,2.538,5.321,2.522,6.927-.122,11.67,7.966,15.276,12.77,15.565.367.02.721.033,1.076.033A15.712,15.712,0,0,0,51.6,71.4l2.669-2.942.045-.053,1.324-1.463A3.692,3.692,0,0,0,53.8,60.728a3.317,3.317,0,0,0-.453-2.741l2.286,7-3.074,3.47-5.735-3.47-3.944-7.765-1.171-.8c-.95-1.492,7.727-4.379,6.512-4.621l4.421-4.437a3.687,3.687,0,1,0-5.3-5.13C42.5,47.408,36.483,53.292,34.107,54.258c-1.385.57-1.719.126-2.791-1.63A12.884,12.884,0,0,0,28.4,49a3.365,3.365,0,0,0-4.441-.09A3.643,3.643,0,0,0,23.416,54.025Z" transform="translate(-221 4716.296)" fill="#122239"/>
      <path id="Path_44793" data-name="Path 44793" d="M24.522,26.855a.815.815,0,0,0,0,1.153l7.2,7.2a.815.815,0,0,0,1.153-1.153l-7.2-7.2A.815.815,0,0,0,24.522,26.855Z" transform="translate(-221.985 4724.886)" fill="#fff" stroke="#fff" stroke-width="1"/>
      <path id="Path_44794" data-name="Path 44794" d="M79.58,21.147V11.095a.815.815,0,0,0-1.63,0V21.147a.815.815,0,0,0,1.63,0Z" transform="translate(-253.784 4734.567)" fill="#fff" stroke="#fff" stroke-width="1"/>
      <path id="Path_44795" data-name="Path 44795" d="M49.4,5.813a.816.816,0,0,0-1.581.407L49.4,10.364a.816.816,0,1,0,1.581-.407Z" transform="translate(-235.374 4741.101)" fill="#fff" stroke="#fff" stroke-width="1"/>
      <path id="Path_44796" data-name="Path 44796" d="M23.416,54.025c2.559,3.667,2.538,5.321,2.522,6.927-.122,11.67,7.966,15.276,12.77,15.565.367.02.721.033,1.076.033A15.712,15.712,0,0,0,51.6,71.4l2.669-2.942.045-.053,1.324-1.463A3.692,3.692,0,0,0,53.8,60.728a3.317,3.317,0,0,0-2.832-4.176,3.415,3.415,0,0,0,.2-1.141,3.667,3.667,0,0,0-2.95-3.606l4.421-4.437a3.687,3.687,0,1,0-5.3-5.13C42.5,47.408,36.483,53.292,34.107,54.258c-1.385.57-1.719.126-2.791-1.63A12.884,12.884,0,0,0,28.4,49a3.365,3.365,0,0,0-4.441-.09A3.643,3.643,0,0,0,23.416,54.025Zm29.6,8.255a2.037,2.037,0,0,1,1.455.6,2.074,2.074,0,0,1-.029,2.942l-1.292,1.422a1.874,1.874,0,0,1-2.111-.354l-.073-.077a1.887,1.887,0,0,1-.155-2.522l2.037-2.037ZM51.8,58.638a1.687,1.687,0,0,1,.1,2.29.815.815,0,0,0-.094.1h0L49.46,63.368a1.882,1.882,0,0,1-1.948-.407l-.1-.1a1.9,1.9,0,0,1-.114-2.51c.326-.253,1.691-1.332,2.416-1.956a1.7,1.7,0,0,1,2.07.24Zm-2.852-4.69a2.037,2.037,0,0,1,.6,1.455,2.579,2.579,0,0,1-.856,1.719c-.5.432-1.569,1.292-2.359,1.911a1.956,1.956,0,0,1-1.927-.505l-.053-.053a1.98,1.98,0,0,1,0-2.8l1.915-1.915a2.037,2.037,0,0,1,2.673.183ZM24.972,50.171a1.731,1.731,0,0,1,2.4.077,11.364,11.364,0,0,1,2.551,3.2,8.658,8.658,0,0,0,1.41,1.935.814.814,0,0,0,.049.065,3.4,3.4,0,0,1,.041,4.262.815.815,0,0,0,1.373.876,5.3,5.3,0,0,0,.75-4.482,4.633,4.633,0,0,0,1.173-.322c3.207-1.316,10.724-9.119,13.813-12.415A2.037,2.037,0,0,1,50,42.718a2.059,2.059,0,0,1,1.491,3.516l-8.3,8.28a3.61,3.61,0,0,0,0,5.118l.045.045A3.578,3.578,0,0,0,45.321,60.7a3.545,3.545,0,0,0,.929,3.329l.033.029.033.033A3.516,3.516,0,0,0,48.8,65.108a3.5,3.5,0,0,0,1.01,2.852l.061.069a3.537,3.537,0,0,0,1.715.945l-1.222,1.349-.033.037a14.294,14.294,0,0,1-11.527,4.527,12.741,12.741,0,0,1-5.884-2.037h.733c2.037-.13,3.9-1.365,5.562-3.667a.815.815,0,0,0-1.324-.949c-1.357,1.891-2.811,2.9-4.327,3A5.343,5.343,0,0,1,29.8,69.66a.816.816,0,0,0-.118-.1,15.378,15.378,0,0,1-2.111-8.593c.024-2.155-.171-4.1-2.816-7.884A2.06,2.06,0,0,1,24.972,50.171Z" transform="translate(-221 4716.296)" fill="#fff" stroke="#fff" stroke-width="1"/>
      <path id="Path_44797" data-name="Path 44797" d="M56.911,38.41l-1.8.261,1.3,1.271-.31,1.793,1.609-.848,1.609.848-.31-1.793,1.3-1.271-1.8-.261-.8-1.63Z" transform="translate(-240.251 4718.865)" fill="#fff"/>
      <path id="Path_44798" data-name="Path 44798" d="M64.016,13.086l.55,1.239.652-1.194,1.349-.139-.933-.986.285-1.328-1.226.583-1.178-.68.175,1.349-1.01.909Z" transform="translate(-244.736 4734.389)" fill="#fff"/>
      <path id="Path_44799" data-name="Path 44799" d="M35.973,14.033l-.982-.933-.147,1.349L33.65,15.1l1.239.554.249,1.336.909-1.01,1.349.179-.68-1.178.587-1.222Z" transform="translate(-227.535 4732.896)" fill="#fff"/>
    </g>
  </g>
</svg>
