<svg xmlns="http://www.w3.org/2000/svg" width="23.6" height="23.6" viewBox="0 0 23.6 23.6">
  <g id="Group_68807" data-name="Group 68807" transform="translate(1.8 1.8)">
    <g id="Path_44733" data-name="Path 44733" transform="translate(-1 -1)" fill="#d6f6d6">
      <path d="M 10.99999904632568 21.89999961853027 C 8.088499069213867 21.89999961853027 5.351269245147705 20.76620864868164 3.292539119720459 18.70747947692871 C 1.23379909992218 16.64874839782715 0.09999904781579971 13.91150951385498 0.09999904781579971 10.99999904632568 C 0.09999904781579971 8.088508605957031 1.23379909992218 5.351279258728027 3.292539119720459 3.292539119720459 C 5.351279258728027 1.23379909992218 8.088508605957031 0.09999904781579971 10.99999904632568 0.09999904781579971 C 13.91150951385498 0.09999904781579971 16.64874839782715 1.23379909992218 18.70747947692871 3.292539119720459 C 20.76620864868164 5.351269245147705 21.89999961853027 8.088499069213867 21.89999961853027 10.99999904632568 C 21.89999961853027 13.91151905059814 20.76620864868164 16.64874839782715 18.70747947692871 18.70747947692871 C 16.64874839782715 20.76620864868164 13.91151905059814 21.89999961853027 10.99999904632568 21.89999961853027 Z" stroke="none"/>
      <path d="M 10.99999904632568 21 C 16.52288818359375 21 21 16.52288818359375 21 10.99999904632568 C 21 5.477159023284912 16.52288818359375 0.9999990463256836 10.99999904632568 0.9999990463256836 C 5.477159023284912 0.9999990463256836 0.9999990463256836 5.477159023284912 0.9999990463256836 10.99999904632568 C 0.9999990463256836 16.52288818359375 5.477159023284912 21 10.99999904632568 21 M 10.99999904632568 22.79999923706055 C 7.848109245300293 22.79999923706055 4.88486909866333 21.57258987426758 2.656139135360718 19.34387969970703 C 0.4274190366268158 17.11515998840332 -0.8000009655952454 14.15190887451172 -0.8000009655952454 10.99999904632568 C -0.8000009655952454 7.848109245300293 0.4274190366268158 4.88486909866333 2.656139135360718 2.656139135360718 C 4.88486909866333 0.4274190366268158 7.848109245300293 -0.8000009655952454 10.99999904632568 -0.8000009655952454 C 14.15190887451172 -0.8000009655952454 17.11515998840332 0.4274190366268158 19.34387969970703 2.656139135360718 C 21.57258987426758 4.88486909866333 22.79999923706055 7.848109245300293 22.79999923706055 10.99999904632568 C 22.79999923706055 14.15190887451172 21.57258987426758 17.11515998840332 19.34387969970703 19.34387969970703 C 17.11515998840332 21.57258987426758 14.15190887451172 22.79999923706055 10.99999904632568 22.79999923706055 Z" stroke="none" fill="#2db129"/>
    </g>
    <g id="Path_44731" data-name="Path 44731" transform="translate(-1 -1)" fill="none" stroke-linecap="round" stroke-linejoin="round">
      <path d="M11,21A10,10,0,1,0,1,11,10,10,0,0,0,11,21Z" stroke="none"/>
      <path d="M 10.99999904632568 21 C 16.52288818359375 21 21 16.52288818359375 21 10.99999904632568 C 21 5.477159023284912 16.52288818359375 0.9999990463256836 10.99999904632568 0.9999990463256836 C 5.477159023284912 0.9999990463256836 0.9999990463256836 5.477159023284912 0.9999990463256836 10.99999904632568 C 0.9999990463256836 16.52288818359375 5.477159023284912 21 10.99999904632568 21 M 10.99999904632568 22.79999923706055 C 7.848109245300293 22.79999923706055 4.88486909866333 21.57258987426758 2.656139135360718 19.34387969970703 C 0.4274190366268158 17.11515998840332 -0.8000009655952454 14.15190887451172 -0.8000009655952454 10.99999904632568 C -0.8000009655952454 7.848109245300293 0.4274190366268158 4.88486909866333 2.656139135360718 2.656139135360718 C 4.88486909866333 0.4274190366268158 7.848109245300293 -0.8000009655952454 10.99999904632568 -0.8000009655952454 C 14.15190887451172 -0.8000009655952454 17.11515998840332 0.4274190366268158 19.34387969970703 2.656139135360718 C 21.57258987426758 4.88486909866333 22.79999923706055 7.848109245300293 22.79999923706055 10.99999904632568 C 22.79999923706055 14.15190887451172 21.57258987426758 17.11515998840332 19.34387969970703 19.34387969970703 C 17.11515998840332 21.57258987426758 14.15190887451172 22.79999923706055 10.99999904632568 22.79999923706055 Z" stroke="none" fill="#3ba038"/>
    </g>
    <path id="Path_44732" data-name="Path 44732" d="M15.042,7.75,8.931,13.583,5.875,10.667" transform="translate(-0.458 -0.25)" fill="none" stroke="#3ba038" stroke-linecap="round" stroke-linejoin="round" stroke-width="1.8"/>
  </g>
</svg>
