<svg xmlns="http://www.w3.org/2000/svg" width="48" height="49.352" viewBox="0 0 48 49.352">
  <g id="Group_68018" data-name="Group 68018" transform="translate(-1169 -4164.324)">
    <circle id="Ellipse_1100" data-name="Ellipse 1100" cx="24" cy="24" r="24" transform="translate(1169 4165)" fill="#fff" opacity="0"/>
    <g id="Group_68017" data-name="Group 68017" transform="translate(1171.5 4164.999)">
      <path id="Path_44801" data-name="Path 44801" d="M41.656,11.315,22.484.252a1.877,1.877,0,0,0-1.874,0L1.438,11.315A1.875,1.875,0,0,0,.5,12.939V35.064a1.875,1.875,0,0,0,.938,1.624L20.61,47.751a1.877,1.877,0,0,0,1.874,0L41.656,36.688a1.875,1.875,0,0,0,.938-1.624V12.939a1.875,1.875,0,0,0-.938-1.624ZM38.844,33.981l-17.3,9.981L4.25,33.981V14.022l17.3-9.981,17.3,9.981ZM13.955,20.6l-3.4,3.4,3.4,3.4A1.875,1.875,0,1,1,11.3,30.052L6.578,25.327a1.875,1.875,0,0,1,0-2.651L11.3,17.951A1.875,1.875,0,1,1,13.955,20.6Zm15.185,6.8,3.4-3.4-3.4-3.4a1.875,1.875,0,0,1,2.652-2.652l4.725,4.725a1.875,1.875,0,0,1,0,2.651l-4.725,4.725A1.875,1.875,0,1,1,29.139,27.4ZM16.595,29.714l6.55-13.1A1.875,1.875,0,1,1,26.5,18.289l-6.55,13.1a1.875,1.875,0,0,1-3.354-1.677Zm0,0" transform="translate(0 0)" fill="#fff" stroke="#122239" stroke-width="1.3"/>
    </g>
  </g>
</svg>
