<svg width="56" height="56" viewBox="0 0 56 56" fill="none" xmlns="http://www.w3.org/2000/svg">
<path d="M43.8685 47.4333V53.2013C43.867 53.6959 43.6699 54.1699 43.3201 54.5196C42.9704 54.8694 42.4964 55.0665 42.0018 55.068H8.40182C7.90721 55.0665 7.43327 54.8694 7.08352 54.5196C6.73377 54.1699 6.53663 53.6959 6.53516 53.2013V6.53464C6.53663 6.04002 6.73377 5.56608 7.08352 5.21633C7.43327 4.86659 7.90721 4.66945 8.40182 4.66797H12.1352L43.8685 47.4333Z" fill="#EBF3FE"/>
<path d="M49.4662 2.80026V41.0669C49.4675 41.312 49.4194 41.5549 49.3248 41.781C49.2301 42.0071 49.091 42.2118 48.9155 42.3829L40.5155 50.7829L40.5062 50.7923C40.3351 50.9645 40.1314 51.1011 39.9071 51.194C39.6828 51.287 39.4423 51.3344 39.1995 51.3336H13.9995C13.5049 51.3321 13.0309 51.135 12.6812 50.7852C12.3314 50.4355 12.1343 49.9615 12.1328 49.4669V2.80026C12.1343 2.30564 12.3314 1.83171 12.6812 1.48196C13.0309 1.13221 13.5049 0.935071 13.9995 0.933594H47.5995C48.0941 0.935071 48.568 1.13221 48.9178 1.48196C49.2675 1.83171 49.4647 2.30564 49.4662 2.80026Z" fill="#C1DBFB"/>
<path d="M43.8672 5.59961H30.8005C30.2851 5.59961 29.8672 6.01748 29.8672 6.53294V19.5996C29.8672 20.1151 30.2851 20.5329 30.8005 20.5329H43.8672C44.3827 20.5329 44.8005 20.1151 44.8005 19.5996V6.53294C44.8005 6.01748 44.3827 5.59961 43.8672 5.59961Z" fill="white"/>
<path d="M37.3352 14.932C38.8816 14.932 40.1352 13.6784 40.1352 12.132C40.1352 10.5856 38.8816 9.33203 37.3352 9.33203C35.7888 9.33203 34.5352 10.5856 34.5352 12.132C34.5352 13.6784 35.7888 14.932 37.3352 14.932Z" fill="#DE3700"/>
<path d="M31.7344 20.5336C31.7344 19.0484 32.3244 17.624 33.3746 16.5738C34.4248 15.5236 35.8492 14.9336 37.3344 14.9336C38.8196 14.9336 40.244 15.5236 41.2942 16.5738C42.3444 17.624 42.9344 19.0484 42.9344 20.5336H31.7344Z" fill="#DE3700"/>
<path d="M48.9156 42.3828L40.5156 50.7828C40.6911 50.6117 40.8303 50.407 40.9249 50.1809C41.0195 49.9548 41.0676 49.7119 41.0663 49.4668V44.8001C41.0678 44.3055 41.2649 43.8316 41.6147 43.4818C41.9644 43.1321 42.4383 42.935 42.933 42.9335H47.5996C47.8447 42.9348 48.0876 42.8867 48.3137 42.7921C48.5398 42.6975 48.7445 42.5583 48.9156 42.3828Z" fill="#004BA9"/>
<path d="M25.2005 8.39987H16.8005C16.553 8.39987 16.3156 8.30154 16.1406 8.1265C15.9655 7.95147 15.8672 7.71407 15.8672 7.46654C15.8672 7.219 15.9655 6.9816 16.1406 6.80657C16.3156 6.63154 16.553 6.5332 16.8005 6.5332H25.2005C25.4481 6.5332 25.6855 6.63154 25.8605 6.80657C26.0355 6.9816 26.1339 7.219 26.1339 7.46654C26.1339 7.71407 26.0355 7.95147 25.8605 8.1265C25.6855 8.30154 25.4481 8.39987 25.2005 8.39987Z" fill="#004BA9"/>
<path d="M25.2005 13.9995H16.8005C16.553 13.9995 16.3156 13.9011 16.1406 13.7261C15.9655 13.5511 15.8672 13.3137 15.8672 13.0661C15.8672 12.8186 15.9655 12.5812 16.1406 12.4062C16.3156 12.2311 16.553 12.1328 16.8005 12.1328H25.2005C25.4481 12.1328 25.6855 12.2311 25.8605 12.4062C26.0355 12.5812 26.1339 12.8186 26.1339 13.0661C26.1339 13.3137 26.0355 13.5511 25.8605 13.7261C25.6855 13.9011 25.4481 13.9995 25.2005 13.9995Z" fill="#004BA9"/>
<path d="M25.2005 19.5991H16.8005C16.553 19.5991 16.3156 19.5008 16.1406 19.3257C15.9655 19.1507 15.8672 18.9133 15.8672 18.6658C15.8672 18.4182 15.9655 18.1808 16.1406 18.0058C16.3156 17.8308 16.553 17.7324 16.8005 17.7324H25.2005C25.4481 17.7324 25.6855 17.8308 25.8605 18.0058C26.0355 18.1808 26.1339 18.4182 26.1339 18.6658C26.1339 18.9133 26.0355 19.1507 25.8605 19.3257C25.6855 19.5008 25.4481 19.5991 25.2005 19.5991Z" fill="#004BA9"/>
<path d="M44.8005 27.0659H16.8005C16.553 27.0659 16.3156 26.9676 16.1406 26.7925C15.9655 26.6175 15.8672 26.3801 15.8672 26.1326C15.8672 25.885 15.9655 25.6476 16.1406 25.4726C16.3156 25.2976 16.553 25.1992 16.8005 25.1992H44.8005C45.0481 25.1992 45.2855 25.2976 45.4605 25.4726C45.6355 25.6476 45.7339 25.885 45.7339 26.1326C45.7339 26.3801 45.6355 26.6175 45.4605 26.7925C45.2855 26.9676 45.0481 27.0659 44.8005 27.0659Z" fill="#004BA9"/>
<path d="M44.8005 32.6674H16.8005C16.553 32.6674 16.3156 32.5691 16.1406 32.3941C15.9655 32.219 15.8672 31.9817 15.8672 31.7341C15.8672 31.4866 15.9655 31.2492 16.1406 31.0741C16.3156 30.8991 16.553 30.8008 16.8005 30.8008H44.8005C45.0481 30.8008 45.2855 30.8991 45.4605 31.0741C45.6355 31.2492 45.7339 31.4866 45.7339 31.7341C45.7339 31.9817 45.6355 32.219 45.4605 32.3941C45.2855 32.5691 45.0481 32.6674 44.8005 32.6674Z" fill="#004BA9"/>
<path d="M44.8005 38.2651H16.8005C16.553 38.2651 16.3156 38.1668 16.1406 37.9917C15.9655 37.8167 15.8672 37.5793 15.8672 37.3318C15.8672 37.0842 15.9655 36.8468 16.1406 36.6718C16.3156 36.4968 16.553 36.3984 16.8005 36.3984H44.8005C45.0481 36.3984 45.2855 36.4968 45.4605 36.6718C45.6355 36.8468 45.7339 37.0842 45.7339 37.3318C45.7339 37.5793 45.6355 37.8167 45.4605 37.9917C45.2855 38.1668 45.0481 38.2651 44.8005 38.2651Z" fill="#004BA9"/>
<path d="M33.6005 43.8664H16.8005C16.553 43.8664 16.3156 43.7681 16.1406 43.5931C15.9655 43.418 15.8672 43.1806 15.8672 42.9331C15.8672 42.6856 15.9655 42.4482 16.1406 42.2731C16.3156 42.0981 16.553 41.9998 16.8005 41.9998H33.6005C33.8481 41.9998 34.0855 42.0981 34.2605 42.2731C34.4355 42.4482 34.5339 42.6856 34.5339 42.9331C34.5339 43.1806 34.4355 43.418 34.2605 43.5931C34.0855 43.7681 33.8481 43.8664 33.6005 43.8664Z" fill="#004BA9"/>
</svg>
