<svg xmlns="http://www.w3.org/2000/svg" width="52.03" height="48" viewBox="0 0 52.03 48">
  <g id="Group_68014" data-name="Group 68014" transform="translate(-537 -4165)">
    <circle id="Ellipse_1100" data-name="Ellipse 1100" cx="24" cy="24" r="24" transform="translate(539 4165)" fill="#44d5fe" opacity="0"/>
    <g id="Group_68604" data-name="Group 68604" transform="translate(537 4145.326)">
      <path id="Path_45447" data-name="Path 45447" d="M6.145,24.8a1.024,1.024,0,1,1-1.024-1.024A1.024,1.024,0,0,1,6.145,24.8Zm4.609,0A1.024,1.024,0,1,1,9.73,23.771,1.024,1.024,0,0,1,10.754,24.8Zm4.609,0a1.024,1.024,0,1,1-1.024-1.024A1.024,1.024,0,0,1,15.363,24.8Zm5.121,8.194V48.045a1.024,1.024,0,0,1-1.024,1.024H5.121A1.024,1.024,0,0,1,4.1,48.045V32.989a1.024,1.024,0,0,1,1.024-1.024H19.46A1.024,1.024,0,0,1,20.484,32.989Zm-2.048,1.024H6.145V47.021H18.436Zm5.121.717H34.106a1.024,1.024,0,0,0,0-2.048H23.557a1.024,1.024,0,0,0,0,2.048Zm0,4.1h8.5a1.024,1.024,0,0,0,0-2.048h-8.5a1.024,1.024,0,0,0,0,2.048ZM5.121,51.117a1.024,1.024,0,0,0,0,2.048h7.17a1.024,1.024,0,0,0,0-2.048Zm41.361-1.95a6.533,6.533,0,0,0,0,4.31,1.031,1.031,0,0,0,1.431.586l1.161-.541a2.043,2.043,0,0,1,2.956,1.836v4.362a2.048,2.048,0,0,1-2.048,2.048H44.194l.568,1.216a3.056,3.056,0,0,1-1.774,4.205,8.573,8.573,0,0,1-5.678,0,3.067,3.067,0,0,1-1.774-4.2l.569-1.216H30.317a2.051,2.051,0,0,1-2.048-2.048V58.184H26.63a1.024,1.024,0,0,1,0-2.048h1.639v-.777a2.043,2.043,0,0,1,2.955-1.837l1.162.541a1.031,1.031,0,0,0,1.431-.585,6.538,6.538,0,0,0,0-4.31,1.04,1.04,0,0,0-1.4-.6l-1.232.574a2.048,2.048,0,0,1-2.913-1.9V42.924a2.048,2.048,0,0,1,2.048-2.048H36.1l-.569-1.216a3.078,3.078,0,0,1,1.774-4.2,8.484,8.484,0,0,1,4.683-.284V29.916H2.048v26.22H27.375a1.049,1.049,0,0,1,1.059.953,1.026,1.026,0,0,1-1.022,1.1H1.024A1.024,1.024,0,0,1,0,57.16V22.747a3.073,3.073,0,0,1,3.073-3.073h37.9a3.073,3.073,0,0,1,3.073,3.073V36.093a3.018,3.018,0,0,1,.721,3.566l-.568,1.216h5.788a2.048,2.048,0,0,1,2.048,2.048v4.315a2.048,2.048,0,0,1-2.913,1.9l-1.232-.575A1.04,1.04,0,0,0,46.482,49.167Zm-4.489-21.3V22.747a1.025,1.025,0,0,0-1.024-1.024H3.073a1.025,1.025,0,0,0-1.024,1.024v5.121ZM44.55,48.484a3.082,3.082,0,0,1,4.2-1.773l1.232.575V42.924H44.194a2.049,2.049,0,0,1-1.855-2.916l.568-1.217a1.028,1.028,0,0,0-.6-1.4,6.6,6.6,0,0,0-4.318,0,1.025,1.025,0,0,0-.6,1.4l.569,1.216A2.049,2.049,0,0,1,36.1,42.924H30.317v4.362l1.232-.574a3.081,3.081,0,0,1,4.2,1.772,8.49,8.49,0,0,1,0,5.677,3.08,3.08,0,0,1-4.2,1.772l-1.232-.574v4.362H36.1a2.048,2.048,0,0,1,1.856,2.916l-.569,1.216a1.02,1.02,0,0,0,.6,1.4,6.615,6.615,0,0,0,4.318,0,1.022,1.022,0,0,0,.6-1.4l-.568-1.217a2.048,2.048,0,0,1,1.855-2.916h5.788V55.359l-1.232.575a3.081,3.081,0,0,1-4.2-1.773A8.494,8.494,0,0,1,44.55,48.484Z" fill="#fff"/>
    </g>
  </g>
</svg>
