<svg width="363" height="363" viewBox="0 0 363 363" fill="none" xmlns="http://www.w3.org/2000/svg">
<g clip-path="url(#clip0_2170_22194)">
<rect width="363" height="363" rx="4" fill="#C1DBFB"/>
<g clip-path="url(#clip1_2170_22194)" filter="url(#filter0_dd_2170_22194)">
<path d="M332.322 64H-33.3216C-37.01 64 -40 66.9933 -40 70.6857V291.314C-40 295.007 -37.01 298 -33.3216 298H332.322C336.01 298 339 295.007 339 291.314V70.6857C339 66.9933 336.01 64 332.322 64Z" fill="white"/>
<mask id="mask0_2170_22194" style="mask-type:luminance" maskUnits="userSpaceOnUse" x="298" y="84" width="21" height="21">
<path d="M318.965 84.0571H298.93V104.114H318.965V84.0571Z" fill="white"/>
</mask>
<g mask="url(#mask0_2170_22194)">
<path d="M315.33 87.7067C314.935 87.3111 314.296 87.3111 313.901 87.7067L308.948 92.6557L303.994 87.6965C303.599 87.301 302.961 87.301 302.566 87.6965C302.171 88.092 302.171 88.7309 302.566 89.1265L307.519 94.0856L302.566 99.0447C302.171 99.4403 302.171 100.079 302.566 100.475C302.961 100.87 303.599 100.87 303.994 100.475L308.948 95.5155L313.901 100.475C314.296 100.87 314.935 100.87 315.33 100.475C315.725 100.079 315.725 99.4403 315.33 99.0447L310.376 94.0856L315.33 89.1265C315.715 88.7411 315.715 88.092 315.33 87.7067Z" fill="#5E6C84"/>
</g>
<path d="M315.626 181.418H-16.6251C-18.2387 181.418 -19.5469 182.728 -19.5469 184.343V251.2C-19.5469 252.816 -18.2387 254.125 -16.6251 254.125H315.626C317.24 254.125 318.548 252.816 318.548 251.2V184.343C318.548 182.728 317.24 181.418 315.626 181.418Z" stroke="#B3BAC5" stroke-linecap="round" stroke-dasharray="4 4"/>
<mask id="mask1_2170_22194" style="mask-type:luminance" maskUnits="userSpaceOnUse" x="101" y="207" width="21" height="21">
<path d="M121.117 207.743H101.082V227.8H121.117V207.743Z" fill="white"/>
</mask>
<g mask="url(#mask1_2170_22194)">
<path d="M109.43 221.114H112.769C113.228 221.114 113.604 220.738 113.604 220.279V216.1H114.931C115.674 216.1 116.05 215.197 115.524 214.671L111.692 210.835C111.367 210.509 110.841 210.509 110.515 210.835L106.683 214.671C106.157 215.197 106.525 216.1 107.268 216.1H108.595V220.279C108.595 220.738 108.971 221.114 109.43 221.114ZM106.091 222.786H116.108C116.567 222.786 116.943 223.162 116.943 223.621C116.943 224.081 116.567 224.457 116.108 224.457H106.091C105.632 224.457 105.256 224.081 105.256 223.621C105.256 223.162 105.632 222.786 106.091 222.786Z" fill="#1F8268"/>
</g>
<path d="M134.032 213.441H135.572V219C135.572 219.609 135.428 220.146 135.14 220.608C134.855 221.071 134.454 221.432 133.936 221.693C133.419 221.95 132.814 222.079 132.123 222.079C131.429 222.079 130.823 221.95 130.305 221.693C129.787 221.432 129.387 221.071 129.101 220.608C128.817 220.146 128.674 219.609 128.674 219V213.441H130.214V218.871C130.214 219.226 130.291 219.541 130.446 219.819C130.604 220.095 130.825 220.313 131.11 220.471C131.395 220.626 131.733 220.704 132.123 220.704C132.513 220.704 132.85 220.626 133.136 220.471C133.423 220.313 133.644 220.095 133.8 219.819C133.955 219.541 134.032 219.226 134.032 218.871V213.441ZM137.179 224.343V215.568H138.656V216.623H138.743C138.821 216.469 138.93 216.304 139.071 216.129C139.212 215.952 139.404 215.801 139.644 215.676C139.885 215.548 140.192 215.485 140.566 215.485C141.058 215.485 141.502 215.611 141.898 215.863C142.296 216.112 142.612 216.482 142.844 216.972C143.079 217.46 143.197 218.058 143.197 218.768C143.197 219.468 143.082 220.064 142.852 220.554C142.623 221.044 142.31 221.418 141.915 221.676C141.519 221.933 141.071 222.062 140.57 222.062C140.204 222.062 139.902 222.001 139.661 221.879C139.42 221.758 139.227 221.611 139.08 221.438C138.936 221.265 138.824 221.099 138.743 220.945H138.681V224.343H137.179ZM138.652 218.759C138.652 219.172 138.711 219.533 138.827 219.843C138.945 220.154 139.116 220.396 139.337 220.57C139.561 220.742 139.833 220.828 140.151 220.828C140.483 220.828 140.761 220.74 140.985 220.562C141.209 220.382 141.378 220.137 141.491 219.827C141.607 219.514 141.665 219.158 141.665 218.759C141.665 218.363 141.608 218.011 141.496 217.704C141.382 217.396 141.213 217.155 140.989 216.981C140.765 216.806 140.485 216.719 140.151 216.719C139.829 216.719 139.557 216.804 139.333 216.972C139.109 217.141 138.939 217.379 138.823 217.683C138.709 217.988 138.652 218.346 138.652 218.759ZM145.986 213.441V221.95H144.483V213.441H145.986ZM150.312 222.074C149.689 222.074 149.149 221.937 148.693 221.663C148.237 221.389 147.882 221.006 147.63 220.513C147.382 220.019 147.257 219.443 147.257 218.784C147.257 218.125 147.382 217.547 147.63 217.051C147.882 216.555 148.237 216.171 148.693 215.896C149.149 215.622 149.689 215.485 150.312 215.485C150.934 215.485 151.474 215.622 151.93 215.896C152.386 216.171 152.739 216.555 152.988 217.051C153.24 217.547 153.366 218.125 153.366 218.784C153.366 219.443 153.24 220.019 152.988 220.513C152.739 221.006 152.386 221.389 151.93 221.663C151.474 221.937 150.934 222.074 150.312 222.074ZM150.319 220.869C150.657 220.869 150.94 220.777 151.167 220.591C151.393 220.403 151.562 220.151 151.673 219.835C151.786 219.52 151.843 219.168 151.843 218.78C151.843 218.389 151.786 218.036 151.673 217.72C151.562 217.402 151.393 217.148 151.167 216.96C150.94 216.772 150.657 216.677 150.319 216.677C149.974 216.677 149.686 216.772 149.456 216.96C149.23 217.148 149.06 217.402 148.946 217.72C148.835 218.036 148.78 218.389 148.78 218.78C148.78 219.168 148.835 219.52 148.946 219.835C149.06 220.151 149.23 220.403 149.456 220.591C149.686 220.777 149.974 220.869 150.319 220.869ZM156.476 222.079C156.072 222.079 155.708 222.007 155.384 221.863C155.064 221.716 154.809 221.499 154.62 221.215C154.435 220.93 154.342 220.578 154.342 220.159C154.342 219.799 154.409 219.501 154.542 219.266C154.675 219.031 154.856 218.842 155.085 218.701C155.315 218.559 155.574 218.453 155.862 218.381C156.152 218.306 156.452 218.252 156.762 218.219C157.136 218.18 157.439 218.146 157.671 218.115C157.904 218.081 158.072 218.032 158.177 217.965C158.285 217.896 158.339 217.79 158.339 217.645V217.621C158.339 217.308 158.247 217.065 158.061 216.894C157.876 216.722 157.609 216.636 157.26 216.636C156.892 216.636 156.6 216.716 156.384 216.877C156.171 217.038 156.028 217.227 155.953 217.446L154.55 217.247C154.66 216.859 154.843 216.535 155.098 216.275C155.352 216.011 155.664 215.815 156.032 215.685C156.399 215.552 156.807 215.485 157.252 215.485C157.559 215.485 157.864 215.521 158.169 215.593C158.474 215.665 158.752 215.784 159.003 215.95C159.255 216.114 159.457 216.336 159.609 216.619C159.764 216.902 159.842 217.255 159.842 217.679V221.95H158.397V221.073H158.348C158.256 221.25 158.127 221.417 157.961 221.572C157.798 221.724 157.592 221.847 157.343 221.942C157.097 222.033 156.807 222.079 156.476 222.079ZM156.866 220.974C157.167 220.974 157.429 220.914 157.651 220.795C157.872 220.673 158.042 220.513 158.161 220.313C158.283 220.114 158.344 219.896 158.344 219.661V218.909C158.296 218.947 158.216 218.983 158.102 219.017C157.992 219.05 157.868 219.079 157.729 219.104C157.591 219.129 157.454 219.151 157.318 219.17C157.182 219.19 157.065 219.206 156.965 219.221C156.742 219.251 156.54 219.301 156.363 219.37C156.186 219.439 156.047 219.536 155.944 219.661C155.842 219.782 155.791 219.94 155.791 220.134C155.791 220.411 155.892 220.62 156.094 220.762C156.296 220.903 156.553 220.974 156.866 220.974ZM163.718 222.062C163.217 222.062 162.769 221.933 162.373 221.676C161.977 221.418 161.665 221.044 161.436 220.554C161.206 220.064 161.091 219.468 161.091 218.768C161.091 218.058 161.207 217.46 161.44 216.972C161.674 216.482 161.992 216.112 162.39 215.863C162.788 215.611 163.232 215.485 163.722 215.485C164.095 215.485 164.403 215.548 164.644 215.676C164.884 215.801 165.075 215.952 165.216 216.129C165.358 216.304 165.467 216.469 165.544 216.623H165.606V213.441H167.113V221.95H165.636V220.945H165.544C165.467 221.099 165.354 221.265 165.208 221.438C165.061 221.611 164.867 221.758 164.627 221.879C164.386 222.001 164.083 222.062 163.718 222.062ZM164.137 220.828C164.455 220.828 164.726 220.742 164.951 220.57C165.175 220.396 165.345 220.154 165.461 219.843C165.577 219.533 165.636 219.172 165.636 218.759C165.636 218.346 165.577 217.988 165.461 217.683C165.347 217.379 165.179 217.141 164.955 216.972C164.733 216.804 164.461 216.719 164.137 216.719C163.802 216.719 163.523 216.806 163.299 216.981C163.074 217.155 162.906 217.396 162.792 217.704C162.679 218.011 162.622 218.363 162.622 218.759C162.622 219.158 162.679 219.514 162.792 219.827C162.909 220.137 163.079 220.382 163.303 220.562C163.53 220.74 163.808 220.828 164.137 220.828ZM173.448 222.079C173.044 222.079 172.68 222.007 172.356 221.863C172.035 221.716 171.78 221.499 171.592 221.215C171.406 220.93 171.314 220.578 171.314 220.159C171.314 219.799 171.381 219.501 171.513 219.266C171.646 219.031 171.827 218.842 172.057 218.701C172.286 218.559 172.545 218.453 172.833 218.381C173.124 218.306 173.423 218.252 173.734 218.219C174.107 218.18 174.41 218.146 174.642 218.115C174.875 218.081 175.044 218.032 175.149 217.965C175.257 217.896 175.311 217.79 175.311 217.645V217.621C175.311 217.308 175.218 217.065 175.033 216.894C174.848 216.722 174.58 216.636 174.231 216.636C173.863 216.636 173.572 216.716 173.356 216.877C173.143 217.038 172.999 217.227 172.924 217.446L171.522 217.247C171.632 216.859 171.815 216.535 172.069 216.275C172.324 216.011 172.635 215.815 173.003 215.685C173.371 215.552 173.778 215.485 174.223 215.485C174.53 215.485 174.836 215.521 175.141 215.593C175.445 215.665 175.723 215.784 175.975 215.95C176.227 216.114 176.429 216.336 176.581 216.619C176.736 216.902 176.813 217.255 176.813 217.679V221.95H175.368V221.073H175.319C175.227 221.25 175.099 221.417 174.933 221.572C174.77 221.724 174.564 221.847 174.315 221.942C174.069 222.033 173.779 222.079 173.448 222.079ZM173.837 220.974C174.139 220.974 174.4 220.914 174.622 220.795C174.843 220.673 175.014 220.513 175.132 220.313C175.254 220.114 175.315 219.896 175.315 219.661V218.909C175.268 218.947 175.187 218.983 175.074 219.017C174.964 219.05 174.839 219.079 174.701 219.104C174.562 219.129 174.425 219.151 174.29 219.17C174.154 219.19 174.037 219.206 173.937 219.221C173.713 219.251 173.513 219.301 173.335 219.37C173.158 219.439 173.018 219.536 172.916 219.661C172.814 219.782 172.762 219.94 172.762 220.134C172.762 220.411 172.863 220.62 173.065 220.762C173.267 220.903 173.524 220.974 173.837 220.974ZM184.452 215.568V216.732H180.684V215.568H184.452ZM181.625 221.95V214.966C181.625 214.536 181.714 214.179 181.891 213.894C182.071 213.609 182.312 213.395 182.613 213.254C182.915 213.112 183.25 213.042 183.618 213.042C183.878 213.042 184.109 213.063 184.311 213.104C184.513 213.146 184.662 213.183 184.759 213.217L184.46 214.38C184.397 214.361 184.316 214.341 184.219 214.322C184.122 214.3 184.014 214.288 183.896 214.288C183.616 214.288 183.418 214.357 183.302 214.492C183.189 214.625 183.132 214.816 183.132 215.065V221.95H181.625ZM185.628 221.95V215.568H187.131V221.95H185.628ZM186.384 214.663C186.146 214.663 185.941 214.583 185.769 214.425C185.598 214.265 185.512 214.073 185.512 213.848C185.512 213.621 185.598 213.428 185.769 213.27C185.941 213.11 186.146 213.03 186.384 213.03C186.624 213.03 186.829 213.11 186.998 213.27C187.169 213.428 187.255 213.621 187.255 213.848C187.255 214.073 187.169 214.265 186.998 214.425C186.829 214.583 186.624 214.663 186.384 214.663ZM190.178 213.441V221.95H188.676V213.441H190.178ZM194.546 222.074C193.906 222.074 193.354 221.942 192.889 221.676C192.428 221.407 192.072 221.027 191.822 220.538C191.574 220.045 191.449 219.464 191.449 218.797C191.449 218.14 191.574 217.564 191.822 217.068C192.075 216.57 192.426 216.182 192.877 215.904C193.328 215.625 193.858 215.485 194.466 215.485C194.859 215.485 195.23 215.548 195.579 215.676C195.93 215.801 196.24 215.995 196.508 216.258C196.779 216.521 196.992 216.856 197.148 217.263C197.303 217.668 197.38 218.15 197.38 218.709V219.17H192.155V218.157H195.94C195.937 217.868 195.875 217.613 195.753 217.388C195.632 217.16 195.461 216.982 195.243 216.852C195.026 216.722 194.775 216.657 194.487 216.657C194.18 216.657 193.91 216.732 193.678 216.881C193.445 217.028 193.264 217.221 193.134 217.463C193.007 217.701 192.942 217.963 192.939 218.248V219.133C192.939 219.504 193.007 219.823 193.142 220.089C193.278 220.352 193.468 220.554 193.711 220.696C193.954 220.833 194.239 220.903 194.566 220.903C194.784 220.903 194.982 220.873 195.16 220.812C195.337 220.748 195.491 220.655 195.62 220.533C195.75 220.411 195.849 220.26 195.915 220.08L197.318 220.238C197.229 220.609 197.061 220.934 196.811 221.21C196.565 221.484 196.249 221.698 195.865 221.85C195.481 222 195.041 222.074 194.546 222.074Z" fill="#1F8268"/>
<path d="M-19.082 260.621H-18.029L-15.5531 266.675H-15.4677L-12.9917 260.621H-11.9388V267.914H-12.7641V262.373H-12.8352L-15.112 267.914H-15.9088L-18.1855 262.373H-18.2567V267.914H-19.082V260.621ZM-8.67573 268.042C-9.022 268.042 -9.33622 267.977 -9.61847 267.847C-9.90071 267.714 -10.1248 267.522 -10.2908 267.273C-10.4569 267.022 -10.5398 266.718 -10.5398 266.362C-10.5398 266.048 -10.4781 265.794 -10.3548 265.599C-10.2315 265.402 -10.0667 265.248 -9.8604 265.136C-9.65403 265.025 -9.42638 264.942 -9.17736 264.887C-8.92592 264.831 -8.67339 264.785 -8.41961 264.752C-8.08761 264.709 -7.81839 264.677 -7.61211 264.656C-7.40341 264.632 -7.25164 264.593 -7.15672 264.538C-7.05947 264.484 -7.01088 264.389 -7.01088 264.253V264.225C-7.01088 263.874 -7.10697 263.6 -7.29906 263.406C-7.48881 263.211 -7.7769 263.114 -8.16349 263.114C-8.56428 263.114 -8.8785 263.202 -9.10624 263.377C-9.33389 263.553 -9.49392 263.741 -9.58641 263.94L-10.3833 263.655C-10.241 263.323 -10.0513 263.064 -9.81415 262.878C-9.57456 262.691 -9.31368 262.561 -9.03152 262.487C-8.74694 262.411 -8.46703 262.373 -8.19196 262.373C-8.01649 262.373 -7.81488 262.394 -7.58723 262.437C-7.35716 262.477 -7.13544 262.562 -6.92198 262.69C-6.70618 262.818 -6.52711 263.012 -6.38478 263.27C-6.24253 263.529 -6.17132 263.876 -6.17132 264.311V267.914H-7.01088V267.174H-7.05354C-7.11047 267.293 -7.20539 267.42 -7.33821 267.555C-7.47094 267.69 -7.64767 267.805 -7.86822 267.9C-8.08878 267.995 -8.35792 268.042 -8.67573 268.042ZM-8.54767 267.288C-8.21567 267.288 -7.93584 267.222 -7.70811 267.092C-7.47812 266.961 -7.30498 266.793 -7.18878 266.586C-7.07015 266.379 -7.01088 266.162 -7.01088 265.935V265.165C-7.04644 265.208 -7.12475 265.247 -7.24571 265.283C-7.36425 265.316 -7.50183 265.345 -7.65835 265.371C-7.81246 265.396 -7.96306 265.416 -8.11015 265.436C-8.25482 265.452 -8.37219 265.467 -8.46227 265.478C-8.68049 265.507 -8.88443 265.553 -9.07418 265.617C-9.26151 265.679 -9.41336 265.772 -9.52956 265.899C-9.64335 266.022 -9.70028 266.19 -9.70028 266.404C-9.70028 266.697 -9.59234 266.917 -9.37654 267.067C-9.15841 267.214 -8.88209 267.288 -8.54767 267.288ZM-4.01286 262.445L-2.7038 264.681L-1.39467 262.445H-0.427052L-2.19149 265.179L-0.427052 267.914H-1.39467L-2.7038 265.792L-4.01286 267.914H-4.98048L-3.24451 265.179L-4.98048 262.445H-4.01286ZM0.770891 267.914V262.445H1.61045V267.914H0.770891ZM1.19781 261.533C1.03419 261.533 0.893021 261.477 0.774479 261.365C0.658276 261.254 0.600172 261.119 0.600172 260.963C0.600172 260.806 0.658276 260.672 0.774479 260.56C0.893021 260.449 1.03419 260.393 1.19781 260.393C1.36143 260.393 1.50134 260.449 1.61754 260.56C1.73617 260.672 1.79544 260.806 1.79544 260.963C1.79544 261.119 1.73617 261.254 1.61754 261.365C1.50134 261.477 1.36143 261.533 1.19781 261.533ZM3.14815 267.914V262.445H3.95925V263.299H4.03037C4.14424 263.007 4.32798 262.781 4.58176 262.618C4.83554 262.455 5.14024 262.373 5.49603 262.373C5.8565 262.373 6.15653 262.455 6.39603 262.618C6.63796 262.781 6.82646 263.007 6.96169 263.299H7.01855C7.15854 263.016 7.36841 262.792 7.64824 262.626C7.92806 262.457 8.26365 262.373 8.65501 262.373C9.14353 262.373 9.54315 262.527 9.85386 262.832C10.1645 263.137 10.3199 263.61 10.3199 264.253V267.914H9.48029V264.253C9.48029 263.849 9.37001 263.561 9.14946 263.388C8.92891 263.214 8.6692 263.128 8.37042 263.128C7.98616 263.128 7.68856 263.244 7.47752 263.477C7.2664 263.707 7.16088 263.999 7.16088 264.353V267.914H6.30713V264.168C6.30713 263.857 6.20628 263.606 6.00476 263.417C5.80316 263.224 5.54345 263.128 5.22564 263.128C5.00751 263.128 4.80348 263.186 4.61382 263.303C4.4264 263.419 4.27464 263.58 4.15843 263.787C4.04457 263.991 3.98771 264.227 3.98771 264.495V267.914H3.14815ZM15.2984 265.678V262.445H16.1379V267.914H15.2984V266.988H15.2415C15.1134 267.266 14.9142 267.502 14.6439 267.697C14.3735 267.889 14.032 267.985 13.6193 267.985C13.2778 267.985 12.9743 267.911 12.7086 267.761C12.443 267.609 12.2343 267.381 12.0825 267.078C11.9308 266.771 11.8549 266.385 11.8549 265.92V262.445H12.6944V265.863C12.6944 266.262 12.8059 266.58 13.0288 266.818C13.2541 267.055 13.5411 267.174 13.8897 267.174C14.0984 267.174 14.3106 267.12 14.5265 267.013C14.7446 266.907 14.9273 266.743 15.0743 266.522C15.2237 266.301 15.2984 266.02 15.2984 265.678ZM17.6756 267.914V262.445H18.4867V263.299H18.5578C18.6717 263.007 18.8555 262.781 19.1093 262.618C19.363 262.455 19.6678 262.373 20.0235 262.373C20.384 262.373 20.684 262.455 20.9235 262.618C21.1654 262.781 21.354 263.007 21.4892 263.299H21.5461C21.686 263.016 21.8959 262.792 22.1757 262.626C22.4556 262.457 22.7912 262.373 23.1825 262.373C23.671 262.373 24.0706 262.527 24.3813 262.832C24.6921 263.137 24.8473 263.61 24.8473 264.253V267.914H24.0078V264.253C24.0078 263.849 23.8975 263.561 23.6769 263.388C23.4564 263.214 23.1968 263.128 22.8979 263.128C22.5137 263.128 22.216 263.244 22.005 263.477C21.7939 263.707 21.6884 263.999 21.6884 264.353V267.914H20.8346V264.168C20.8346 263.857 20.7338 263.606 20.5322 263.417C20.3306 263.224 20.0709 263.128 19.7532 263.128C19.535 263.128 19.331 263.186 19.1413 263.303C18.954 263.419 18.8022 263.58 18.686 263.787C18.5721 263.991 18.5152 264.227 18.5152 264.495V267.914H17.6756ZM31.6331 262.445V263.157H28.6876V262.445H31.6331ZM29.5698 267.914V261.689C29.5698 261.376 29.6433 261.115 29.7904 260.906C29.9374 260.697 30.1283 260.54 30.3631 260.436C30.5979 260.331 30.8457 260.279 31.1066 260.279C31.3129 260.279 31.4813 260.296 31.6117 260.329C31.7422 260.362 31.8394 260.393 31.9034 260.421L31.6616 261.148C31.6188 261.133 31.5595 261.116 31.4837 261.094C31.4101 261.073 31.3129 261.062 31.192 261.062C30.9145 261.062 30.7141 261.133 30.5908 261.273C30.4698 261.413 30.4094 261.618 30.4094 261.889V267.914H29.5698ZM32.8097 267.914V262.445H33.6492V267.914H32.8097ZM33.2366 261.533C33.073 261.533 32.9318 261.477 32.8133 261.365C32.697 261.254 32.6389 261.119 32.6389 260.963C32.6389 260.806 32.697 260.672 32.8133 260.56C32.9318 260.449 33.073 260.393 33.2366 260.393C33.4002 260.393 33.5401 260.449 33.6563 260.56C33.7749 260.672 33.8342 260.806 33.8342 260.963C33.8342 261.119 33.7749 261.254 33.6563 261.365C33.5401 261.477 33.4002 261.533 33.2366 261.533ZM36.0265 260.621V267.914H35.1869V260.621H36.0265ZM39.8551 268.028C39.3286 268.028 38.8744 267.912 38.4927 267.68C38.1132 267.445 37.8203 267.116 37.6139 266.697C37.41 266.274 37.308 265.782 37.308 265.222C37.308 264.662 37.41 264.168 37.6139 263.741C37.8203 263.31 38.1072 262.976 38.4749 262.736C38.8448 262.494 39.2765 262.373 39.7697 262.373C40.0543 262.373 40.3353 262.42 40.6128 262.516C40.8903 262.61 41.1429 262.765 41.3706 262.979C41.5982 263.19 41.7797 263.47 41.9148 263.819C42.05 264.168 42.1176 264.597 42.1176 265.108V265.464H37.9056V264.738H41.2639C41.2639 264.429 41.2022 264.154 41.0789 263.911C40.9579 263.669 40.7848 263.478 40.5595 263.338C40.3366 263.198 40.0733 263.128 39.7697 263.128C39.4353 263.128 39.146 263.211 38.9017 263.377C38.6598 263.541 38.4736 263.755 38.3432 264.018C38.2127 264.282 38.1476 264.564 38.1476 264.866V265.35C38.1476 265.763 38.2187 266.113 38.361 266.401C38.5057 266.686 38.706 266.903 38.9622 267.053C39.2184 267.2 39.516 267.273 39.8551 267.273C40.0757 267.273 40.2749 267.242 40.4528 267.181C40.633 267.116 40.7884 267.022 40.9188 266.896C41.0492 266.768 41.15 266.608 41.2211 266.418L42.0322 266.647C41.9468 266.922 41.8034 267.164 41.6018 267.373C41.4002 267.579 41.1512 267.741 40.8547 267.858C40.5583 267.971 40.225 268.028 39.8551 268.028ZM50.0823 263.669L49.3285 263.883C49.2809 263.758 49.2108 263.635 49.1189 263.516C49.0288 263.395 48.9052 263.295 48.7483 263.217C48.5922 263.139 48.3918 263.1 48.1472 263.1C47.8133 263.1 47.5345 263.177 47.3116 263.331C47.0912 263.483 46.9802 263.676 46.9802 263.911C46.9802 264.12 47.0561 264.286 47.2081 264.407C47.36 264.527 47.5971 264.628 47.9193 264.709L48.7308 264.908C49.2191 265.027 49.5831 265.209 49.8227 265.453C50.0623 265.696 50.1825 266.008 50.1825 266.39C50.1825 266.703 50.0923 266.983 49.912 267.231C49.7342 267.477 49.4846 267.672 49.1648 267.815C48.8443 267.957 48.472 268.028 48.0479 268.028C47.4902 268.028 47.0294 267.907 46.6638 267.665C46.299 267.423 46.0677 267.069 45.9701 266.604L46.7673 266.404C46.8433 266.698 46.9869 266.92 47.1972 267.067C47.4109 267.214 47.6898 267.288 48.0337 267.288C48.4252 267.288 48.7358 267.205 48.9653 267.039C49.1982 266.87 49.3143 266.668 49.3143 266.433C49.3143 266.243 49.2475 266.084 49.1148 265.955C48.982 265.825 48.7783 265.728 48.5028 265.664L47.5921 265.45C47.092 265.331 46.7247 265.147 46.4893 264.898C46.2572 264.646 46.1412 264.332 46.1412 263.954C46.1412 263.646 46.2272 263.372 46.4008 263.135C46.5761 262.898 46.8149 262.711 47.1154 262.576C47.4193 262.44 47.7632 262.373 48.1472 262.373C48.6882 262.373 49.1123 262.491 49.4211 262.729C49.7317 262.967 49.9521 263.28 50.0823 263.669ZM51.4464 267.914V262.445H52.2853V267.914H51.4464ZM51.8729 261.533C51.7093 261.533 51.5682 261.477 51.4497 261.365C51.3337 261.254 51.2752 261.119 51.2752 260.963C51.2752 260.806 51.3337 260.672 51.4497 260.56C51.5682 260.449 51.7093 260.393 51.8729 260.393C52.0366 260.393 52.1768 260.449 52.2928 260.56C52.4114 260.672 52.4707 260.806 52.4707 260.963C52.4707 261.119 52.4114 261.254 52.2928 261.365C52.1768 261.477 52.0366 261.533 51.8729 261.533ZM53.6669 267.914V267.273L56.7691 263.285V263.228H53.7663V262.445H57.8501V263.114L54.8332 267.074V267.13H57.9495V267.914H53.6669ZM61.3772 268.028C60.8512 268.028 60.3963 267.912 60.0148 267.68C59.6358 267.445 59.3428 267.116 59.1366 266.697C58.932 266.274 58.8302 265.782 58.8302 265.222C58.8302 264.662 58.932 264.168 59.1366 263.741C59.3428 263.31 59.6291 262.976 59.9972 262.736C60.3671 262.494 60.7986 262.373 61.292 262.373C61.5767 262.373 61.8572 262.42 62.1352 262.516C62.4123 262.61 62.6653 262.765 62.8932 262.979C63.1202 263.19 63.3022 263.47 63.4374 263.819C63.5719 264.168 63.6395 264.597 63.6395 265.108V265.464H59.4279V264.738H62.7863C62.7863 264.429 62.7245 264.154 62.601 263.911C62.4799 263.669 62.3071 263.478 62.0817 263.338C61.8588 263.198 61.5959 263.128 61.292 263.128C60.9573 263.128 60.6684 263.211 60.4238 263.377C60.1817 263.541 59.9956 263.755 59.8653 264.018C59.7351 264.282 59.67 264.564 59.67 264.866V265.35C59.67 265.763 59.741 266.113 59.8829 266.401C60.0281 266.686 60.2285 266.903 60.4848 267.053C60.7402 267.2 61.0382 267.273 61.3772 267.273C61.5975 267.273 61.7971 267.242 61.9749 267.181C62.1552 267.116 62.3105 267.022 62.4407 266.896C62.5718 266.768 62.6719 266.608 62.7437 266.418L63.5543 266.647C63.4692 266.922 63.3256 267.164 63.1244 267.373C62.9224 267.579 62.6736 267.741 62.3773 267.858C62.0809 267.971 61.747 268.028 61.3772 268.028ZM70.1818 268.014C69.7127 268.014 69.2936 267.934 68.9263 267.772C68.5606 267.61 68.2701 267.386 68.0547 267.099C67.841 266.81 67.725 266.474 67.7058 266.091H68.6024C68.6216 266.326 68.7017 266.529 68.8445 266.7C68.9864 266.869 69.1725 266.999 69.4029 267.092C69.6325 267.184 69.888 267.231 70.1676 267.231C70.4807 267.231 70.7578 267.176 70.9999 267.067C71.242 266.957 71.4315 266.805 71.5693 266.611C71.707 266.416 71.7755 266.191 71.7755 265.935C71.7755 265.666 71.7095 265.43 71.5768 265.226C71.4432 265.019 71.2487 264.857 70.9932 264.741C70.737 264.625 70.4239 264.567 70.0541 264.567H69.4706V263.783H70.0541C70.3429 263.783 70.5967 263.731 70.8154 263.626C71.0358 263.522 71.2078 263.375 71.3313 263.185C71.4566 262.995 71.5192 262.772 71.5192 262.516C71.5192 262.268 71.4649 262.054 71.3556 261.871C71.247 261.688 71.0926 261.545 70.8931 261.443C70.6969 261.341 70.464 261.291 70.196 261.291C69.9447 261.291 69.7076 261.336 69.4847 261.429C69.2644 261.52 69.0841 261.652 68.9438 261.825C68.8044 261.996 68.7284 262.202 68.7159 262.445H67.8627C67.8769 262.062 67.9921 261.728 68.2075 261.44C68.4237 261.15 68.7059 260.924 69.054 260.763C69.4054 260.602 69.7903 260.521 70.2102 260.521C70.661 260.521 71.0475 260.613 71.3697 260.796C71.6928 260.975 71.9407 261.214 72.1135 261.511C72.2863 261.808 72.3732 262.129 72.3732 262.473C72.3732 262.883 72.2655 263.234 72.0493 263.524C71.8364 263.813 71.5459 264.013 71.1777 264.125V264.182C71.6377 264.258 71.9975 264.454 72.2555 264.77C72.5142 265.083 72.6436 265.472 72.6436 265.935C72.6436 266.331 72.536 266.687 72.3197 267.003C72.106 267.316 71.8147 267.563 71.4449 267.743C71.0751 267.924 70.6535 268.014 70.1818 268.014ZM74.2264 260.621H75.2799L77.756 266.675H77.8411L80.3171 260.621H81.3698V267.914H80.5442V262.373H80.4733L78.1967 267.914H77.3995L75.123 262.373H75.052V267.914H74.2264V260.621ZM83.1388 267.914V260.621H85.6858C86.1933 260.621 86.6124 260.709 86.9413 260.884C87.271 261.057 87.5165 261.291 87.6784 261.586C87.8395 261.878 87.9197 262.202 87.9197 262.558C87.9197 262.872 87.8646 263.131 87.7527 263.335C87.6434 263.539 87.4989 263.7 87.3186 263.819C87.1408 263.937 86.948 264.026 86.7393 264.083V264.154C86.9622 264.168 87.1859 264.246 87.4113 264.389C87.6367 264.531 87.8253 264.735 87.9764 265.001C88.1284 265.267 88.2044 265.593 88.2044 265.977C88.2044 266.342 88.1217 266.672 87.9556 266.963C87.7895 267.256 87.5273 267.487 87.1692 267.658C86.8111 267.829 86.3452 267.914 85.7709 267.914H83.1388ZM84.0212 267.13H85.7709C86.3477 267.13 86.7568 267.019 86.9989 266.796C87.2427 266.571 87.3654 266.297 87.3654 265.977C87.3654 265.73 87.3019 265.503 87.1767 265.294C87.0507 265.082 86.872 264.913 86.6391 264.788C86.407 264.659 86.1315 264.595 85.8143 264.595H84.0212V267.13ZM84.0212 263.826H85.6574C85.9228 263.826 86.1624 263.773 86.3761 263.669C86.5915 263.564 86.7626 263.417 86.8887 263.228C87.0164 263.038 87.0807 262.815 87.0807 262.558C87.0807 262.237 86.9688 261.966 86.7459 261.743C86.5231 261.517 86.1699 261.404 85.6858 261.404H84.0212V263.826ZM95.488 263.876V264.659H92.3007V263.876H95.488ZM101.391 268.042C101.044 268.042 100.731 267.977 100.448 267.847C100.166 267.714 99.9417 267.522 99.7755 267.273C99.6103 267.022 99.5268 266.718 99.5268 266.362C99.5268 266.048 99.5885 265.794 99.7121 265.599C99.8348 265.402 100 265.248 100.206 265.136C100.412 265.025 100.64 264.942 100.889 264.887C101.14 264.831 101.393 264.785 101.647 264.752C101.979 264.709 102.248 264.677 102.454 264.656C102.663 264.632 102.815 264.593 102.91 264.538C103.007 264.484 103.055 264.389 103.055 264.253V264.225C103.055 263.874 102.959 263.6 102.767 263.406C102.578 263.211 102.29 263.114 101.903 263.114C101.503 263.114 101.188 263.202 100.96 263.377C100.733 263.553 100.573 263.741 100.48 263.94L99.6837 263.655C99.8256 263.323 100.015 263.064 100.252 262.878C100.492 262.691 100.753 262.561 101.035 262.487C101.32 262.411 101.6 262.373 101.875 262.373C102.05 262.373 102.252 262.394 102.479 262.437C102.71 262.477 102.931 262.562 103.145 262.69C103.36 262.818 103.54 263.012 103.682 263.27C103.824 263.529 103.895 263.876 103.895 264.311V267.914H103.055V267.174H103.013C102.956 267.293 102.861 267.42 102.728 267.555C102.595 267.69 102.419 267.805 102.198 267.9C101.978 267.995 101.709 268.042 101.391 268.042ZM101.519 267.288C101.851 267.288 102.131 267.222 102.358 267.092C102.589 266.961 102.762 266.793 102.878 266.586C102.996 266.379 103.055 266.162 103.055 265.935V265.165C103.02 265.208 102.942 265.247 102.821 265.283C102.702 265.316 102.565 265.345 102.409 265.371C102.254 265.396 102.104 265.416 101.957 265.436C101.812 265.452 101.695 265.467 101.605 265.478C101.386 265.507 101.182 265.553 100.993 265.617C100.805 265.679 100.654 265.772 100.537 265.899C100.423 266.022 100.367 266.19 100.367 266.404C100.367 266.697 100.474 266.917 100.69 267.067C100.908 267.214 101.185 267.288 101.519 267.288ZM107.648 268.028C107.135 268.028 106.694 267.907 106.324 267.665C105.954 267.423 105.669 267.09 105.471 266.664C105.271 266.24 105.172 265.754 105.172 265.208C105.172 264.653 105.274 264.162 105.477 263.737C105.683 263.31 105.971 262.976 106.339 262.736C106.709 262.494 107.14 262.373 107.634 262.373C108.018 262.373 108.364 262.445 108.672 262.587C108.98 262.729 109.233 262.929 109.43 263.185C109.626 263.442 109.749 263.741 109.796 264.083H108.957C108.892 263.833 108.75 263.612 108.53 263.42C108.311 263.225 108.018 263.128 107.648 263.128C107.32 263.128 107.033 263.213 106.786 263.385C106.542 263.553 106.351 263.792 106.214 264.1C106.078 264.407 106.011 264.766 106.011 265.179C106.011 265.602 106.077 265.97 106.21 266.283C106.345 266.596 106.535 266.84 106.78 267.013C107.026 267.186 107.315 267.273 107.648 267.273C107.866 267.273 108.063 267.236 108.241 267.16C108.419 267.084 108.57 266.974 108.694 266.832C108.816 266.689 108.904 266.519 108.957 266.319H109.796C109.749 266.642 109.631 266.932 109.444 267.191C109.259 267.448 109.013 267.652 108.708 267.804C108.404 267.954 108.051 268.028 107.648 268.028ZM113.243 268.028C112.731 268.028 112.29 267.907 111.92 267.665C111.55 267.423 111.266 267.09 111.066 266.664C110.867 266.24 110.767 265.754 110.767 265.208C110.767 264.653 110.869 264.162 111.073 263.737C111.28 263.31 111.566 262.976 111.934 262.736C112.304 262.494 112.736 262.373 113.229 262.373C113.613 262.373 113.96 262.445 114.268 262.587C114.576 262.729 114.829 262.929 115.026 263.185C115.223 263.442 115.345 263.741 115.392 264.083H114.552C114.488 263.833 114.346 263.612 114.126 263.42C113.907 263.225 113.613 263.128 113.243 263.128C112.916 263.128 112.629 263.213 112.383 263.385C112.138 263.553 111.947 263.792 111.809 264.1C111.675 264.407 111.607 264.766 111.607 265.179C111.607 265.602 111.673 265.97 111.806 266.283C111.941 266.596 112.131 266.84 112.375 267.013C112.622 267.186 112.911 267.273 113.243 267.273C113.461 267.273 113.659 267.236 113.837 267.16C114.016 267.084 114.166 266.974 114.289 266.832C114.412 266.689 114.501 266.519 114.552 266.319H115.392C115.345 266.642 115.227 266.932 115.04 267.191C114.855 267.448 114.609 267.652 114.304 267.804C114 267.954 113.647 268.028 113.243 268.028ZM118.91 268.028C118.383 268.028 117.929 267.912 117.548 267.68C117.169 267.445 116.876 267.116 116.669 266.697C116.465 266.274 116.363 265.782 116.363 265.222C116.363 264.662 116.465 264.168 116.669 263.741C116.876 263.31 117.162 262.976 117.53 262.736C117.9 262.494 118.332 262.373 118.825 262.373C119.11 262.373 119.39 262.42 119.668 262.516C119.945 262.61 120.198 262.765 120.426 262.979C120.653 263.19 120.835 263.47 120.97 263.819C121.105 264.168 121.172 264.597 121.172 265.108V265.464H116.961V264.738H120.319C120.319 264.429 120.257 264.154 120.134 263.911C120.013 263.669 119.84 263.478 119.615 263.338C119.392 263.198 119.129 263.128 118.825 263.128C118.49 263.128 118.201 263.211 117.957 263.377C117.715 263.541 117.528 263.755 117.398 264.018C117.268 264.282 117.203 264.564 117.203 264.866V265.35C117.203 265.763 117.274 266.113 117.416 266.401C117.561 266.686 117.761 266.903 118.018 267.053C118.273 267.2 118.571 267.273 118.91 267.273C119.13 267.273 119.33 267.242 119.508 267.181C119.688 267.116 119.843 267.022 119.974 266.896C120.105 266.768 120.205 266.608 120.277 266.418L121.087 266.647C121.002 266.922 120.858 267.164 120.657 267.373C120.455 267.579 120.206 267.741 119.91 267.858C119.614 267.971 119.28 268.028 118.91 268.028ZM122.45 269.966V262.445H123.261V263.313H123.36C123.422 263.219 123.507 263.097 123.617 262.95C123.728 262.801 123.887 262.668 124.093 262.551C124.302 262.432 124.584 262.373 124.94 262.373C125.4 262.373 125.805 262.488 126.157 262.719C126.508 262.949 126.781 263.275 126.978 263.698C127.175 264.12 127.274 264.619 127.274 265.193C127.274 265.773 127.175 266.275 126.978 266.7C126.781 267.123 126.508 267.451 126.16 267.683C125.811 267.914 125.41 268.028 124.954 268.028C124.603 268.028 124.322 267.97 124.111 267.854C123.9 267.736 123.738 267.601 123.623 267.451C123.51 267.299 123.422 267.174 123.36 267.074H123.289V269.966H122.45ZM123.275 265.179C123.275 265.593 123.335 265.957 123.456 266.273C123.577 266.586 123.754 266.832 123.986 267.01C124.219 267.186 124.503 267.273 124.84 267.273C125.191 267.273 125.484 267.181 125.719 266.996C125.957 266.808 126.134 266.556 126.253 266.24C126.374 265.922 126.434 265.569 126.434 265.179C126.434 264.795 126.375 264.448 126.256 264.139C126.14 263.829 125.963 263.583 125.726 263.402C125.492 263.219 125.196 263.128 124.84 263.128C124.499 263.128 124.212 263.214 123.98 263.388C123.747 263.559 123.572 263.798 123.453 264.108C123.334 264.414 123.275 264.771 123.275 265.179ZM130.93 262.445V263.157H128.099V262.445H130.93ZM128.924 261.133H129.764V266.347C129.764 266.585 129.798 266.763 129.867 266.881C129.938 266.998 130.028 267.076 130.137 267.116C130.249 267.155 130.366 267.174 130.49 267.174C130.582 267.174 130.658 267.169 130.717 267.16C130.777 267.147 130.823 267.138 130.859 267.13L131.031 267.886C130.973 267.907 130.894 267.929 130.792 267.95C130.69 267.974 130.561 267.985 130.404 267.985C130.167 267.985 129.934 267.934 129.707 267.832C129.482 267.731 129.294 267.575 129.145 267.366C128.998 267.157 128.924 266.893 128.924 266.576V261.133ZM133.801 268.042C133.455 268.042 133.141 267.977 132.859 267.847C132.577 267.714 132.352 267.522 132.187 267.273C132.021 267.022 131.937 266.718 131.937 266.362C131.937 266.048 131.999 265.794 132.122 265.599C132.246 265.402 132.41 265.248 132.617 265.136C132.823 265.025 133.051 264.942 133.299 264.887C133.552 264.831 133.804 264.785 134.058 264.752C134.39 264.709 134.659 264.677 134.865 264.656C135.073 264.632 135.225 264.593 135.321 264.538C135.417 264.484 135.467 264.389 135.467 264.253V264.225C135.467 263.874 135.371 263.6 135.178 263.406C134.988 263.211 134.7 263.114 134.314 263.114C133.913 263.114 133.598 263.202 133.371 263.377C133.143 263.553 132.983 263.741 132.89 263.94L132.094 263.655C132.236 263.323 132.426 263.064 132.663 262.878C132.903 262.691 133.163 262.561 133.446 262.487C133.73 262.411 134.01 262.373 134.285 262.373C134.461 262.373 134.662 262.394 134.89 262.437C135.12 262.477 135.341 262.562 135.555 262.69C135.771 262.818 135.95 263.012 136.093 263.27C136.235 263.529 136.306 263.876 136.306 264.311V267.914H135.467V267.174H135.423C135.366 267.293 135.272 267.42 135.139 267.555C135.006 267.69 134.83 267.805 134.609 267.9C134.388 267.995 134.119 268.042 133.801 268.042ZM133.93 267.288C134.261 267.288 134.542 267.222 134.769 267.092C134.999 266.961 135.172 266.793 135.288 266.586C135.407 266.379 135.467 266.162 135.467 265.935V265.165C135.431 265.208 135.352 265.247 135.231 265.283C135.113 265.316 134.975 265.345 134.819 265.371C134.664 265.396 134.514 265.416 134.367 265.436C134.223 265.452 134.105 265.467 134.015 265.478C133.797 265.507 133.593 265.553 133.403 265.617C133.216 265.679 133.064 265.772 132.948 265.899C132.834 266.022 132.777 266.19 132.777 266.404C132.777 266.697 132.885 266.917 133.101 267.067C133.319 267.214 133.595 267.288 133.93 267.288ZM137.952 267.914V260.621H138.792V263.313H138.863C138.924 263.219 139.01 263.097 139.119 262.95C139.23 262.801 139.389 262.668 139.596 262.551C139.804 262.432 140.086 262.373 140.442 262.373C140.902 262.373 141.308 262.488 141.659 262.719C142.01 262.949 142.284 263.275 142.481 263.698C142.678 264.12 142.776 264.619 142.776 265.193C142.776 265.773 142.678 266.275 142.481 266.7C142.284 267.123 142.011 267.451 141.663 267.683C141.314 267.914 140.912 268.028 140.456 268.028C140.106 268.028 139.824 267.97 139.613 267.854C139.402 267.736 139.24 267.601 139.126 267.451C139.012 267.299 138.924 267.174 138.863 267.074H138.763V267.914H137.952ZM138.777 265.179C138.777 265.593 138.838 265.957 138.959 266.273C139.08 266.586 139.257 266.832 139.489 267.01C139.722 267.186 140.005 267.273 140.343 267.273C140.693 267.273 140.986 267.181 141.221 266.996C141.458 266.808 141.637 266.556 141.755 266.24C141.875 265.922 141.936 265.569 141.936 265.179C141.936 264.795 141.877 264.448 141.759 264.139C141.643 263.829 141.466 263.583 141.228 263.402C140.994 263.219 140.698 263.128 140.343 263.128C140.001 263.128 139.714 263.214 139.482 263.388C139.249 263.559 139.074 263.798 138.955 264.108C138.837 264.414 138.777 264.771 138.777 265.179ZM144.9 260.621V267.914H144.06V260.621H144.9ZM148.728 268.028C148.202 268.028 147.747 267.912 147.366 267.68C146.986 267.445 146.693 267.116 146.487 266.697C146.283 266.274 146.181 265.782 146.181 265.222C146.181 264.662 146.283 264.168 146.487 263.741C146.693 263.31 146.98 262.976 147.348 262.736C147.718 262.494 148.15 262.373 148.643 262.373C148.928 262.373 149.208 262.42 149.486 262.516C149.763 262.61 150.016 262.765 150.243 262.979C150.471 263.19 150.653 263.47 150.788 263.819C150.923 264.168 150.991 264.597 150.991 265.108V265.464H146.779V264.738H150.137C150.137 264.429 150.076 264.154 149.952 263.911C149.831 263.669 149.658 263.478 149.433 263.338C149.21 263.198 148.946 263.128 148.643 263.128C148.308 263.128 148.019 263.211 147.775 263.377C147.533 263.541 147.347 263.755 147.216 264.018C147.086 264.282 147.02 264.564 147.02 264.866V265.35C147.02 265.763 147.092 266.113 147.234 266.401C147.378 266.686 147.58 266.903 147.835 267.053C148.091 267.2 148.389 267.273 148.728 267.273C148.949 267.273 149.148 267.242 149.326 267.181C149.506 267.116 149.662 267.022 149.792 266.896C149.922 266.768 150.023 266.608 150.094 266.418L150.905 266.647C150.82 266.922 150.677 267.164 150.475 267.373C150.274 267.579 150.024 267.741 149.728 267.858C149.431 267.971 149.098 268.028 148.728 268.028ZM157.519 262.445V263.157H154.573V262.445H157.519ZM155.455 267.914V261.689C155.455 261.376 155.529 261.115 155.676 260.906C155.823 260.697 156.014 260.54 156.248 260.436C156.484 260.331 156.732 260.279 156.992 260.279C157.198 260.279 157.367 260.296 157.497 260.329C157.627 260.362 157.725 260.393 157.789 260.421L157.547 261.148C157.505 261.133 157.445 261.116 157.369 261.094C157.296 261.073 157.198 261.062 157.077 261.062C156.8 261.062 156.6 261.133 156.476 261.273C156.355 261.413 156.295 261.618 156.295 261.889V267.914H155.455ZM158.695 267.914V262.445H159.535V267.914H158.695ZM159.122 261.533C158.959 261.533 158.818 261.477 158.698 261.365C158.582 261.254 158.525 261.119 158.525 260.963C158.525 260.806 158.582 260.672 158.698 260.56C158.818 260.449 158.959 260.393 159.122 260.393C159.286 260.393 159.425 260.449 159.541 260.56C159.66 260.672 159.719 260.806 159.719 260.963C159.719 261.119 159.66 261.254 159.541 261.365C159.425 261.477 159.286 261.533 159.122 261.533ZM161.912 260.621V267.914H161.073V260.621H161.912ZM165.741 268.028C165.214 268.028 164.76 267.912 164.378 267.68C163.999 267.445 163.705 267.116 163.499 266.697C163.296 266.274 163.194 265.782 163.194 265.222C163.194 264.662 163.296 264.168 163.499 263.741C163.705 263.31 163.993 262.976 164.36 262.736C164.731 262.494 165.162 262.373 165.656 262.373C165.939 262.373 166.221 262.42 166.499 262.516C166.776 262.61 167.028 262.765 167.256 262.979C167.484 263.19 167.665 263.47 167.8 263.819C167.935 264.168 168.003 264.597 168.003 265.108V265.464H163.791V264.738H167.149C167.149 264.429 167.087 264.154 166.965 263.911C166.844 263.669 166.67 263.478 166.445 263.338C166.222 263.198 165.959 263.128 165.656 263.128C165.321 263.128 165.031 263.211 164.787 263.377C164.545 263.541 164.359 263.755 164.229 264.018C164.099 264.282 164.033 264.564 164.033 264.866V265.35C164.033 265.763 164.105 266.113 164.246 266.401C164.391 266.686 164.591 266.903 164.848 267.053C165.104 267.2 165.402 267.273 165.741 267.273C165.961 267.273 166.161 267.242 166.338 267.181C166.519 267.116 166.674 267.022 166.804 266.896C166.935 266.768 167.036 266.608 167.106 266.418L167.918 266.647C167.833 266.922 167.689 267.164 167.487 267.373C167.286 267.579 167.036 267.741 166.74 267.858C166.444 267.971 166.111 268.028 165.741 268.028ZM174.474 262.445V263.157H171.642V262.445H174.474ZM172.468 261.133H173.307V266.347C173.307 266.585 173.342 266.763 173.41 266.881C173.482 266.998 173.572 267.076 173.681 267.116C173.792 267.155 173.909 267.174 174.033 267.174C174.125 267.174 174.201 267.169 174.261 267.16C174.32 267.147 174.368 267.138 174.403 267.13L174.574 267.886C174.517 267.907 174.437 267.929 174.335 267.95C174.233 267.974 174.104 267.985 173.948 267.985C173.711 267.985 173.478 267.934 173.251 267.832C173.025 267.731 172.837 267.575 172.688 267.366C172.541 267.157 172.468 266.893 172.468 266.576V261.133ZM176.278 269.966C176.136 269.966 176.009 269.954 175.897 269.93C175.786 269.908 175.708 269.888 175.666 269.866L175.879 269.125C176.083 269.177 176.263 269.196 176.42 269.182C176.576 269.168 176.715 269.098 176.836 268.972C176.96 268.849 177.072 268.648 177.174 268.37L177.33 267.943L175.31 262.445H176.221L177.729 266.803H177.786L179.295 262.445H180.205L177.885 268.712C177.781 268.995 177.652 269.228 177.498 269.414C177.344 269.601 177.164 269.74 176.96 269.831C176.759 269.921 176.531 269.966 176.278 269.966ZM181.313 269.966V262.445H182.125V263.313H182.224C182.286 263.219 182.371 263.097 182.48 262.95C182.591 262.801 182.751 262.668 182.957 262.551C183.166 262.432 183.448 262.373 183.803 262.373C184.263 262.373 184.669 262.488 185.02 262.719C185.371 262.949 185.645 263.275 185.842 263.698C186.038 264.12 186.137 264.619 186.137 265.193C186.137 265.773 186.038 266.275 185.842 266.7C185.645 267.123 185.372 267.451 185.024 267.683C184.675 267.914 184.273 268.028 183.818 268.028C183.467 268.028 183.186 267.97 182.974 267.854C182.763 267.736 182.601 267.601 182.487 267.451C182.373 267.299 182.286 267.174 182.224 267.074H182.153V269.966H181.313ZM182.139 265.179C182.139 265.593 182.199 265.957 182.32 266.273C182.441 266.586 182.617 266.832 182.85 267.01C183.082 267.186 183.367 267.273 183.704 267.273C184.055 267.273 184.348 267.181 184.582 266.996C184.819 266.808 184.997 266.556 185.116 266.24C185.237 265.922 185.298 265.569 185.298 265.179C185.298 264.795 185.238 264.448 185.12 264.139C185.003 263.829 184.827 263.583 184.59 263.402C184.354 263.219 184.06 263.128 183.704 263.128C183.363 263.128 183.075 263.214 182.842 263.388C182.61 263.559 182.435 263.798 182.317 264.108C182.198 264.414 182.139 264.771 182.139 265.179ZM189.709 268.028C189.182 268.028 188.728 267.912 188.346 267.68C187.966 267.445 187.673 267.116 187.467 266.697C187.264 266.274 187.162 265.782 187.162 265.222C187.162 264.662 187.264 264.168 187.467 263.741C187.673 263.31 187.961 262.976 188.328 262.736C188.699 262.494 189.13 262.373 189.623 262.373C189.907 262.373 190.189 262.42 190.466 262.516C190.744 262.61 190.996 262.765 191.224 262.979C191.452 263.19 191.633 263.47 191.768 263.819C191.903 264.168 191.971 264.597 191.971 265.108V265.464H187.759V264.738H191.117C191.117 264.429 191.055 264.154 190.933 263.911C190.812 263.669 190.638 263.478 190.413 263.338C190.19 263.198 189.927 263.128 189.623 263.128C189.289 263.128 188.999 263.211 188.755 263.377C188.513 263.541 188.327 263.755 188.197 264.018C188.066 264.282 188.001 264.564 188.001 264.866V265.35C188.001 265.763 188.073 266.113 188.214 266.401C188.359 266.686 188.559 266.903 188.815 267.053C189.072 267.2 189.37 267.273 189.709 267.273C189.929 267.273 190.129 267.242 190.306 267.181C190.487 267.116 190.642 267.022 190.772 266.896C190.902 266.768 191.004 266.608 191.074 266.418L191.886 266.647C191.8 266.922 191.657 267.164 191.455 267.373C191.254 267.579 191.004 267.741 190.708 267.858C190.412 267.971 190.079 268.028 189.709 268.028ZM197.118 263.669L196.365 263.883C196.317 263.758 196.247 263.635 196.154 263.516C196.064 263.395 195.941 263.295 195.784 263.217C195.628 263.139 195.428 263.1 195.183 263.1C194.849 263.1 194.571 263.177 194.348 263.331C194.126 263.483 194.016 263.676 194.016 263.911C194.016 264.12 194.092 264.286 194.244 264.407C194.396 264.527 194.633 264.628 194.955 264.709L195.767 264.908C196.255 265.027 196.619 265.209 196.859 265.453C197.098 265.696 197.219 266.008 197.219 266.39C197.219 266.703 197.128 266.983 196.948 267.231C196.77 267.477 196.521 267.672 196.201 267.815C195.88 267.957 195.508 268.028 195.084 268.028C194.526 268.028 194.066 267.907 193.7 267.665C193.335 267.423 193.104 267.069 193.006 266.604L193.803 266.404C193.879 266.698 194.022 266.92 194.233 267.067C194.447 267.214 194.726 267.288 195.07 267.288C195.461 267.288 195.772 267.205 196.001 267.039C196.234 266.87 196.35 266.668 196.35 266.433C196.35 266.243 196.284 266.084 196.151 265.955C196.018 265.825 195.814 265.728 195.539 265.664L194.628 265.45C194.128 265.331 193.76 265.147 193.525 264.898C193.293 264.646 193.177 264.332 193.177 263.954C193.177 263.646 193.263 263.372 193.437 263.135C193.612 262.898 193.85 262.711 194.152 262.576C194.455 262.44 194.799 262.373 195.183 262.373C195.724 262.373 196.148 262.491 196.457 262.729C196.768 262.967 196.988 263.28 197.118 263.669ZM201.911 267.971C201.736 267.971 201.585 267.909 201.459 267.782C201.334 267.657 201.271 267.506 201.271 267.33C201.271 267.155 201.334 267.004 201.459 266.878C201.585 266.752 201.736 266.689 201.911 266.689C202.087 266.689 202.237 266.752 202.363 266.878C202.489 267.004 202.551 267.155 202.551 267.33C202.551 267.446 202.522 267.553 202.463 267.651C202.406 267.748 202.328 267.827 202.232 267.886C202.136 267.943 202.03 267.971 201.911 267.971ZM206.122 268.028C205.666 268.028 205.264 267.914 204.915 267.683C204.567 267.451 204.294 267.123 204.097 266.7C203.9 266.275 203.802 265.773 203.802 265.193C203.802 264.619 203.9 264.12 204.097 263.698C204.294 263.275 204.568 262.949 204.919 262.719C205.27 262.488 205.676 262.373 206.136 262.373C206.492 262.373 206.772 262.432 206.979 262.551C207.188 262.668 207.346 262.801 207.456 262.95C207.567 263.097 207.654 263.219 207.715 263.313H207.786V260.621H208.626V267.914H207.815V267.074H207.715C207.654 267.174 207.566 267.299 207.452 267.451C207.338 267.601 207.175 267.736 206.965 267.854C206.754 267.97 206.472 268.028 206.122 268.028ZM206.235 267.273C206.572 267.273 206.856 267.186 207.089 267.01C207.321 266.832 207.498 266.586 207.619 266.273C207.74 265.957 207.801 265.593 207.801 265.179C207.801 264.771 207.741 264.414 207.623 264.108C207.504 263.798 207.329 263.559 207.096 263.388C206.864 263.214 206.577 263.128 206.235 263.128C205.88 263.128 205.583 263.219 205.346 263.402C205.111 263.583 204.935 263.829 204.816 264.139C204.7 264.448 204.642 264.795 204.642 265.179C204.642 265.569 204.701 265.922 204.819 266.24C204.941 266.556 205.118 266.808 205.353 266.996C205.59 267.181 205.885 267.273 206.235 267.273ZM212.5 268.028C212.006 268.028 211.574 267.911 211.202 267.675C210.832 267.441 210.542 267.112 210.333 266.689C210.127 266.266 210.024 265.772 210.024 265.208C210.024 264.638 210.127 264.14 210.333 263.716C210.542 263.29 210.832 262.96 211.202 262.725C211.574 262.491 212.006 262.373 212.5 262.373C212.993 262.373 213.425 262.491 213.794 262.725C214.167 262.96 214.456 263.29 214.663 263.716C214.871 264.14 214.976 264.638 214.976 265.208C214.976 265.772 214.871 266.266 214.663 266.689C214.456 267.112 214.167 267.441 213.794 267.675C213.425 267.911 212.993 268.028 212.5 268.028ZM212.5 267.273C212.874 267.273 213.183 267.177 213.425 266.985C213.667 266.793 213.845 266.54 213.962 266.226C214.078 265.913 214.136 265.574 214.136 265.208C214.136 264.842 214.078 264.501 213.962 264.185C213.845 263.87 213.667 263.615 213.425 263.42C213.183 263.225 212.874 263.128 212.5 263.128C212.125 263.128 211.817 263.225 211.575 263.42C211.333 263.615 211.154 263.87 211.038 264.185C210.922 264.501 210.863 264.842 210.863 265.208C210.863 265.574 210.922 265.913 211.038 266.226C211.154 266.54 211.333 266.793 211.575 266.985C211.817 267.177 212.125 267.273 212.5 267.273ZM218.477 268.028C217.965 268.028 217.523 267.907 217.154 267.665C216.784 267.423 216.499 267.09 216.3 266.664C216.101 266.24 216.002 265.754 216.002 265.208C216.002 264.653 216.104 264.162 216.307 263.737C216.513 263.31 216.801 262.976 217.168 262.736C217.538 262.494 217.969 262.373 218.463 262.373C218.847 262.373 219.193 262.445 219.502 262.587C219.81 262.729 220.063 262.929 220.259 263.185C220.456 263.442 220.578 263.741 220.626 264.083H219.787C219.722 263.833 219.58 263.612 219.359 263.42C219.141 263.225 218.847 263.128 218.477 263.128C218.15 263.128 217.863 263.213 217.616 263.385C217.372 263.553 217.181 263.792 217.043 264.1C216.908 264.407 216.841 264.766 216.841 265.179C216.841 265.602 216.907 265.97 217.04 266.283C217.175 266.596 217.365 266.84 217.609 267.013C217.856 267.186 218.145 267.273 218.477 267.273C218.696 267.273 218.893 267.236 219.071 267.16C219.249 267.084 219.4 266.974 219.523 266.832C219.646 266.689 219.734 266.519 219.787 266.319H220.626C220.578 266.642 220.461 266.932 220.273 267.191C220.089 267.448 219.843 267.652 219.537 267.804C219.234 267.954 218.88 268.028 218.477 268.028ZM223.105 266.917L223.048 267.302C223.008 267.573 222.946 267.863 222.864 268.171C222.783 268.479 222.698 268.77 222.611 269.043C222.523 269.317 222.45 269.534 222.394 269.695H221.753C221.784 269.543 221.824 269.343 221.874 269.094C221.925 268.844 221.974 268.565 222.024 268.256C222.077 267.95 222.119 267.637 222.152 267.316L222.195 266.917H223.105ZM228.09 267.971C227.914 267.971 227.764 267.909 227.638 267.782C227.513 267.657 227.45 267.506 227.45 267.33C227.45 267.155 227.513 267.004 227.638 266.878C227.764 266.752 227.914 266.689 228.09 266.689C228.266 266.689 228.416 266.752 228.542 266.878C228.667 267.004 228.731 267.155 228.731 267.33C228.731 267.446 228.701 267.553 228.641 267.651C228.585 267.748 228.508 267.827 228.41 267.886C228.316 267.943 228.209 267.971 228.09 267.971ZM230.237 269.966V262.445H231.048V263.313H231.147C231.209 263.219 231.294 263.097 231.404 262.95C231.516 262.801 231.674 262.668 231.88 262.551C232.089 262.432 232.371 262.373 232.727 262.373C233.188 262.373 233.593 262.488 233.944 262.719C234.295 262.949 234.568 263.275 234.765 263.698C234.962 264.12 235.061 264.619 235.061 265.193C235.061 265.773 234.962 266.275 234.765 266.7C234.568 267.123 234.296 267.451 233.947 267.683C233.598 267.914 233.197 268.028 232.741 268.028C232.39 268.028 232.109 267.97 231.898 267.854C231.688 267.736 231.525 267.601 231.411 267.451C231.297 267.299 231.209 267.174 231.147 267.074H231.076V269.966H230.237ZM231.062 265.179C231.062 265.593 231.123 265.957 231.243 266.273C231.365 266.586 231.541 266.832 231.774 267.01C232.006 267.186 232.291 267.273 232.628 267.273C232.979 267.273 233.271 267.181 233.507 266.996C233.744 266.808 233.922 266.556 234.04 266.24C234.161 265.922 234.221 265.569 234.221 265.179C234.221 264.795 234.162 264.448 234.043 264.139C233.927 263.829 233.75 263.583 233.513 263.402C233.279 263.219 232.983 263.128 232.628 263.128C232.286 263.128 231.999 263.214 231.767 263.388C231.534 263.559 231.359 263.798 231.24 264.108C231.122 264.414 231.062 264.771 231.062 265.179ZM238.405 268.028C237.949 268.028 237.548 267.914 237.199 267.683C236.85 267.451 236.578 267.123 236.381 266.7C236.184 266.275 236.085 265.773 236.085 265.193C236.085 264.619 236.184 264.12 236.381 263.698C236.578 263.275 236.852 262.949 237.202 262.719C237.554 262.488 237.959 262.373 238.419 262.373C238.775 262.373 239.056 262.432 239.263 262.551C239.471 262.668 239.63 262.801 239.739 262.95C239.85 263.097 239.937 263.219 239.999 263.313H240.07V260.621H240.91V267.914H240.098V267.074H239.999C239.937 267.174 239.849 267.299 239.735 267.451C239.622 267.601 239.459 267.736 239.248 267.854C239.037 267.97 238.756 268.028 238.405 268.028ZM238.519 267.273C238.855 267.273 239.14 267.186 239.373 267.01C239.605 266.832 239.782 266.586 239.903 266.273C240.023 265.957 240.084 265.593 240.084 265.179C240.084 264.771 240.025 264.414 239.906 264.108C239.788 263.798 239.612 263.559 239.379 263.388C239.147 263.214 238.86 263.128 238.519 263.128C238.163 263.128 237.867 263.219 237.63 263.402C237.394 263.583 237.218 263.829 237.1 264.139C236.983 264.448 236.925 264.795 236.925 265.179C236.925 265.569 236.984 265.922 237.103 266.24C237.224 266.556 237.402 266.808 237.636 266.996C237.873 267.181 238.167 267.273 238.519 267.273ZM244.997 262.445V263.157H242.051V262.445H244.997ZM242.933 267.914V261.689C242.933 261.376 243.007 261.115 243.154 260.906C243.301 260.697 243.492 260.54 243.727 260.436C243.962 260.331 244.21 260.279 244.47 260.279C244.676 260.279 244.845 260.296 244.975 260.329C245.106 260.362 245.203 260.393 245.267 260.421L245.025 261.148C244.983 261.133 244.923 261.116 244.847 261.094C244.774 261.073 244.676 261.062 244.555 261.062C244.278 261.062 244.078 261.133 243.954 261.273C243.833 261.413 243.773 261.618 243.773 261.889V267.914H242.933Z" fill="#5E6C84"/>
<path d="M77.2695 116.194H79.4692V124.136C79.4692 125.006 79.2639 125.772 78.8523 126.433C78.4449 127.094 77.8723 127.61 77.1326 127.982C76.3938 128.35 75.5298 128.534 74.5422 128.534C73.5496 128.534 72.684 128.35 71.9452 127.982C71.2064 127.61 70.6329 127.094 70.2255 126.433C69.8189 125.772 69.6152 125.006 69.6152 124.136V116.194H71.8149V123.952C71.8149 124.458 71.9251 124.909 72.1464 125.305C72.3717 125.701 72.6881 126.011 73.0955 126.237C73.5021 126.459 73.9846 126.569 74.5422 126.569C75.099 126.569 75.5816 126.459 75.9889 126.237C76.3997 126.011 76.7161 125.701 76.9373 125.305C77.1585 124.909 77.2695 124.458 77.2695 123.952V116.194ZM81.7649 131.769V119.233H83.8753V120.741H84.0005C84.1107 120.519 84.2668 120.284 84.4689 120.034C84.67 119.781 84.943 119.565 85.287 119.387C85.6309 119.205 86.0692 119.114 86.6035 119.114C87.3064 119.114 87.9408 119.294 88.506 119.655C89.0753 120.011 89.5261 120.539 89.8583 121.239C90.1939 121.936 90.3617 122.79 90.3617 123.803C90.3617 124.805 90.1981 125.655 89.87 126.356C89.542 127.056 89.0953 127.59 88.5302 127.958C87.965 128.326 87.3247 128.51 86.6093 128.51C86.0875 128.51 85.6543 128.423 85.3103 128.249C84.9664 128.075 84.6901 127.865 84.4806 127.62C84.2752 127.371 84.1149 127.135 84.0005 126.914H83.9112V131.769H81.7649ZM83.8695 123.792C83.8695 124.381 83.9529 124.897 84.1191 125.341C84.2885 125.784 84.5315 126.13 84.8479 126.379C85.1684 126.625 85.5558 126.747 86.0099 126.747C86.4841 126.747 86.8814 126.621 87.202 126.367C87.5217 126.11 87.763 125.76 87.9249 125.317C88.0911 124.87 88.1745 124.361 88.1745 123.792C88.1745 123.226 88.0936 122.723 87.9308 122.284C87.7688 121.845 87.5276 121.5 87.2079 121.251C86.8873 121.002 86.4883 120.877 86.0099 120.877C85.5516 120.877 85.1626 120.998 84.842 121.239C84.5223 121.481 84.2785 121.819 84.1132 122.254C83.9505 122.69 83.8695 123.202 83.8695 123.792ZM94.3462 116.194V128.35H92.2V116.194H94.3462ZM100.525 128.528C99.6364 128.528 98.8659 128.332 98.2139 127.94C97.5611 127.549 97.0552 127.001 96.6954 126.296C96.3397 125.592 96.1619 124.769 96.1619 123.827C96.1619 122.885 96.3397 122.06 96.6954 121.352C97.0552 120.644 97.5611 120.094 98.2139 119.702C98.8659 119.31 99.6364 119.114 100.525 119.114C101.415 119.114 102.186 119.31 102.838 119.702C103.491 120.094 103.994 120.644 104.35 121.352C104.709 122.06 104.89 122.885 104.89 123.827C104.89 124.769 104.709 125.592 104.35 126.296C103.994 127.001 103.491 127.549 102.838 127.94C102.186 128.332 101.415 128.528 100.525 128.528ZM100.538 126.807C101.02 126.807 101.423 126.674 101.748 126.409C102.071 126.14 102.313 125.78 102.471 125.329C102.632 124.878 102.713 124.375 102.713 123.821C102.713 123.263 102.632 122.759 102.471 122.308C102.313 121.853 102.071 121.491 101.748 121.221C101.423 120.952 101.02 120.818 100.538 120.818C100.044 120.818 99.6322 120.952 99.3041 121.221C98.9802 121.491 98.7373 121.853 98.5753 122.308C98.4167 122.759 98.3383 123.263 98.3383 123.821C98.3383 124.375 98.4167 124.878 98.5753 125.329C98.7373 125.78 98.9802 126.14 99.3041 126.409C99.6322 126.674 100.044 126.807 100.538 126.807ZM109.332 128.534C108.755 128.534 108.235 128.431 107.772 128.225C107.314 128.016 106.95 127.707 106.681 127.299C106.417 126.892 106.285 126.389 106.285 125.792C106.285 125.277 106.379 124.852 106.569 124.516C106.759 124.179 107.018 123.91 107.346 123.708C107.674 123.507 108.044 123.354 108.454 123.251C108.869 123.145 109.298 123.067 109.741 123.02C110.274 122.965 110.708 122.915 111.04 122.872C111.371 122.824 111.612 122.753 111.763 122.658C111.917 122.559 111.994 122.407 111.994 122.201V122.165C111.994 121.718 111.861 121.372 111.597 121.126C111.332 120.881 110.95 120.759 110.452 120.759C109.927 120.759 109.51 120.873 109.202 121.103C108.897 121.332 108.691 121.603 108.585 121.916L106.581 121.631C106.739 121.077 107 120.614 107.363 120.242C107.727 119.866 108.171 119.585 108.697 119.399C109.223 119.209 109.804 119.114 110.44 119.114C110.879 119.114 111.316 119.166 111.751 119.269C112.186 119.372 112.583 119.542 112.942 119.779C113.302 120.013 113.591 120.331 113.808 120.735C114.029 121.138 114.14 121.643 114.14 122.248V128.35H112.077V127.098H112.006C111.875 127.351 111.692 127.588 111.455 127.81C111.221 128.027 110.927 128.204 110.571 128.338C110.219 128.469 109.806 128.534 109.332 128.534ZM109.889 126.955C110.32 126.955 110.693 126.87 111.01 126.7C111.326 126.526 111.569 126.296 111.739 126.011C111.913 125.726 112 125.416 112 125.079V124.005C111.933 124.061 111.818 124.112 111.656 124.16C111.498 124.207 111.32 124.249 111.122 124.284C110.925 124.32 110.729 124.351 110.536 124.379C110.342 124.407 110.174 124.431 110.031 124.45C109.712 124.494 109.424 124.565 109.171 124.664C108.919 124.763 108.719 124.901 108.573 125.079C108.427 125.254 108.353 125.479 108.353 125.756C108.353 126.152 108.498 126.451 108.787 126.652C109.075 126.854 109.443 126.955 109.889 126.955ZM119.678 128.51C118.963 128.51 118.323 128.326 117.757 127.958C117.191 127.59 116.745 127.056 116.417 126.356C116.089 125.655 115.925 124.805 115.925 123.803C115.925 122.79 116.091 121.936 116.423 121.239C116.759 120.539 117.211 120.011 117.781 119.655C118.35 119.294 118.985 119.114 119.684 119.114C120.218 119.114 120.656 119.205 121 119.387C121.344 119.565 121.617 119.781 121.818 120.034C122.02 120.284 122.176 120.519 122.287 120.741H122.376V116.194H124.528V128.35H122.417V126.914H122.287C122.176 127.135 122.016 127.371 121.806 127.62C121.597 127.865 121.32 128.075 120.976 128.249C120.632 128.423 120.2 128.51 119.678 128.51ZM120.277 126.747C120.731 126.747 121.118 126.625 121.439 126.379C121.759 126.13 122.002 125.784 122.169 125.341C122.334 124.897 122.417 124.381 122.417 123.792C122.417 123.202 122.334 122.69 122.169 122.254C122.006 121.819 121.765 121.481 121.445 121.239C121.128 120.998 120.739 120.877 120.277 120.877C119.799 120.877 119.399 121.002 119.079 121.251C118.759 121.5 118.518 121.845 118.356 122.284C118.194 122.723 118.113 123.226 118.113 123.792C118.113 124.361 118.194 124.87 118.356 125.317C118.522 125.76 118.765 126.11 119.085 126.367C119.409 126.621 119.806 126.747 120.277 126.747ZM132.29 131.769C131.997 131.769 131.727 131.745 131.478 131.698C131.233 131.654 131.037 131.603 130.891 131.543L131.389 129.869C131.701 129.96 131.98 130.004 132.225 130C132.47 129.996 132.685 129.919 132.872 129.769C133.061 129.622 133.221 129.377 133.352 129.033L133.535 128.54L130.233 119.233H132.51L134.609 126.118H134.704L136.808 119.233H139.091L135.444 129.454C135.275 129.937 135.049 130.35 134.769 130.694C134.488 131.043 134.145 131.308 133.737 131.49C133.334 131.676 132.851 131.769 132.29 131.769ZM144.239 128.528C143.349 128.528 142.579 128.332 141.927 127.94C141.275 127.549 140.769 127.001 140.409 126.296C140.053 125.592 139.875 124.769 139.875 123.827C139.875 122.885 140.053 122.06 140.409 121.352C140.769 120.644 141.275 120.094 141.927 119.702C142.579 119.31 143.349 119.114 144.239 119.114C145.128 119.114 145.899 119.31 146.551 119.702C147.203 120.094 147.708 120.644 148.063 121.352C148.423 122.06 148.603 122.885 148.603 123.827C148.603 124.769 148.423 125.592 148.063 126.296C147.708 127.001 147.203 127.549 146.551 127.94C145.899 128.332 145.128 128.528 144.239 128.528ZM144.251 126.807C144.733 126.807 145.136 126.674 145.46 126.409C145.784 126.14 146.025 125.78 146.183 125.329C146.345 124.878 146.426 124.375 146.426 123.821C146.426 123.263 146.345 122.759 146.183 122.308C146.025 121.853 145.784 121.491 145.46 121.221C145.136 120.952 144.733 120.818 144.251 120.818C143.756 120.818 143.346 120.952 143.018 121.221C142.693 121.491 142.45 121.853 142.288 122.308C142.13 122.759 142.051 123.263 142.051 123.821C142.051 124.375 142.13 124.878 142.288 125.329C142.45 125.78 142.693 126.14 143.018 126.409C143.346 126.674 143.756 126.807 144.251 126.807ZM156.228 124.516V119.233H158.375V128.35H156.294V126.73H156.199C155.994 127.24 155.656 127.658 155.185 127.982C154.719 128.306 154.144 128.469 153.46 128.469C152.863 128.469 152.335 128.336 151.877 128.071C151.422 127.802 151.067 127.412 150.81 126.902C150.553 126.387 150.424 125.766 150.424 125.038V119.233H152.57V124.706C152.57 125.283 152.729 125.742 153.044 126.083C153.361 126.423 153.776 126.593 154.29 126.593C154.606 126.593 154.913 126.516 155.209 126.362C155.505 126.207 155.748 125.978 155.938 125.673C156.132 125.364 156.228 124.979 156.228 124.516ZM160.582 128.35V119.233H162.663V120.753H162.758C162.924 120.226 163.208 119.821 163.611 119.536C164.019 119.247 164.483 119.103 165.005 119.103C165.123 119.103 165.256 119.108 165.402 119.12C165.552 119.128 165.677 119.142 165.776 119.162V121.138C165.685 121.107 165.541 121.079 165.343 121.055C165.149 121.028 164.961 121.014 164.78 121.014C164.389 121.014 164.036 121.099 163.724 121.269C163.416 121.435 163.173 121.667 162.995 121.963C162.818 122.26 162.728 122.602 162.728 122.99V128.35H160.582ZM171.343 128.35V119.233H173.425V120.753H173.519C173.685 120.226 173.97 119.821 174.373 119.536C174.78 119.247 175.244 119.103 175.766 119.103C175.885 119.103 176.017 119.108 176.163 119.12C176.314 119.128 176.438 119.142 176.537 119.162V121.138C176.446 121.107 176.302 121.079 176.104 121.055C175.911 121.028 175.723 121.014 175.541 121.014C175.149 121.014 174.798 121.099 174.486 121.269C174.177 121.435 173.934 121.667 173.756 121.963C173.578 122.26 173.49 122.602 173.49 122.99V128.35H171.343ZM181.62 128.528C180.706 128.528 179.918 128.338 179.254 127.958C178.594 127.574 178.086 127.032 177.73 126.332C177.375 125.628 177.196 124.799 177.196 123.845C177.196 122.907 177.375 122.084 177.73 121.376C178.09 120.664 178.592 120.11 179.236 119.714C179.88 119.314 180.637 119.114 181.507 119.114C182.068 119.114 182.598 119.205 183.096 119.387C183.598 119.565 184.041 119.842 184.424 120.218C184.811 120.594 185.116 121.073 185.337 121.655C185.558 122.232 185.669 122.921 185.669 123.72V124.379H178.205V122.931H183.612C183.607 122.519 183.519 122.153 183.345 121.833C183.171 121.508 182.928 121.253 182.616 121.067C182.308 120.881 181.948 120.788 181.536 120.788C181.098 120.788 180.712 120.895 180.38 121.109C180.049 121.318 179.79 121.595 179.604 121.94C179.422 122.28 179.329 122.654 179.325 123.061V124.326C179.325 124.856 179.422 125.311 179.615 125.691C179.809 126.067 180.08 126.356 180.428 126.557C180.776 126.755 181.183 126.854 181.649 126.854C181.961 126.854 182.244 126.811 182.497 126.724C182.75 126.633 182.97 126.5 183.155 126.326C183.341 126.152 183.481 125.936 183.577 125.679L185.58 125.905C185.454 126.435 185.213 126.898 184.857 127.293C184.505 127.685 184.054 127.99 183.505 128.207C182.955 128.421 182.327 128.528 181.62 128.528ZM194.683 121.643L192.726 121.857C192.671 121.659 192.574 121.473 192.435 121.299C192.301 121.125 192.119 120.984 191.89 120.877C191.661 120.77 191.38 120.717 191.048 120.717C190.601 120.717 190.226 120.814 189.922 121.008C189.621 121.202 189.473 121.453 189.477 121.762C189.473 122.027 189.57 122.242 189.767 122.409C189.969 122.575 190.301 122.711 190.763 122.818L192.317 123.15C193.178 123.336 193.819 123.631 194.238 124.035C194.661 124.438 194.875 124.967 194.878 125.62C194.875 126.193 194.706 126.7 194.375 127.139C194.047 127.574 193.59 127.915 193.005 128.16C192.42 128.405 191.748 128.528 190.989 128.528C189.874 128.528 188.977 128.295 188.297 127.828C187.617 127.357 187.212 126.702 187.082 125.863L189.175 125.661C189.269 126.073 189.471 126.383 189.779 126.593C190.088 126.803 190.489 126.908 190.983 126.908C191.493 126.908 191.902 126.803 192.21 126.593C192.522 126.383 192.678 126.124 192.678 125.816C192.678 125.554 192.578 125.339 192.376 125.169C192.178 124.998 191.87 124.868 191.451 124.777L189.898 124.45C189.024 124.268 188.378 123.962 187.959 123.53C187.54 123.095 187.332 122.545 187.336 121.88C187.332 121.318 187.485 120.832 187.793 120.42C188.105 120.005 188.539 119.684 189.091 119.459C189.649 119.229 190.291 119.114 191.019 119.114C192.086 119.114 192.925 119.342 193.538 119.797C194.155 120.252 194.537 120.867 194.683 121.643ZM202.452 124.516V119.233H204.599V128.35H202.518V126.73H202.423C202.218 127.24 201.88 127.658 201.409 127.982C200.943 128.306 200.368 128.469 199.684 128.469C199.087 128.469 198.56 128.336 198.1 128.071C197.646 127.802 197.291 127.412 197.034 126.902C196.776 126.387 196.648 125.766 196.648 125.038V119.233H198.794V124.706C198.794 125.283 198.953 125.742 199.268 126.083C199.585 126.423 200 126.593 200.514 126.593C200.83 126.593 201.137 126.516 201.433 126.362C201.729 126.207 201.972 125.978 202.162 125.673C202.355 125.364 202.452 124.979 202.452 124.516ZM206.806 128.35V119.233H208.858V120.782H208.964C209.154 120.26 209.468 119.852 209.907 119.56C210.345 119.263 210.87 119.114 211.478 119.114C212.094 119.114 212.614 119.265 213.038 119.565C213.464 119.862 213.765 120.268 213.938 120.782H214.033C214.235 120.276 214.575 119.872 215.054 119.571C215.535 119.267 216.106 119.114 216.767 119.114C217.605 119.114 218.288 119.379 218.818 119.91C219.348 120.44 219.612 121.214 219.612 122.231V128.35H217.46V122.563C217.46 121.997 217.31 121.584 217.01 121.322C216.709 121.057 216.342 120.925 215.907 120.925C215.389 120.925 214.984 121.087 214.691 121.411C214.403 121.732 214.259 122.149 214.259 122.664V128.35H212.153V122.474C212.153 122.003 212.012 121.627 211.727 121.346C211.446 121.065 211.079 120.925 210.624 120.925C210.316 120.925 210.036 121.004 209.783 121.162C209.53 121.316 209.328 121.536 209.177 121.821C209.027 122.102 208.952 122.43 208.952 122.806V128.35H206.806ZM225.822 128.528C224.908 128.528 224.12 128.338 223.456 127.958C222.796 127.574 222.288 127.032 221.932 126.332C221.577 125.628 221.399 124.799 221.399 123.845C221.399 122.907 221.577 122.084 221.932 121.376C222.292 120.664 222.794 120.11 223.438 119.714C224.083 119.314 224.839 119.114 225.709 119.114C226.27 119.114 226.8 119.205 227.298 119.387C227.8 119.565 228.243 119.842 228.626 120.218C229.013 120.594 229.318 121.073 229.539 121.655C229.76 122.232 229.871 122.921 229.871 123.72V124.379H222.407V122.931H227.814C227.81 122.519 227.721 122.153 227.547 121.833C227.373 121.508 227.13 121.253 226.818 121.067C226.51 120.881 226.15 120.788 225.739 120.788C225.3 120.788 224.914 120.895 224.583 121.109C224.251 121.318 223.992 121.595 223.806 121.94C223.624 122.28 223.531 122.654 223.527 123.061V124.326C223.527 124.856 223.624 125.311 223.817 125.691C224.011 126.067 224.282 126.356 224.63 126.557C224.978 126.755 225.385 126.854 225.852 126.854C226.164 126.854 226.446 126.811 226.699 126.724C226.952 126.633 227.172 126.5 227.357 126.326C227.543 126.152 227.683 125.936 227.778 125.679L229.782 125.905C229.656 126.435 229.415 126.898 229.059 127.293C228.707 127.685 228.257 127.99 227.708 128.207C227.157 128.421 226.53 128.528 225.822 128.528Z" fill="#31445A"/>
<path d="M34.1703 149.243C34.066 148.923 33.9284 148.637 33.7577 148.384C33.59 148.127 33.3893 147.908 33.1553 147.728C32.9245 147.548 32.662 147.41 32.3679 147.315C32.0738 147.22 31.7513 147.172 31.4003 147.172C30.8248 147.172 30.3014 147.321 29.8303 147.619C29.3592 147.916 28.9844 148.355 28.7062 148.934C28.4279 149.514 28.2888 150.224 28.2888 151.066C28.2888 151.908 28.4295 152.619 28.7109 153.198C28.9924 153.777 29.3734 154.216 29.8541 154.514C30.3347 154.811 30.8754 154.96 31.4762 154.96C32.0327 154.96 32.5228 154.841 32.9466 154.604C33.3735 154.363 33.7055 154.025 33.9427 153.588C34.183 153.147 34.3031 152.63 34.3031 152.035L34.6636 152.111H31.7418V151.066H35.4415V152.111C35.4415 152.912 35.2708 153.608 34.9292 154.2C34.5909 154.792 34.1229 155.251 33.5253 155.577C32.9308 155.9 32.2478 156.061 31.4762 156.061C30.6161 156.061 29.8603 155.859 29.2089 155.454C28.5607 155.048 28.0548 154.473 27.6911 153.726C27.3306 152.978 27.1504 152.092 27.1504 151.066C27.1504 150.297 27.2531 149.605 27.4587 148.991C27.6674 148.374 27.9615 147.848 28.341 147.415C28.7204 146.981 29.1694 146.649 29.688 146.417C30.2066 146.186 30.7774 146.071 31.4003 146.071C31.9126 146.071 32.39 146.148 32.8327 146.304C33.2786 146.455 33.6754 146.672 34.0233 146.954C34.3743 147.233 34.6668 147.567 34.9008 147.956C35.1348 148.342 35.296 148.771 35.3846 149.243H34.1703ZM40.359 156.081C39.6571 156.081 39.0515 155.925 38.5423 155.615C38.0365 155.302 37.6459 154.865 37.3708 154.305C37.0989 153.741 36.9629 153.085 36.9629 152.339C36.9629 151.592 37.0989 150.933 37.3708 150.363C37.6459 149.79 38.0285 149.344 38.5186 149.025C39.0119 148.701 39.5874 148.54 40.2452 148.54C40.6246 148.54 40.9993 148.603 41.3693 148.73C41.7393 148.857 42.0761 149.062 42.3796 149.347C42.6832 149.629 42.9251 150.002 43.1053 150.468C43.2855 150.933 43.3757 151.506 43.3757 152.187V152.662H37.7597V151.693H42.2373C42.2373 151.281 42.1551 150.914 41.9907 150.592C41.8294 150.268 41.5986 150.013 41.2982 149.827C41.0009 149.64 40.6499 149.547 40.2452 149.547C39.7993 149.547 39.4135 149.657 39.0878 149.879C38.7653 150.098 38.5171 150.383 38.3432 150.734C38.1693 151.086 38.0823 151.462 38.0823 151.864V152.51C38.0823 153.06 38.1771 153.527 38.3669 153.91C38.5598 154.29 38.8269 154.58 39.1684 154.779C39.51 154.976 39.9068 155.074 40.359 155.074C40.6531 155.074 40.9187 155.033 41.1559 154.951C41.3962 154.865 41.6033 154.738 41.7772 154.57C41.9512 154.399 42.0855 154.188 42.1804 153.934L43.2618 154.238C43.148 154.606 42.9567 154.928 42.6879 155.206C42.4192 155.482 42.0871 155.697 41.6919 155.852C41.2966 156.005 40.8523 156.081 40.359 156.081ZM48.2467 148.635V149.585H44.4718V148.635H48.2467ZM45.572 146.888H46.6915V153.839C46.6915 154.156 46.7374 154.393 46.8284 154.551C46.9236 154.707 47.0438 154.811 47.1891 154.865C47.3376 154.916 47.4946 154.941 47.659 154.941C47.7818 154.941 47.8836 154.935 47.9621 154.921C48.0414 154.906 48.1048 154.893 48.1524 154.884L48.3795 155.891C48.3035 155.919 48.1983 155.948 48.0623 155.976C47.9262 156.008 47.7534 156.024 47.5447 156.024C47.2291 156.024 46.9186 155.955 46.6155 155.819C46.315 155.683 46.0654 155.476 45.8659 155.197C45.6697 154.919 45.572 154.567 45.572 154.143V146.888ZM54.4084 158.664C54.2189 158.664 54.0495 158.648 53.9009 158.616C53.7523 158.588 53.6496 158.559 53.5928 158.531L53.8775 157.543C54.1488 157.612 54.3892 157.638 54.5979 157.619C54.8066 157.6 54.9919 157.506 55.1531 157.339C55.3175 157.175 55.4678 156.906 55.6039 156.536L55.8126 155.966L53.1178 148.635H54.3325L56.3435 154.447H56.4195L58.4305 148.635H59.6451L56.5522 156.992C56.4128 157.368 56.2408 157.681 56.0354 157.927C55.8301 158.177 55.5913 158.363 55.3192 158.483C55.0504 158.604 54.7465 158.664 54.4084 158.664ZM63.8208 156.081C63.1638 156.081 62.5861 155.923 62.0903 155.61C61.5969 155.297 61.2112 154.859 60.9324 154.295C60.6577 153.731 60.52 153.073 60.52 152.32C60.52 151.56 60.6577 150.897 60.9324 150.33C61.2112 149.763 61.5969 149.324 62.0903 149.01C62.5861 148.697 63.1638 148.54 63.8208 148.54C64.4786 148.54 65.0546 148.697 65.548 149.01C66.0439 149.324 66.4296 149.763 66.705 150.33C66.983 150.897 67.1224 151.56 67.1224 152.32C67.1224 153.073 66.983 153.731 66.705 154.295C66.4296 154.859 66.0439 155.297 65.548 155.61C65.0546 155.923 64.4786 156.081 63.8208 156.081ZM63.8208 155.074C64.3209 155.074 64.7316 154.946 65.0546 154.689C65.3769 154.433 65.6156 154.096 65.7709 153.678C65.9253 153.26 66.003 152.807 66.003 152.32C66.003 151.832 65.9253 151.378 65.7709 150.957C65.6156 150.536 65.3769 150.195 65.0546 149.936C64.7316 149.676 64.3209 149.547 63.8208 149.547C63.3216 149.547 62.9109 149.676 62.5878 149.936C62.2656 150.195 62.0268 150.536 61.8715 150.957C61.7171 151.378 61.6395 151.832 61.6395 152.32C61.6395 152.807 61.7171 153.26 61.8715 153.678C62.0268 154.096 62.2656 154.433 62.5878 154.689C62.9109 154.946 63.3216 155.074 63.8208 155.074ZM73.4227 152.947V148.635H74.5422V155.928H73.4227V154.694H73.3467C73.1756 155.064 72.9101 155.379 72.5495 155.638C72.1897 155.895 71.7339 156.024 71.1838 156.024C70.7288 156.024 70.3239 155.923 69.97 155.725C69.6152 155.521 69.3372 155.218 69.1352 154.813C68.9323 154.404 68.8313 153.89 68.8313 153.269V148.635H69.9508V153.193C69.9508 153.726 70.0993 154.149 70.3965 154.466C70.6971 154.783 71.0794 154.941 71.5444 154.941C71.8224 154.941 72.1054 154.87 72.3934 154.727C72.6839 154.585 72.9277 154.367 73.1238 154.072C73.3234 153.777 73.4227 153.402 73.4227 152.947ZM76.5924 155.928V148.635H77.6735V149.737H77.7495C77.8822 149.376 78.1226 149.083 78.4707 148.858C78.818 148.634 79.2104 148.521 79.647 148.521C79.7288 148.521 79.8315 148.522 79.955 148.526C80.0786 148.529 80.1721 148.534 80.2347 148.54V149.68C80.1971 149.67 80.1103 149.656 79.9742 149.637C79.8415 149.615 79.7004 149.604 79.5518 149.604C79.1979 149.604 78.8815 149.678 78.6035 149.827C78.328 149.972 78.1101 150.175 77.949 150.434C77.7904 150.691 77.7119 150.984 77.7119 151.313V155.928H76.5924ZM85.3186 155.928V148.635H86.3997V149.737H86.4757C86.6084 149.376 86.8488 149.083 87.1969 148.858C87.545 148.634 87.9366 148.521 88.3732 148.521C88.455 148.521 88.5585 148.522 88.6812 148.526C88.8048 148.529 88.8983 148.534 88.9617 148.54V149.68C88.9233 149.67 88.8365 149.656 88.7004 149.637C88.5677 149.615 88.4266 149.604 88.278 149.604C87.924 149.604 87.6076 149.678 87.3297 149.827C87.0542 149.972 86.8363 150.175 86.6752 150.434C86.5174 150.691 86.4381 150.984 86.4381 151.313V155.928H85.3186ZM93.1207 156.081C92.4195 156.081 91.8134 155.925 91.3041 155.615C90.7983 155.302 90.4076 154.865 90.1329 154.305C89.8608 153.741 89.7247 153.085 89.7247 152.339C89.7247 151.592 89.8608 150.933 90.1329 150.363C90.4076 149.79 90.7907 149.344 91.2808 149.025C91.7741 148.701 92.3493 148.54 93.0071 148.54C93.387 148.54 93.7618 148.603 94.1316 148.73C94.5014 148.857 94.8379 149.062 95.1417 149.347C95.4456 149.629 95.6869 150.002 95.8672 150.468C96.0475 150.933 96.1377 151.506 96.1377 152.187V152.662H90.5219V151.693H94.999C94.999 151.281 94.9172 150.914 94.7527 150.592C94.5916 150.268 94.3604 150.013 94.0598 149.827C93.7626 149.64 93.412 149.547 93.0071 149.547C92.5614 149.547 92.1757 149.657 91.8501 149.879C91.527 150.098 91.2791 150.383 91.1055 150.734C90.931 151.086 90.8442 151.462 90.8442 151.864V152.51C90.8442 153.06 90.9393 153.527 91.1288 153.91C91.3217 154.29 91.5888 154.58 91.9303 154.779C92.2717 154.976 92.6691 155.074 93.1207 155.074C93.4154 155.074 93.6808 155.033 93.9179 154.951C94.1583 154.865 94.3654 154.738 94.539 154.57C94.7135 154.399 94.8479 154.188 94.9422 153.934L96.0241 154.238C95.9098 154.606 95.7186 154.928 95.4498 155.206C95.181 155.482 94.8496 155.697 94.4539 155.852C94.059 156.005 93.6141 156.081 93.1207 156.081ZM103.001 150.268L101.995 150.553C101.932 150.385 101.839 150.222 101.716 150.064C101.596 149.903 101.431 149.77 101.222 149.666C101.014 149.561 100.747 149.509 100.421 149.509C99.9752 149.509 99.6037 149.611 99.3066 149.818C99.0119 150.02 98.865 150.278 98.865 150.592C98.865 150.87 98.966 151.09 99.1688 151.251C99.3708 151.413 99.6872 151.548 100.117 151.655L101.199 151.921C101.85 152.079 102.335 152.322 102.655 152.647C102.975 152.97 103.134 153.386 103.134 153.896C103.134 154.314 103.014 154.687 102.773 155.017C102.536 155.346 102.204 155.606 101.778 155.796C101.35 155.985 100.854 156.081 100.288 156.081C99.5453 156.081 98.9301 155.919 98.4426 155.596C97.9559 155.273 97.6478 154.802 97.5184 154.181L98.5803 153.915C98.6813 154.308 98.8733 154.602 99.1546 154.799C99.4393 154.995 99.8108 155.093 100.269 155.093C100.791 155.093 101.205 154.982 101.512 154.76C101.822 154.535 101.976 154.266 101.976 153.953C101.976 153.7 101.888 153.488 101.711 153.317C101.534 153.143 101.262 153.013 100.895 152.927L99.6806 152.642C99.0136 152.484 98.5235 152.239 98.2105 151.907C97.9008 151.571 97.7455 151.152 97.7455 150.648C97.7455 150.236 97.8615 149.873 98.0919 149.556C98.3257 149.239 98.6437 148.991 99.0453 148.811C99.4502 148.63 99.9085 148.54 100.421 148.54C101.141 148.54 101.707 148.698 102.119 149.015C102.533 149.331 102.827 149.749 103.001 150.268ZM109.41 152.947V148.635H110.53V155.928H109.41V154.694H109.334C109.164 155.064 108.898 155.379 108.538 155.638C108.177 155.895 107.722 156.024 107.171 156.024C106.716 156.024 106.311 155.923 105.957 155.725C105.603 155.521 105.325 155.218 105.123 154.813C104.92 154.404 104.819 153.89 104.819 153.269V148.635H105.938V153.193C105.938 153.726 106.087 154.149 106.384 154.466C106.685 154.783 107.067 154.941 107.532 154.941C107.811 154.941 108.094 154.87 108.381 154.727C108.672 154.585 108.915 154.367 109.111 154.072C109.311 153.777 109.41 153.402 109.41 152.947ZM112.58 155.928V148.635H113.662V149.774H113.756C113.908 149.385 114.154 149.083 114.492 148.868C114.83 148.649 115.236 148.54 115.71 148.54C116.191 148.54 116.591 148.649 116.911 148.868C117.233 149.083 117.484 149.385 117.665 149.774H117.741C117.927 149.398 118.207 149.099 118.58 148.877C118.954 148.653 119.401 148.54 119.923 148.54C120.574 148.54 121.107 148.744 121.521 149.153C121.936 149.558 122.143 150.19 122.143 151.047V155.928H121.023V151.047C121.023 150.509 120.876 150.124 120.581 149.893C120.288 149.662 119.941 149.547 119.543 149.547C119.03 149.547 118.634 149.702 118.353 150.012C118.071 150.319 117.93 150.709 117.93 151.18V155.928H116.792V150.933C116.792 150.519 116.658 150.185 116.389 149.931C116.12 149.675 115.774 149.547 115.35 149.547C115.059 149.547 114.787 149.624 114.534 149.779C114.285 149.935 114.082 150.15 113.927 150.425C113.775 150.698 113.699 151.012 113.699 151.37V155.928H112.58ZM127.243 156.081C126.542 156.081 125.936 155.925 125.427 155.615C124.921 155.302 124.53 154.865 124.255 154.305C123.983 153.741 123.847 153.085 123.847 152.339C123.847 151.592 123.983 150.933 124.255 150.363C124.53 149.79 124.913 149.344 125.403 149.025C125.897 148.701 126.472 148.54 127.13 148.54C127.51 148.54 127.884 148.603 128.254 148.73C128.624 148.857 128.96 149.062 129.264 149.347C129.568 149.629 129.809 150.002 129.99 150.468C130.17 150.933 130.26 151.506 130.26 152.187V152.662H124.644V151.693H129.122C129.122 151.281 129.04 150.914 128.875 150.592C128.714 150.268 128.483 150.013 128.182 149.827C127.885 149.64 127.535 149.547 127.13 149.547C126.684 149.547 126.298 149.657 125.973 149.879C125.65 150.098 125.402 150.383 125.228 150.734C125.054 151.086 124.967 151.462 124.967 151.864V152.51C124.967 153.06 125.062 153.527 125.251 153.91C125.444 154.29 125.711 154.58 126.053 154.779C126.394 154.976 126.792 155.074 127.243 155.074C127.538 155.074 127.803 155.033 128.04 154.951C128.281 154.865 128.488 154.738 128.662 154.57C128.836 154.399 128.97 154.188 129.065 153.934L130.147 154.238C130.032 154.606 129.841 154.928 129.572 155.206C129.303 155.482 128.972 155.697 128.576 155.852C128.182 156.005 127.737 156.081 127.243 156.081ZM135.72 155.928V148.635H136.801V149.737H136.877C137.01 149.376 137.25 149.083 137.598 148.858C137.946 148.634 138.338 148.521 138.774 148.521C138.856 148.521 138.96 148.522 139.082 148.526C139.206 148.529 139.299 148.534 139.363 148.54V149.68C139.324 149.67 139.238 149.656 139.102 149.637C138.969 149.615 138.828 149.604 138.679 149.604C138.325 149.604 138.009 149.678 137.731 149.827C137.455 149.972 137.237 150.175 137.076 150.434C136.919 150.691 136.839 150.984 136.839 151.313V155.928H135.72ZM143.522 156.081C142.821 156.081 142.215 155.925 141.705 155.615C141.199 155.302 140.809 154.865 140.534 154.305C140.262 153.741 140.126 153.085 140.126 152.339C140.126 151.592 140.262 150.933 140.534 150.363C140.809 149.79 141.192 149.344 141.682 149.025C142.175 148.701 142.75 148.54 143.408 148.54C143.788 148.54 144.163 148.603 144.533 148.73C144.903 148.857 145.239 149.062 145.543 149.347C145.847 149.629 146.088 150.002 146.268 150.468C146.449 150.933 146.539 151.506 146.539 152.187V152.662H140.923V151.693H145.4C145.4 151.281 145.318 150.914 145.154 150.592C144.993 150.268 144.762 150.013 144.461 149.827C144.164 149.64 143.813 149.547 143.408 149.547C142.963 149.547 142.577 149.657 142.251 149.879C141.928 150.098 141.68 150.383 141.507 150.734C141.332 151.086 141.245 151.462 141.245 151.864V152.51C141.245 153.06 141.341 153.527 141.53 153.91C141.723 154.29 141.99 154.58 142.331 154.779C142.673 154.976 143.07 155.074 143.522 155.074C143.817 155.074 144.082 155.033 144.319 154.951C144.56 154.865 144.767 154.738 144.94 154.57C145.115 154.399 145.249 154.188 145.343 153.934L146.425 154.238C146.311 154.606 146.12 154.928 145.851 155.206C145.582 155.482 145.251 155.697 144.855 155.852C144.46 156.005 144.015 156.081 143.522 156.081ZM153.978 148.635L151.283 155.928H150.145L147.45 148.635H148.665L150.676 154.447H150.752L152.763 148.635H153.978ZM155.455 155.928V148.635H156.574V155.928H155.455ZM156.024 147.419C155.806 147.419 155.618 147.345 155.46 147.196C155.305 147.047 155.227 146.869 155.227 146.66C155.227 146.451 155.305 146.272 155.46 146.123C155.618 145.974 155.806 145.9 156.024 145.9C156.243 145.9 156.429 145.974 156.584 146.123C156.742 146.272 156.821 146.451 156.821 146.66C156.821 146.869 156.742 147.047 156.584 147.196C156.429 147.345 156.243 147.419 156.024 147.419ZM161.679 156.081C160.978 156.081 160.371 155.925 159.862 155.615C159.356 155.302 158.966 154.865 158.691 154.305C158.419 153.741 158.283 153.085 158.283 152.339C158.283 151.592 158.419 150.933 158.691 150.363C158.966 149.79 159.349 149.344 159.839 149.025C160.332 148.701 160.907 148.54 161.565 148.54C161.945 148.54 162.32 148.603 162.69 148.73C163.06 148.857 163.396 149.062 163.7 149.347C164.004 149.629 164.245 150.002 164.425 150.468C164.606 150.933 164.696 151.506 164.696 152.187V152.662H159.08V151.693H163.557C163.557 151.281 163.475 150.914 163.311 150.592C163.15 150.268 162.918 150.013 162.618 149.827C162.321 149.64 161.97 149.547 161.565 149.547C161.119 149.547 160.734 149.657 160.408 149.879C160.085 150.098 159.837 150.383 159.664 150.734C159.489 151.086 159.402 151.462 159.402 151.864V152.51C159.402 153.06 159.497 153.527 159.687 153.91C159.88 154.29 160.147 154.58 160.488 154.779C160.83 154.976 161.227 155.074 161.679 155.074C161.973 155.074 162.239 155.033 162.476 154.951C162.716 154.865 162.923 154.738 163.097 154.57C163.272 154.399 163.406 154.188 163.5 153.934L164.582 154.238C164.468 154.606 164.277 154.928 164.008 155.206C163.739 155.482 163.408 155.697 163.012 155.852C162.617 156.005 162.172 156.081 161.679 156.081ZM168.049 155.928L165.829 148.635H167.006L168.581 154.219H168.656L170.212 148.635H171.408L172.944 154.2H173.02L174.595 148.635H175.771L173.551 155.928H172.451L170.857 150.325H170.743L169.149 155.928H168.049ZM180.058 156.081C179.356 156.081 178.75 155.925 178.241 155.615C177.735 155.302 177.345 154.865 177.07 154.305C176.798 153.741 176.662 153.085 176.662 152.339C176.662 151.592 176.798 150.933 177.07 150.363C177.345 149.79 177.727 149.344 178.218 149.025C178.71 148.701 179.286 148.54 179.944 148.54C180.323 148.54 180.698 148.603 181.068 148.73C181.439 148.857 181.775 149.062 182.079 149.347C182.382 149.629 182.624 150.002 182.804 150.468C182.985 150.933 183.075 151.506 183.075 152.187V152.662H177.458V151.693H181.936C181.936 151.281 181.854 150.914 181.69 150.592C181.528 150.268 181.297 150.013 180.997 149.827C180.7 149.64 180.349 149.547 179.944 149.547C179.498 149.547 179.113 149.657 178.786 149.879C178.464 150.098 178.216 150.383 178.042 150.734C177.868 151.086 177.781 151.462 177.781 151.864V152.51C177.781 153.06 177.876 153.527 178.066 153.91C178.259 154.29 178.526 154.58 178.867 154.779C179.209 154.976 179.605 155.074 180.058 155.074C180.352 155.074 180.618 155.033 180.855 154.951C181.095 154.865 181.302 154.738 181.476 154.57C181.65 154.399 181.784 154.188 181.879 153.934L182.96 154.238C182.847 154.606 182.656 154.928 182.387 155.206C182.118 155.482 181.786 155.697 181.391 155.852C180.995 156.005 180.551 156.081 180.058 156.081ZM187.528 156.081C186.922 156.081 186.386 155.927 185.921 155.62C185.456 155.309 185.092 154.873 184.83 154.309C184.567 153.742 184.435 153.073 184.435 152.301C184.435 151.534 184.567 150.87 184.83 150.307C185.092 149.743 185.457 149.308 185.926 149C186.393 148.694 186.934 148.54 187.548 148.54C188.022 148.54 188.397 148.619 188.671 148.777C188.95 148.933 189.161 149.11 189.307 149.31C189.456 149.505 189.571 149.667 189.653 149.793H189.748V146.204H190.868V155.928H189.787V154.808H189.653C189.571 154.941 189.454 155.109 189.302 155.311C189.15 155.511 188.934 155.689 188.653 155.847C188.371 156.003 187.997 156.081 187.528 156.081ZM187.68 155.074C188.129 155.074 188.508 154.957 188.818 154.723C189.129 154.485 189.364 154.158 189.525 153.74C189.686 153.319 189.767 152.832 189.767 152.281C189.767 151.737 189.688 151.261 189.53 150.852C189.372 150.441 189.138 150.121 188.828 149.893C188.518 149.662 188.135 149.547 187.68 149.547C187.206 149.547 186.81 149.668 186.494 149.912C186.181 150.153 185.946 150.48 185.788 150.895C185.633 151.307 185.555 151.769 185.555 152.281C185.555 152.801 185.634 153.273 185.792 153.697C185.954 154.117 186.191 154.453 186.504 154.703C186.82 154.951 187.212 155.074 187.68 155.074ZM196.83 155.928V148.635H197.949V155.928H196.83ZM197.399 147.419C197.18 147.419 196.993 147.345 196.835 147.196C196.68 147.047 196.602 146.869 196.602 146.66C196.602 146.451 196.68 146.272 196.835 146.123C196.993 145.974 197.18 145.9 197.399 145.9C197.617 145.9 197.804 145.974 197.958 146.123C198.117 146.272 198.196 146.451 198.196 146.66C198.196 146.869 198.117 147.047 197.958 147.196C197.804 147.345 197.617 147.419 197.399 147.419ZM201.119 151.541V155.928H200V148.635H201.081V149.774H201.176C201.347 149.404 201.606 149.107 201.954 148.882C202.301 148.654 202.75 148.54 203.3 148.54C203.794 148.54 204.225 148.641 204.596 148.844C204.966 149.043 205.253 149.347 205.459 149.756C205.664 150.16 205.767 150.674 205.767 151.294V155.928H204.648V151.37C204.648 150.797 204.499 150.351 204.202 150.031C203.905 149.708 203.497 149.547 202.978 149.547C202.621 149.547 202.301 149.624 202.02 149.779C201.742 149.935 201.522 150.16 201.361 150.459C201.199 150.756 201.119 151.116 201.119 151.541ZM213.713 156.1C213.251 156.1 212.833 156.012 212.456 155.838C212.08 155.661 211.781 155.406 211.56 155.074C211.339 154.738 211.228 154.333 211.228 153.858C211.228 153.441 211.31 153.101 211.475 152.842C211.639 152.579 211.859 152.373 212.133 152.225C212.409 152.076 212.713 151.966 213.044 151.892C213.38 151.817 213.716 151.757 214.055 151.712C214.498 151.655 214.856 151.612 215.131 151.584C215.41 151.552 215.612 151.5 215.739 151.427C215.868 151.355 215.933 151.228 215.933 151.047V151.009C215.933 150.541 215.805 150.176 215.549 149.917C215.296 149.657 214.912 149.528 214.397 149.528C213.861 149.528 213.443 149.645 213.139 149.879C212.835 150.114 212.623 150.363 212.499 150.629L211.436 150.25C211.626 149.806 211.879 149.461 212.195 149.214C212.515 148.964 212.863 148.79 213.239 148.692C213.618 148.591 213.992 148.54 214.358 148.54C214.592 148.54 214.861 148.568 215.165 148.625C215.472 148.679 215.767 148.791 216.052 148.963C216.339 149.133 216.578 149.392 216.768 149.737C216.958 150.082 217.052 150.544 217.052 151.123V155.928H215.933V154.941H215.876C215.8 155.099 215.674 155.268 215.497 155.449C215.32 155.629 215.084 155.783 214.79 155.909C214.496 156.036 214.137 156.1 213.713 156.1ZM213.884 155.093C214.326 155.093 214.7 155.006 215.003 154.832C215.31 154.657 215.541 154.433 215.695 154.158C215.854 153.882 215.933 153.593 215.933 153.288V152.263C215.886 152.32 215.781 152.372 215.62 152.419C215.462 152.464 215.278 152.504 215.069 152.538C214.864 152.57 214.664 152.598 214.467 152.623C214.275 152.646 214.118 152.665 213.997 152.681C213.707 152.718 213.435 152.78 213.182 152.866C212.932 152.948 212.729 153.073 212.575 153.241C212.423 153.405 212.347 153.63 212.347 153.915C212.347 154.305 212.491 154.599 212.779 154.799C213.07 154.995 213.438 155.093 213.884 155.093ZM220.215 151.541V155.928H219.096V148.635H220.177V149.774H220.272C220.443 149.404 220.702 149.107 221.05 148.882C221.397 148.654 221.846 148.54 222.396 148.54C222.89 148.54 223.321 148.641 223.692 148.844C224.062 149.043 224.349 149.347 224.555 149.756C224.761 150.16 224.863 150.674 224.863 151.294V155.928H223.744V151.37C223.744 150.797 223.595 150.351 223.298 150.031C223.001 149.708 222.593 149.547 222.074 149.547C221.717 149.547 221.397 149.624 221.116 149.779C220.838 149.935 220.618 150.16 220.457 150.459C220.295 150.756 220.215 151.116 220.215 151.541ZM230.665 155.928V148.635H231.785V155.928H230.665ZM231.234 147.419C231.017 147.419 230.828 147.345 230.67 147.196C230.515 147.047 230.438 146.869 230.438 146.66C230.438 146.451 230.515 146.272 230.67 146.123C230.828 145.974 231.017 145.9 231.234 145.9C231.452 145.9 231.639 145.974 231.795 146.123C231.952 146.272 232.032 146.451 232.032 146.66C232.032 146.869 231.952 147.047 231.795 147.196C231.639 147.345 231.452 147.419 231.234 147.419ZM234.954 151.541V155.928H233.835V148.635H234.917V149.774H235.011C235.182 149.404 235.441 149.107 235.789 148.882C236.137 148.654 236.586 148.54 237.137 148.54C237.63 148.54 238.061 148.641 238.431 148.844C238.801 149.043 239.089 149.347 239.294 149.756C239.5 150.16 239.603 150.674 239.603 151.294V155.928H238.483V151.37C238.483 150.797 238.334 150.351 238.037 150.031C237.74 149.708 237.333 149.547 236.813 149.547C236.456 149.547 236.137 149.624 235.856 149.779C235.577 149.935 235.358 150.16 235.196 150.459C235.035 150.756 234.954 151.116 234.954 151.541ZM246.809 150.268L245.803 150.553C245.74 150.385 245.646 150.222 245.524 150.064C245.404 149.903 245.239 149.77 245.03 149.666C244.822 149.561 244.555 149.509 244.228 149.509C243.782 149.509 243.411 149.611 243.114 149.818C242.82 150.02 242.673 150.278 242.673 150.592C242.673 150.87 242.774 151.09 242.976 151.251C243.179 151.413 243.495 151.548 243.925 151.655L245.006 151.921C245.658 152.079 246.143 152.322 246.463 152.647C246.782 152.97 246.941 153.386 246.941 153.896C246.941 154.314 246.821 154.687 246.581 155.017C246.344 155.346 246.012 155.606 245.585 155.796C245.158 155.985 244.661 156.081 244.095 156.081C243.352 156.081 242.737 155.919 242.251 155.596C241.764 155.273 241.455 154.802 241.326 154.181L242.388 153.915C242.489 154.308 242.68 154.602 242.962 154.799C243.246 154.995 243.618 155.093 244.077 155.093C244.599 155.093 245.013 154.982 245.319 154.76C245.629 154.535 245.784 154.266 245.784 153.953C245.784 153.7 245.696 153.488 245.519 153.317C245.342 153.143 245.07 153.013 244.703 152.927L243.489 152.642C242.822 152.484 242.331 152.239 242.018 151.907C241.708 151.571 241.553 151.152 241.553 150.648C241.553 150.236 241.669 149.873 241.9 149.556C242.134 149.239 242.452 148.991 242.853 148.811C243.258 148.63 243.716 148.54 244.228 148.54C244.949 148.54 245.515 148.698 245.927 149.015C246.341 149.331 246.635 149.749 246.809 150.268ZM251.795 148.635V149.585H248.02V148.635H251.795ZM249.12 146.888H250.24V153.839C250.24 154.156 250.285 154.393 250.376 154.551C250.472 154.707 250.592 154.811 250.737 154.865C250.886 154.916 251.043 154.941 251.207 154.941C251.331 154.941 251.432 154.935 251.51 154.921C251.589 154.906 251.653 154.893 251.7 154.884L251.928 155.891C251.852 155.919 251.746 155.948 251.61 155.976C251.474 156.008 251.301 156.024 251.093 156.024C250.777 156.024 250.467 155.955 250.164 155.819C249.863 155.683 249.613 155.476 249.414 155.197C249.218 154.919 249.12 154.567 249.12 154.143V146.888ZM255.623 156.1C255.162 156.1 254.742 156.012 254.366 155.838C253.99 155.661 253.691 155.406 253.469 155.074C253.248 154.738 253.137 154.333 253.137 153.858C253.137 153.441 253.22 153.101 253.384 152.842C253.549 152.579 253.768 152.373 254.044 152.225C254.318 152.076 254.622 151.966 254.954 151.892C255.289 151.817 255.626 151.757 255.965 151.712C256.407 151.655 256.766 151.612 257.041 151.584C257.32 151.552 257.522 151.5 257.648 151.427C257.778 151.355 257.843 151.228 257.843 151.047V151.009C257.843 150.541 257.714 150.176 257.458 149.917C257.205 149.657 256.821 149.528 256.306 149.528C255.772 149.528 255.353 149.645 255.049 149.879C254.745 150.114 254.532 150.363 254.409 150.629L253.346 150.25C253.536 149.806 253.789 149.461 254.105 149.214C254.424 148.964 254.773 148.79 255.148 148.692C255.528 148.591 255.901 148.54 256.268 148.54C256.502 148.54 256.771 148.568 257.074 148.625C257.381 148.679 257.677 148.791 257.961 148.963C258.249 149.133 258.487 149.392 258.678 149.737C258.867 150.082 258.962 150.544 258.962 151.123V155.928H257.843V154.941H257.785C257.71 155.099 257.583 155.268 257.406 155.449C257.229 155.629 256.994 155.783 256.699 155.909C256.405 156.036 256.046 156.1 255.623 156.1ZM255.794 155.093C256.236 155.093 256.609 155.006 256.913 154.832C257.219 154.657 257.451 154.433 257.606 154.158C257.764 153.882 257.843 153.593 257.843 153.288V152.263C257.795 152.32 257.691 152.372 257.53 152.419C257.371 152.464 257.188 152.504 256.98 152.538C256.774 152.57 256.573 152.598 256.377 152.623C256.184 152.646 256.027 152.665 255.907 152.681C255.617 152.718 255.344 152.78 255.091 152.866C254.842 152.948 254.64 153.073 254.485 153.241C254.333 153.405 254.257 153.63 254.257 153.915C254.257 154.305 254.401 154.599 254.688 154.799C254.98 154.995 255.348 155.093 255.794 155.093ZM262.125 151.541V155.928H261.005V148.635H262.086V149.774H262.181C262.353 149.404 262.611 149.107 262.959 148.882C263.308 148.654 263.756 148.54 264.307 148.54C264.799 148.54 265.232 148.641 265.602 148.844C265.971 149.043 266.259 149.347 266.465 149.756C266.67 150.16 266.773 150.674 266.773 151.294V155.928H265.653V151.37C265.653 150.797 265.505 150.351 265.208 150.031C264.91 149.708 264.502 149.547 263.984 149.547C263.626 149.547 263.308 149.624 263.025 149.779C262.747 149.935 262.528 150.16 262.367 150.459C262.206 150.756 262.125 151.116 262.125 151.541ZM271.987 148.635V149.585H268.211V148.635H271.987ZM269.311 146.888H270.431V153.839C270.431 154.156 270.477 154.393 270.569 154.551C270.664 154.707 270.784 154.811 270.929 154.865C271.078 154.916 271.234 154.941 271.398 154.941C271.522 154.941 271.623 154.935 271.702 154.921C271.782 154.906 271.844 154.893 271.892 154.884L272.12 155.891C272.044 155.919 271.938 155.948 271.802 155.976C271.666 156.008 271.494 156.024 271.285 156.024C270.969 156.024 270.659 155.955 270.355 155.819C270.054 155.683 269.805 155.476 269.606 155.197C269.41 154.919 269.311 154.567 269.311 154.143V146.888Z" fill="#172B4D"/>
</g>
</g>
<defs>
<filter id="filter0_dd_2170_22194" x="-48" y="60" width="395" height="250" filterUnits="userSpaceOnUse" color-interpolation-filters="sRGB">
<feFlood flood-opacity="0" result="BackgroundImageFix"/>
<feColorMatrix in="SourceAlpha" type="matrix" values="0 0 0 0 0 0 0 0 0 0 0 0 0 0 0 0 0 0 127 0" result="hardAlpha"/>
<feOffset dy="4"/>
<feGaussianBlur stdDeviation="4"/>
<feColorMatrix type="matrix" values="0 0 0 0 0 0 0 0 0 0 0 0 0 0 0 0 0 0 0.08 0"/>
<feBlend mode="normal" in2="BackgroundImageFix" result="effect1_dropShadow_2170_22194"/>
<feColorMatrix in="SourceAlpha" type="matrix" values="0 0 0 0 0 0 0 0 0 0 0 0 0 0 0 0 0 0 127 0" result="hardAlpha"/>
<feOffset/>
<feGaussianBlur stdDeviation="1"/>
<feColorMatrix type="matrix" values="0 0 0 0 0 0 0 0 0 0 0 0 0 0 0 0 0 0 0.16 0"/>
<feBlend mode="normal" in2="effect1_dropShadow_2170_22194" result="effect2_dropShadow_2170_22194"/>
<feBlend mode="normal" in="SourceGraphic" in2="effect2_dropShadow_2170_22194" result="shape"/>
</filter>
<clipPath id="clip0_2170_22194">
<rect width="363" height="363" rx="4" fill="white"/>
</clipPath>
<clipPath id="clip1_2170_22194">
<rect width="379" height="234" fill="white" transform="translate(-40 64)"/>
</clipPath>
</defs>
</svg>
