<?xml version="1.0" encoding="UTF-8"?><svg id="a" xmlns="http://www.w3.org/2000/svg" xmlns:xlink="http://www.w3.org/1999/xlink" viewBox="0 0 1500 350"><defs><linearGradient id="b" x1="380.04" y1="398.11" x2="1522.69" y2="-291.13" gradientUnits="userSpaceOnUse"><stop offset=".02" stop-color="#224999"/><stop offset=".23" stop-color="#224a99"/><stop offset=".36" stop-color="#1f4e99"/><stop offset=".48" stop-color="#1b5599"/><stop offset=".58" stop-color="#135f97"/><stop offset=".68" stop-color="#096b92"/><stop offset=".77" stop-color="#00798a"/><stop offset=".85" stop-color="#03887b"/><stop offset=".93" stop-color="#169862"/><stop offset="1" stop-color="#25a844"/></linearGradient><linearGradient id="c" x1="-114.08" y1="-892.95" x2="817.96" y2="-892.95" gradientTransform="translate(0 -718) scale(1 -1)" gradientUnits="userSpaceOnUse"><stop offset="0" stop-color="#dff2fd" stop-opacity=".2"/><stop offset=".7" stop-color="#dff2fd" stop-opacity=".2"/><stop offset=".93" stop-color="#dff2fd" stop-opacity="0"/></linearGradient><linearGradient id="d" x1="-126.38" y1="-892.95" x2="805.66" y2="-892.95" gradientTransform="translate(0 -718) scale(1 -1)" gradientUnits="userSpaceOnUse"><stop offset="0" stop-color="#dff2fd" stop-opacity=".2"/><stop offset=".7" stop-color="#dff2fd" stop-opacity=".2"/><stop offset=".93" stop-color="#dff2fd" stop-opacity="0"/></linearGradient><linearGradient id="e" x1="-138.58" y1="-892.95" x2="793.46" y2="-892.95" gradientTransform="translate(0 -718) scale(1 -1)" gradientUnits="userSpaceOnUse"><stop offset="0" stop-color="#dff2fd" stop-opacity=".2"/><stop offset=".7" stop-color="#dff2fd" stop-opacity=".2"/><stop offset=".93" stop-color="#dff2fd" stop-opacity="0"/></linearGradient><linearGradient id="f" x1="-150.88" y1="-892.95" x2="781.16" y2="-892.95" gradientTransform="translate(0 -718) scale(1 -1)" gradientUnits="userSpaceOnUse"><stop offset="0" stop-color="#dff2fd" stop-opacity=".2"/><stop offset=".7" stop-color="#dff2fd" stop-opacity=".2"/><stop offset=".93" stop-color="#dff2fd" stop-opacity="0"/></linearGradient><linearGradient id="g" x1="-163.18" y1="-892.95" x2="768.86" y2="-892.95" gradientTransform="translate(0 -718) scale(1 -1)" gradientUnits="userSpaceOnUse"><stop offset="0" stop-color="#dff2fd" stop-opacity=".2"/><stop offset=".7" stop-color="#dff2fd" stop-opacity=".2"/><stop offset=".93" stop-color="#dff2fd" stop-opacity="0"/></linearGradient><linearGradient id="h" x1="-175.38" y1="-892.95" x2="756.66" y2="-892.95" gradientTransform="translate(0 -718) scale(1 -1)" gradientUnits="userSpaceOnUse"><stop offset="0" stop-color="#dff2fd" stop-opacity=".2"/><stop offset=".7" stop-color="#dff2fd" stop-opacity=".2"/><stop offset=".93" stop-color="#dff2fd" stop-opacity="0"/></linearGradient><linearGradient id="i" x1="-187.68" y1="-892.95" x2="744.36" y2="-892.95" gradientTransform="translate(0 -718) scale(1 -1)" gradientUnits="userSpaceOnUse"><stop offset="0" stop-color="#dff2fd" stop-opacity=".2"/><stop offset=".7" stop-color="#dff2fd" stop-opacity=".2"/><stop offset=".93" stop-color="#dff2fd" stop-opacity="0"/></linearGradient><linearGradient id="j" x1="-199.88" y1="-892.95" x2="732.16" y2="-892.95" gradientTransform="translate(0 -718) scale(1 -1)" gradientUnits="userSpaceOnUse"><stop offset="0" stop-color="#dff2fd" stop-opacity=".2"/><stop offset=".7" stop-color="#dff2fd" stop-opacity=".2"/><stop offset=".93" stop-color="#dff2fd" stop-opacity="0"/></linearGradient><linearGradient id="k" x1="-212.18" y1="-892.95" x2="719.86" y2="-892.95" gradientTransform="translate(0 -718) scale(1 -1)" gradientUnits="userSpaceOnUse"><stop offset="0" stop-color="#dff2fd" stop-opacity=".2"/><stop offset=".7" stop-color="#dff2fd" stop-opacity=".2"/><stop offset=".93" stop-color="#dff2fd" stop-opacity="0"/></linearGradient><linearGradient id="l" x1="-224.48" y1="-892.95" x2="707.56" y2="-892.95" gradientTransform="translate(0 -718) scale(1 -1)" gradientUnits="userSpaceOnUse"><stop offset="0" stop-color="#dff2fd" stop-opacity=".2"/><stop offset=".7" stop-color="#dff2fd" stop-opacity=".2"/><stop offset=".93" stop-color="#dff2fd" stop-opacity="0"/></linearGradient><linearGradient id="m" x1="-236.68" y1="-892.95" x2="695.36" y2="-892.95" gradientTransform="translate(0 -718) scale(1 -1)" gradientUnits="userSpaceOnUse"><stop offset="0" stop-color="#dff2fd" stop-opacity=".2"/><stop offset=".7" stop-color="#dff2fd" stop-opacity=".2"/><stop offset=".93" stop-color="#dff2fd" stop-opacity="0"/></linearGradient><linearGradient id="n" x1="-248.98" y1="-892.95" x2="683.06" y2="-892.95" gradientTransform="translate(0 -718) scale(1 -1)" gradientUnits="userSpaceOnUse"><stop offset="0" stop-color="#dff2fd" stop-opacity=".2"/><stop offset=".7" stop-color="#dff2fd" stop-opacity=".2"/><stop offset=".93" stop-color="#dff2fd" stop-opacity="0"/></linearGradient><linearGradient id="o" x1="-261.18" y1="-892.95" x2="670.76" y2="-892.95" gradientTransform="translate(0 -718) scale(1 -1)" gradientUnits="userSpaceOnUse"><stop offset="0" stop-color="#dff2fd" stop-opacity=".2"/><stop offset=".7" stop-color="#dff2fd" stop-opacity=".2"/><stop offset=".93" stop-color="#dff2fd" stop-opacity="0"/></linearGradient><linearGradient id="p" x1="-273.48" y1="-892.95" x2="658.56" y2="-892.95" gradientTransform="translate(0 -718) scale(1 -1)" gradientUnits="userSpaceOnUse"><stop offset="0" stop-color="#dff2fd" stop-opacity=".2"/><stop offset=".7" stop-color="#dff2fd" stop-opacity=".2"/><stop offset=".93" stop-color="#dff2fd" stop-opacity="0"/></linearGradient><linearGradient id="q" x1="-285.78" y1="-892.95" x2="646.26" y2="-892.95" gradientTransform="translate(0 -718) scale(1 -1)" gradientUnits="userSpaceOnUse"><stop offset="0" stop-color="#dff2fd" stop-opacity=".2"/><stop offset=".7" stop-color="#dff2fd" stop-opacity=".2"/><stop offset=".93" stop-color="#dff2fd" stop-opacity="0"/></linearGradient><linearGradient id="r" x1="-297.98" y1="-892.95" x2="634.06" y2="-892.95" gradientTransform="translate(0 -718) scale(1 -1)" gradientUnits="userSpaceOnUse"><stop offset="0" stop-color="#dff2fd" stop-opacity=".2"/><stop offset=".7" stop-color="#dff2fd" stop-opacity=".2"/><stop offset=".93" stop-color="#dff2fd" stop-opacity="0"/></linearGradient><linearGradient id="s" x1="-310.28" y1="-892.95" x2="621.76" y2="-892.95" gradientTransform="translate(0 -718) scale(1 -1)" gradientUnits="userSpaceOnUse"><stop offset="0" stop-color="#dff2fd" stop-opacity=".2"/><stop offset=".7" stop-color="#dff2fd" stop-opacity=".2"/><stop offset=".93" stop-color="#dff2fd" stop-opacity="0"/></linearGradient><linearGradient id="t" x1="-322.58" y1="-892.95" x2="609.46" y2="-892.95" gradientTransform="translate(0 -718) scale(1 -1)" gradientUnits="userSpaceOnUse"><stop offset="0" stop-color="#dff2fd" stop-opacity=".2"/><stop offset=".7" stop-color="#dff2fd" stop-opacity=".2"/><stop offset=".93" stop-color="#dff2fd" stop-opacity="0"/></linearGradient><linearGradient id="u" x1="-334.78" y1="-892.95" x2="597.26" y2="-892.95" gradientTransform="translate(0 -718) scale(1 -1)" gradientUnits="userSpaceOnUse"><stop offset="0" stop-color="#dff2fd" stop-opacity=".2"/><stop offset=".7" stop-color="#dff2fd" stop-opacity=".2"/><stop offset=".93" stop-color="#dff2fd" stop-opacity="0"/></linearGradient><linearGradient id="v" x1="-347.08" y1="-892.95" x2="584.96" y2="-892.95" gradientTransform="translate(0 -718) scale(1 -1)" gradientUnits="userSpaceOnUse"><stop offset="0" stop-color="#dff2fd" stop-opacity=".2"/><stop offset=".7" stop-color="#dff2fd" stop-opacity=".2"/><stop offset=".93" stop-color="#dff2fd" stop-opacity="0"/></linearGradient><linearGradient id="w" x1="-359.28" y1="-892.95" x2="572.76" y2="-892.95" gradientTransform="translate(0 -718) scale(1 -1)" gradientUnits="userSpaceOnUse"><stop offset="0" stop-color="#dff2fd" stop-opacity=".2"/><stop offset=".7" stop-color="#dff2fd" stop-opacity=".2"/><stop offset=".93" stop-color="#dff2fd" stop-opacity="0"/></linearGradient><linearGradient id="x" x1="-371.58" y1="-892.95" x2="560.46" y2="-892.95" gradientTransform="translate(0 -718) scale(1 -1)" gradientUnits="userSpaceOnUse"><stop offset="0" stop-color="#dff2fd" stop-opacity=".2"/><stop offset=".7" stop-color="#dff2fd" stop-opacity=".2"/><stop offset=".93" stop-color="#dff2fd" stop-opacity="0"/></linearGradient><linearGradient id="y" x1="-383.88" y1="-892.95" x2="548.16" y2="-892.95" gradientTransform="translate(0 -718) scale(1 -1)" gradientUnits="userSpaceOnUse"><stop offset="0" stop-color="#dff2fd" stop-opacity=".2"/><stop offset=".7" stop-color="#dff2fd" stop-opacity=".2"/><stop offset=".93" stop-color="#dff2fd" stop-opacity="0"/></linearGradient><linearGradient id="z" x1="-396.08" y1="-892.95" x2="535.96" y2="-892.95" gradientTransform="translate(0 -718) scale(1 -1)" gradientUnits="userSpaceOnUse"><stop offset="0" stop-color="#dff2fd" stop-opacity=".2"/><stop offset=".7" stop-color="#dff2fd" stop-opacity=".2"/><stop offset=".93" stop-color="#dff2fd" stop-opacity="0"/></linearGradient><linearGradient id="aa" x1="-408.38" y1="-892.95" x2="523.66" y2="-892.95" gradientTransform="translate(0 -718) scale(1 -1)" gradientUnits="userSpaceOnUse"><stop offset="0" stop-color="#dff2fd" stop-opacity=".2"/><stop offset=".7" stop-color="#dff2fd" stop-opacity=".2"/><stop offset=".93" stop-color="#dff2fd" stop-opacity="0"/></linearGradient><linearGradient id="ab" x1="-420.58" y1="-892.95" x2="511.36" y2="-892.95" gradientTransform="translate(0 -718) scale(1 -1)" gradientUnits="userSpaceOnUse"><stop offset="0" stop-color="#dff2fd" stop-opacity=".2"/><stop offset=".7" stop-color="#dff2fd" stop-opacity=".2"/><stop offset=".93" stop-color="#dff2fd" stop-opacity="0"/></linearGradient><linearGradient id="ac" x1="-432.88" y1="-892.95" x2="499.16" y2="-892.95" gradientTransform="translate(0 -718) scale(1 -1)" gradientUnits="userSpaceOnUse"><stop offset="0" stop-color="#dff2fd" stop-opacity=".2"/><stop offset=".7" stop-color="#dff2fd" stop-opacity=".2"/><stop offset=".93" stop-color="#dff2fd" stop-opacity="0"/></linearGradient><linearGradient id="ad" x1="-445.18" y1="-895.58" x2="486.86" y2="-895.58" gradientTransform="translate(0 -718) scale(1 -1)" gradientUnits="userSpaceOnUse"><stop offset="0" stop-color="#dff2fd" stop-opacity=".2"/><stop offset=".7" stop-color="#dff2fd" stop-opacity=".2"/><stop offset=".93" stop-color="#dff2fd" stop-opacity="0"/></linearGradient><linearGradient id="ae" x1="-457.38" y1="-903.34" x2="474.66" y2="-903.34" gradientTransform="translate(0 -718) scale(1 -1)" gradientUnits="userSpaceOnUse"><stop offset="0" stop-color="#dff2fd" stop-opacity=".2"/><stop offset=".7" stop-color="#dff2fd" stop-opacity=".2"/><stop offset=".93" stop-color="#dff2fd" stop-opacity="0"/></linearGradient><linearGradient id="af" x1="-469.68" y1="-911.11" x2="462.36" y2="-911.11" gradientTransform="translate(0 -718) scale(1 -1)" gradientUnits="userSpaceOnUse"><stop offset="0" stop-color="#dff2fd" stop-opacity=".2"/><stop offset=".7" stop-color="#dff2fd" stop-opacity=".2"/><stop offset=".93" stop-color="#dff2fd" stop-opacity="0"/></linearGradient><linearGradient id="ag" x1="-481.98" y1="-918.86" x2="450.06" y2="-918.86" gradientTransform="translate(0 -718) scale(1 -1)" gradientUnits="userSpaceOnUse"><stop offset="0" stop-color="#dff2fd" stop-opacity=".2"/><stop offset=".7" stop-color="#dff2fd" stop-opacity=".2"/><stop offset=".93" stop-color="#dff2fd" stop-opacity="0"/></linearGradient><linearGradient id="ah" x1="-494.18" y1="-926.63" x2="437.86" y2="-926.63" gradientTransform="translate(0 -718) scale(1 -1)" gradientUnits="userSpaceOnUse"><stop offset="0" stop-color="#dff2fd" stop-opacity=".2"/><stop offset=".7" stop-color="#dff2fd" stop-opacity=".2"/><stop offset=".93" stop-color="#dff2fd" stop-opacity="0"/></linearGradient><linearGradient id="ai" x1="-506.48" y1="-934.4" x2="425.56" y2="-934.4" gradientTransform="translate(0 -718) scale(1 -1)" gradientUnits="userSpaceOnUse"><stop offset="0" stop-color="#dff2fd" stop-opacity=".2"/><stop offset=".7" stop-color="#dff2fd" stop-opacity=".2"/><stop offset=".93" stop-color="#dff2fd" stop-opacity="0"/></linearGradient><linearGradient id="aj" x1="-518.68" y1="-942.18" x2="413.36" y2="-942.18" gradientTransform="translate(0 -718) scale(1 -1)" gradientUnits="userSpaceOnUse"><stop offset="0" stop-color="#dff2fd" stop-opacity=".2"/><stop offset=".7" stop-color="#dff2fd" stop-opacity=".2"/><stop offset=".93" stop-color="#dff2fd" stop-opacity="0"/></linearGradient><linearGradient id="ak" x1="-530.98" y1="-949.95" x2="401.06" y2="-949.95" gradientTransform="translate(0 -718) scale(1 -1)" gradientUnits="userSpaceOnUse"><stop offset="0" stop-color="#dff2fd" stop-opacity=".2"/><stop offset=".7" stop-color="#dff2fd" stop-opacity=".2"/><stop offset=".93" stop-color="#dff2fd" stop-opacity="0"/></linearGradient><linearGradient id="al" x1="-543.28" y1="-957.7" x2="388.76" y2="-957.7" gradientTransform="translate(0 -718) scale(1 -1)" gradientUnits="userSpaceOnUse"><stop offset="0" stop-color="#dff2fd" stop-opacity=".2"/><stop offset=".7" stop-color="#dff2fd" stop-opacity=".2"/><stop offset=".93" stop-color="#dff2fd" stop-opacity="0"/></linearGradient><linearGradient id="am" x1="-555.48" y1="-965.47" x2="376.56" y2="-965.47" gradientTransform="translate(0 -718) scale(1 -1)" gradientUnits="userSpaceOnUse"><stop offset="0" stop-color="#dff2fd" stop-opacity=".2"/><stop offset=".7" stop-color="#dff2fd" stop-opacity=".2"/><stop offset=".93" stop-color="#dff2fd" stop-opacity="0"/></linearGradient><linearGradient id="an" x1="-567.78" y1="-973.24" x2="364.26" y2="-973.24" gradientTransform="translate(0 -718) scale(1 -1)" gradientUnits="userSpaceOnUse"><stop offset="0" stop-color="#dff2fd" stop-opacity=".2"/><stop offset=".7" stop-color="#dff2fd" stop-opacity=".2"/><stop offset=".93" stop-color="#dff2fd" stop-opacity="0"/></linearGradient><linearGradient id="ao" x1="-579.98" y1="-981.02" x2="352.06" y2="-981.02" gradientTransform="translate(0 -718) scale(1 -1)" gradientUnits="userSpaceOnUse"><stop offset="0" stop-color="#dff2fd" stop-opacity=".2"/><stop offset=".7" stop-color="#dff2fd" stop-opacity=".2"/><stop offset=".93" stop-color="#dff2fd" stop-opacity="0"/></linearGradient><linearGradient id="ap" x1="-592.28" y1="-988.74" x2="339.76" y2="-988.74" gradientTransform="translate(0 -718) scale(1 -1)" gradientUnits="userSpaceOnUse"><stop offset="0" stop-color="#dff2fd" stop-opacity=".2"/><stop offset=".7" stop-color="#dff2fd" stop-opacity=".2"/><stop offset=".93" stop-color="#dff2fd" stop-opacity="0"/></linearGradient><linearGradient id="aq" x1="-604.58" y1="-996.53" x2="327.46" y2="-996.53" gradientTransform="translate(0 -718) scale(1 -1)" gradientUnits="userSpaceOnUse"><stop offset="0" stop-color="#dff2fd" stop-opacity=".2"/><stop offset=".7" stop-color="#dff2fd" stop-opacity=".2"/><stop offset=".93" stop-color="#dff2fd" stop-opacity="0"/></linearGradient><linearGradient id="ar" x1="-616.78" y1="-1004.31" x2="315.26" y2="-1004.31" gradientTransform="translate(0 -718) scale(1 -1)" gradientUnits="userSpaceOnUse"><stop offset="0" stop-color="#dff2fd" stop-opacity=".2"/><stop offset=".7" stop-color="#dff2fd" stop-opacity=".2"/><stop offset=".93" stop-color="#dff2fd" stop-opacity="0"/></linearGradient><linearGradient id="as" x1="-629.08" y1="-1012.08" x2="302.96" y2="-1012.08" gradientTransform="translate(0 -718) scale(1 -1)" gradientUnits="userSpaceOnUse"><stop offset="0" stop-color="#dff2fd" stop-opacity=".2"/><stop offset=".7" stop-color="#dff2fd" stop-opacity=".2"/><stop offset=".93" stop-color="#dff2fd" stop-opacity="0"/></linearGradient><linearGradient id="at" x1="-641.38" y1="-1019.81" x2="290.66" y2="-1019.81" gradientTransform="translate(0 -718) scale(1 -1)" gradientUnits="userSpaceOnUse"><stop offset="0" stop-color="#dff2fd" stop-opacity=".2"/><stop offset=".7" stop-color="#dff2fd" stop-opacity=".2"/><stop offset=".93" stop-color="#dff2fd" stop-opacity="0"/></linearGradient><linearGradient id="au" x1="-653.58" y1="-1032.32" x2="278.46" y2="-1032.32" gradientTransform="translate(0 -718) scale(1 -1)" gradientUnits="userSpaceOnUse"><stop offset="0" stop-color="#dff2fd" stop-opacity=".2"/><stop offset=".7" stop-color="#dff2fd" stop-opacity=".2"/><stop offset=".93" stop-color="#dff2fd" stop-opacity="0"/></linearGradient><linearGradient id="av" x1="-665.88" y1="-1051.47" x2="266.16" y2="-1051.47" gradientTransform="translate(0 -718) scale(1 -1)" gradientUnits="userSpaceOnUse"><stop offset="0" stop-color="#dff2fd" stop-opacity=".2"/><stop offset=".7" stop-color="#dff2fd" stop-opacity=".2"/><stop offset=".93" stop-color="#dff2fd" stop-opacity="0"/></linearGradient><linearGradient id="aw" x1="1044.31" y1="46.94" x2="1976.35" y2="46.94" gradientTransform="translate(2658.39 128.01) rotate(-180) scale(1 -1)" gradientUnits="userSpaceOnUse"><stop offset="0" stop-color="#dff2fd" stop-opacity=".2"/><stop offset=".7" stop-color="#dff2fd" stop-opacity=".2"/><stop offset=".93" stop-color="#dff2fd" stop-opacity="0"/></linearGradient><linearGradient id="ax" x1="1032.01" y1="46.94" x2="1964.05" y2="46.94" gradientTransform="translate(2658.39 128.01) rotate(-180) scale(1 -1)" gradientUnits="userSpaceOnUse"><stop offset="0" stop-color="#dff2fd" stop-opacity=".2"/><stop offset=".7" stop-color="#dff2fd" stop-opacity=".2"/><stop offset=".93" stop-color="#dff2fd" stop-opacity="0"/></linearGradient><linearGradient id="ay" x1="1019.81" y1="46.94" x2="1951.85" y2="46.94" gradientTransform="translate(2658.39 128.01) rotate(-180) scale(1 -1)" gradientUnits="userSpaceOnUse"><stop offset="0" stop-color="#dff2fd" stop-opacity=".2"/><stop offset=".7" stop-color="#dff2fd" stop-opacity=".2"/><stop offset=".93" stop-color="#dff2fd" stop-opacity="0"/></linearGradient><linearGradient id="az" x1="1007.51" y1="46.94" x2="1939.55" y2="46.94" gradientTransform="translate(2658.39 128.01) rotate(-180) scale(1 -1)" gradientUnits="userSpaceOnUse"><stop offset="0" stop-color="#dff2fd" stop-opacity=".2"/><stop offset=".7" stop-color="#dff2fd" stop-opacity=".2"/><stop offset=".93" stop-color="#dff2fd" stop-opacity="0"/></linearGradient><linearGradient id="ba" x1="995.21" y1="46.94" x2="1927.25" y2="46.94" gradientTransform="translate(2658.39 128.01) rotate(-180) scale(1 -1)" gradientUnits="userSpaceOnUse"><stop offset="0" stop-color="#dff2fd" stop-opacity=".2"/><stop offset=".7" stop-color="#dff2fd" stop-opacity=".2"/><stop offset=".93" stop-color="#dff2fd" stop-opacity="0"/></linearGradient><linearGradient id="bb" x1="983.01" y1="46.94" x2="1915.05" y2="46.94" gradientTransform="translate(2658.39 128.01) rotate(-180) scale(1 -1)" gradientUnits="userSpaceOnUse"><stop offset="0" stop-color="#dff2fd" stop-opacity=".2"/><stop offset=".7" stop-color="#dff2fd" stop-opacity=".2"/><stop offset=".93" stop-color="#dff2fd" stop-opacity="0"/></linearGradient><linearGradient id="bc" x1="970.71" y1="46.94" x2="1902.75" y2="46.94" gradientTransform="translate(2658.39 128.01) rotate(-180) scale(1 -1)" gradientUnits="userSpaceOnUse"><stop offset="0" stop-color="#dff2fd" stop-opacity=".2"/><stop offset=".7" stop-color="#dff2fd" stop-opacity=".2"/><stop offset=".93" stop-color="#dff2fd" stop-opacity="0"/></linearGradient><linearGradient id="bd" x1="958.51" y1="46.94" x2="1890.55" y2="46.94" gradientTransform="translate(2658.39 128.01) rotate(-180) scale(1 -1)" gradientUnits="userSpaceOnUse"><stop offset="0" stop-color="#dff2fd" stop-opacity=".2"/><stop offset=".7" stop-color="#dff2fd" stop-opacity=".2"/><stop offset=".93" stop-color="#dff2fd" stop-opacity="0"/></linearGradient><linearGradient id="be" x1="946.21" y1="46.94" x2="1878.25" y2="46.94" gradientTransform="translate(2658.39 128.01) rotate(-180) scale(1 -1)" gradientUnits="userSpaceOnUse"><stop offset="0" stop-color="#dff2fd" stop-opacity=".2"/><stop offset=".7" stop-color="#dff2fd" stop-opacity=".2"/><stop offset=".93" stop-color="#dff2fd" stop-opacity="0"/></linearGradient><linearGradient id="bf" x1="933.91" y1="46.94" x2="1865.95" y2="46.94" gradientTransform="translate(2658.39 128.01) rotate(-180) scale(1 -1)" gradientUnits="userSpaceOnUse"><stop offset="0" stop-color="#dff2fd" stop-opacity=".2"/><stop offset=".7" stop-color="#dff2fd" stop-opacity=".2"/><stop offset=".93" stop-color="#dff2fd" stop-opacity="0"/></linearGradient><linearGradient id="bg" x1="921.71" y1="46.94" x2="1853.75" y2="46.94" gradientTransform="translate(2658.39 128.01) rotate(-180) scale(1 -1)" gradientUnits="userSpaceOnUse"><stop offset="0" stop-color="#dff2fd" stop-opacity=".2"/><stop offset=".7" stop-color="#dff2fd" stop-opacity=".2"/><stop offset=".93" stop-color="#dff2fd" stop-opacity="0"/></linearGradient><linearGradient id="bh" x1="909.41" y1="46.94" x2="1841.45" y2="46.94" gradientTransform="translate(2658.39 128.01) rotate(-180) scale(1 -1)" gradientUnits="userSpaceOnUse"><stop offset="0" stop-color="#dff2fd" stop-opacity=".2"/><stop offset=".7" stop-color="#dff2fd" stop-opacity=".2"/><stop offset=".93" stop-color="#dff2fd" stop-opacity="0"/></linearGradient><linearGradient id="bi" x1="897.21" y1="46.94" x2="1829.15" y2="46.94" gradientTransform="translate(2658.39 128.01) rotate(-180) scale(1 -1)" gradientUnits="userSpaceOnUse"><stop offset="0" stop-color="#dff2fd" stop-opacity=".2"/><stop offset=".7" stop-color="#dff2fd" stop-opacity=".2"/><stop offset=".93" stop-color="#dff2fd" stop-opacity="0"/></linearGradient><linearGradient id="bj" x1="884.91" y1="46.94" x2="1816.95" y2="46.94" gradientTransform="translate(2658.39 128.01) rotate(-180) scale(1 -1)" gradientUnits="userSpaceOnUse"><stop offset="0" stop-color="#dff2fd" stop-opacity=".2"/><stop offset=".7" stop-color="#dff2fd" stop-opacity=".2"/><stop offset=".93" stop-color="#dff2fd" stop-opacity="0"/></linearGradient><linearGradient id="bk" x1="872.61" y1="46.94" x2="1804.65" y2="46.94" gradientTransform="translate(2658.39 128.01) rotate(-180) scale(1 -1)" gradientUnits="userSpaceOnUse"><stop offset="0" stop-color="#dff2fd" stop-opacity=".2"/><stop offset=".7" stop-color="#dff2fd" stop-opacity=".2"/><stop offset=".93" stop-color="#dff2fd" stop-opacity="0"/></linearGradient><linearGradient id="bl" x1="860.41" y1="46.94" x2="1792.45" y2="46.94" gradientTransform="translate(2658.39 128.01) rotate(-180) scale(1 -1)" gradientUnits="userSpaceOnUse"><stop offset="0" stop-color="#dff2fd" stop-opacity=".2"/><stop offset=".7" stop-color="#dff2fd" stop-opacity=".2"/><stop offset=".93" stop-color="#dff2fd" stop-opacity="0"/></linearGradient><linearGradient id="bm" x1="848.11" y1="46.94" x2="1780.15" y2="46.94" gradientTransform="translate(2658.39 128.01) rotate(-180) scale(1 -1)" gradientUnits="userSpaceOnUse"><stop offset="0" stop-color="#dff2fd" stop-opacity=".2"/><stop offset=".7" stop-color="#dff2fd" stop-opacity=".2"/><stop offset=".93" stop-color="#dff2fd" stop-opacity="0"/></linearGradient><linearGradient id="bn" x1="835.81" y1="46.94" x2="1767.85" y2="46.94" gradientTransform="translate(2658.39 128.01) rotate(-180) scale(1 -1)" gradientUnits="userSpaceOnUse"><stop offset="0" stop-color="#dff2fd" stop-opacity=".2"/><stop offset=".7" stop-color="#dff2fd" stop-opacity=".2"/><stop offset=".93" stop-color="#dff2fd" stop-opacity="0"/></linearGradient><linearGradient id="bo" x1="823.61" y1="46.94" x2="1755.65" y2="46.94" gradientTransform="translate(2658.39 128.01) rotate(-180) scale(1 -1)" gradientUnits="userSpaceOnUse"><stop offset="0" stop-color="#dff2fd" stop-opacity=".2"/><stop offset=".7" stop-color="#dff2fd" stop-opacity=".2"/><stop offset=".93" stop-color="#dff2fd" stop-opacity="0"/></linearGradient><linearGradient id="bp" x1="811.31" y1="46.94" x2="1743.35" y2="46.94" gradientTransform="translate(2658.39 128.01) rotate(-180) scale(1 -1)" gradientUnits="userSpaceOnUse"><stop offset="0" stop-color="#dff2fd" stop-opacity=".2"/><stop offset=".7" stop-color="#dff2fd" stop-opacity=".2"/><stop offset=".93" stop-color="#dff2fd" stop-opacity="0"/></linearGradient><linearGradient id="bq" x1="799.11" y1="46.94" x2="1731.15" y2="46.94" gradientTransform="translate(2658.39 128.01) rotate(-180) scale(1 -1)" gradientUnits="userSpaceOnUse"><stop offset="0" stop-color="#dff2fd" stop-opacity=".2"/><stop offset=".7" stop-color="#dff2fd" stop-opacity=".2"/><stop offset=".93" stop-color="#dff2fd" stop-opacity="0"/></linearGradient><linearGradient id="br" x1="786.81" y1="46.94" x2="1718.85" y2="46.94" gradientTransform="translate(2658.39 128.01) rotate(-180) scale(1 -1)" gradientUnits="userSpaceOnUse"><stop offset="0" stop-color="#dff2fd" stop-opacity=".2"/><stop offset=".7" stop-color="#dff2fd" stop-opacity=".2"/><stop offset=".93" stop-color="#dff2fd" stop-opacity="0"/></linearGradient><linearGradient id="bs" x1="774.51" y1="46.94" x2="1706.55" y2="46.94" gradientTransform="translate(2658.39 128.01) rotate(-180) scale(1 -1)" gradientUnits="userSpaceOnUse"><stop offset="0" stop-color="#dff2fd" stop-opacity=".2"/><stop offset=".7" stop-color="#dff2fd" stop-opacity=".2"/><stop offset=".93" stop-color="#dff2fd" stop-opacity="0"/></linearGradient><linearGradient id="bt" x1="762.31" y1="46.94" x2="1694.35" y2="46.94" gradientTransform="translate(2658.39 128.01) rotate(-180) scale(1 -1)" gradientUnits="userSpaceOnUse"><stop offset="0" stop-color="#dff2fd" stop-opacity=".2"/><stop offset=".7" stop-color="#dff2fd" stop-opacity=".2"/><stop offset=".93" stop-color="#dff2fd" stop-opacity="0"/></linearGradient><linearGradient id="bu" x1="750.01" y1="46.94" x2="1682.05" y2="46.94" gradientTransform="translate(2658.39 128.01) rotate(-180) scale(1 -1)" gradientUnits="userSpaceOnUse"><stop offset="0" stop-color="#dff2fd" stop-opacity=".2"/><stop offset=".7" stop-color="#dff2fd" stop-opacity=".2"/><stop offset=".93" stop-color="#dff2fd" stop-opacity="0"/></linearGradient><linearGradient id="bv" x1="737.81" y1="46.94" x2="1669.75" y2="46.94" gradientTransform="translate(2658.39 128.01) rotate(-180) scale(1 -1)" gradientUnits="userSpaceOnUse"><stop offset="0" stop-color="#dff2fd" stop-opacity=".2"/><stop offset=".7" stop-color="#dff2fd" stop-opacity=".2"/><stop offset=".93" stop-color="#dff2fd" stop-opacity="0"/></linearGradient><linearGradient id="bw" x1="725.51" y1="46.94" x2="1657.55" y2="46.94" gradientTransform="translate(2658.39 128.01) rotate(-180) scale(1 -1)" gradientUnits="userSpaceOnUse"><stop offset="0" stop-color="#dff2fd" stop-opacity=".2"/><stop offset=".7" stop-color="#dff2fd" stop-opacity=".2"/><stop offset=".93" stop-color="#dff2fd" stop-opacity="0"/></linearGradient><linearGradient id="bx" x1="713.21" y1="44.36" x2="1645.25" y2="44.36" gradientTransform="translate(2658.39 128.01) rotate(-180) scale(1 -1)" gradientUnits="userSpaceOnUse"><stop offset="0" stop-color="#dff2fd" stop-opacity=".2"/><stop offset=".7" stop-color="#dff2fd" stop-opacity=".2"/><stop offset=".93" stop-color="#dff2fd" stop-opacity="0"/></linearGradient><linearGradient id="by" x1="701.01" y1="36.6" x2="1633.05" y2="36.6" gradientTransform="translate(2658.39 128.01) rotate(-180) scale(1 -1)" gradientUnits="userSpaceOnUse"><stop offset="0" stop-color="#dff2fd" stop-opacity=".2"/><stop offset=".7" stop-color="#dff2fd" stop-opacity=".2"/><stop offset=".93" stop-color="#dff2fd" stop-opacity="0"/></linearGradient><linearGradient id="bz" x1="688.71" y1="28.82" x2="1620.75" y2="28.82" gradientTransform="translate(2658.39 128.01) rotate(-180) scale(1 -1)" gradientUnits="userSpaceOnUse"><stop offset="0" stop-color="#dff2fd" stop-opacity=".2"/><stop offset=".7" stop-color="#dff2fd" stop-opacity=".2"/><stop offset=".93" stop-color="#dff2fd" stop-opacity="0"/></linearGradient><linearGradient id="ca" x1="676.41" y1="21.08" x2="1608.45" y2="21.08" gradientTransform="translate(2658.39 128.01) rotate(-180) scale(1 -1)" gradientUnits="userSpaceOnUse"><stop offset="0" stop-color="#dff2fd" stop-opacity=".2"/><stop offset=".7" stop-color="#dff2fd" stop-opacity=".2"/><stop offset=".93" stop-color="#dff2fd" stop-opacity="0"/></linearGradient><linearGradient id="cb" x1="664.21" y1="13.31" x2="1596.25" y2="13.31" gradientTransform="translate(2658.39 128.01) rotate(-180) scale(1 -1)" gradientUnits="userSpaceOnUse"><stop offset="0" stop-color="#dff2fd" stop-opacity=".2"/><stop offset=".7" stop-color="#dff2fd" stop-opacity=".2"/><stop offset=".93" stop-color="#dff2fd" stop-opacity="0"/></linearGradient><linearGradient id="cc" x1="651.91" y1="5.54" x2="1583.95" y2="5.54" gradientTransform="translate(2658.39 128.01) rotate(-180) scale(1 -1)" gradientUnits="userSpaceOnUse"><stop offset="0" stop-color="#dff2fd" stop-opacity=".2"/><stop offset=".7" stop-color="#dff2fd" stop-opacity=".2"/><stop offset=".93" stop-color="#dff2fd" stop-opacity="0"/></linearGradient><linearGradient id="cd" x1="639.71" y1="-2.24" x2="1571.75" y2="-2.24" gradientTransform="translate(2658.39 128.01) rotate(-180) scale(1 -1)" gradientUnits="userSpaceOnUse"><stop offset="0" stop-color="#dff2fd" stop-opacity=".2"/><stop offset=".7" stop-color="#dff2fd" stop-opacity=".2"/><stop offset=".93" stop-color="#dff2fd" stop-opacity="0"/></linearGradient><linearGradient id="ce" x1="627.41" y1="-10.01" x2="1559.45" y2="-10.01" gradientTransform="translate(2658.39 128.01) rotate(-180) scale(1 -1)" gradientUnits="userSpaceOnUse"><stop offset="0" stop-color="#dff2fd" stop-opacity=".2"/><stop offset=".7" stop-color="#dff2fd" stop-opacity=".2"/><stop offset=".93" stop-color="#dff2fd" stop-opacity="0"/></linearGradient><linearGradient id="cf" x1="615.11" y1="-17.76" x2="1547.15" y2="-17.76" gradientTransform="translate(2658.39 128.01) rotate(-180) scale(1 -1)" gradientUnits="userSpaceOnUse"><stop offset="0" stop-color="#dff2fd" stop-opacity=".2"/><stop offset=".7" stop-color="#dff2fd" stop-opacity=".2"/><stop offset=".93" stop-color="#dff2fd" stop-opacity="0"/></linearGradient><linearGradient id="cg" x1="602.91" y1="-25.53" x2="1534.95" y2="-25.53" gradientTransform="translate(2658.39 128.01) rotate(-180) scale(1 -1)" gradientUnits="userSpaceOnUse"><stop offset="0" stop-color="#dff2fd" stop-opacity=".2"/><stop offset=".7" stop-color="#dff2fd" stop-opacity=".2"/><stop offset=".93" stop-color="#dff2fd" stop-opacity="0"/></linearGradient><linearGradient id="ch" x1="590.61" y1="-33.3" x2="1522.65" y2="-33.3" gradientTransform="translate(2658.39 128.01) rotate(-180) scale(1 -1)" gradientUnits="userSpaceOnUse"><stop offset="0" stop-color="#dff2fd" stop-opacity=".2"/><stop offset=".7" stop-color="#dff2fd" stop-opacity=".2"/><stop offset=".93" stop-color="#dff2fd" stop-opacity="0"/></linearGradient><linearGradient id="ci" x1="578.41" y1="-41.08" x2="1510.45" y2="-41.08" gradientTransform="translate(2658.39 128.01) rotate(-180) scale(1 -1)" gradientUnits="userSpaceOnUse"><stop offset="0" stop-color="#dff2fd" stop-opacity=".2"/><stop offset=".7" stop-color="#dff2fd" stop-opacity=".2"/><stop offset=".93" stop-color="#dff2fd" stop-opacity="0"/></linearGradient><linearGradient id="cj" x1="566.11" y1="-48.81" x2="1498.15" y2="-48.81" gradientTransform="translate(2658.39 128.01) rotate(-180) scale(1 -1)" gradientUnits="userSpaceOnUse"><stop offset="0" stop-color="#dff2fd" stop-opacity=".2"/><stop offset=".7" stop-color="#dff2fd" stop-opacity=".2"/><stop offset=".93" stop-color="#dff2fd" stop-opacity="0"/></linearGradient><linearGradient id="ck" x1="553.81" y1="-56.59" x2="1485.85" y2="-56.59" gradientTransform="translate(2658.39 128.01) rotate(-180) scale(1 -1)" gradientUnits="userSpaceOnUse"><stop offset="0" stop-color="#dff2fd" stop-opacity=".2"/><stop offset=".7" stop-color="#dff2fd" stop-opacity=".2"/><stop offset=".93" stop-color="#dff2fd" stop-opacity="0"/></linearGradient><linearGradient id="cl" x1="541.61" y1="-64.37" x2="1473.65" y2="-64.37" gradientTransform="translate(2658.39 128.01) rotate(-180) scale(1 -1)" gradientUnits="userSpaceOnUse"><stop offset="0" stop-color="#dff2fd" stop-opacity=".2"/><stop offset=".7" stop-color="#dff2fd" stop-opacity=".2"/><stop offset=".93" stop-color="#dff2fd" stop-opacity="0"/></linearGradient><linearGradient id="cm" x1="529.31" y1="-72.14" x2="1461.35" y2="-72.14" gradientTransform="translate(2658.39 128.01) rotate(-180) scale(1 -1)" gradientUnits="userSpaceOnUse"><stop offset="0" stop-color="#dff2fd" stop-opacity=".2"/><stop offset=".7" stop-color="#dff2fd" stop-opacity=".2"/><stop offset=".93" stop-color="#dff2fd" stop-opacity="0"/></linearGradient><linearGradient id="cn" x1="517.01" y1="-79.87" x2="1449.05" y2="-79.87" gradientTransform="translate(2658.39 128.01) rotate(-180) scale(1 -1)" gradientUnits="userSpaceOnUse"><stop offset="0" stop-color="#dff2fd" stop-opacity=".2"/><stop offset=".7" stop-color="#dff2fd" stop-opacity=".2"/><stop offset=".93" stop-color="#dff2fd" stop-opacity="0"/></linearGradient><linearGradient id="co" x1="504.81" y1="-92.38" x2="1436.85" y2="-92.38" gradientTransform="translate(2658.39 128.01) rotate(-180) scale(1 -1)" gradientUnits="userSpaceOnUse"><stop offset="0" stop-color="#dff2fd" stop-opacity=".2"/><stop offset=".7" stop-color="#dff2fd" stop-opacity=".2"/><stop offset=".93" stop-color="#dff2fd" stop-opacity="0"/></linearGradient><linearGradient id="cp" x1="492.51" y1="-111.53" x2="1424.55" y2="-111.53" gradientTransform="translate(2658.39 128.01) rotate(-180) scale(1 -1)" gradientUnits="userSpaceOnUse"><stop offset="0" stop-color="#dff2fd" stop-opacity=".2"/><stop offset=".7" stop-color="#dff2fd" stop-opacity=".2"/><stop offset=".93" stop-color="#dff2fd" stop-opacity="0"/></linearGradient></defs><rect y="-.1" width="1500" height="350.1" style="fill:none;"/><rect y="-.1" width="1500" height="350.1" style="fill:url(#b);"/><g><polygon points="628.09 -.1 785.18 350 786.28 350 629.18 -.1 628.09 -.1" style="fill:url(#c);"/><polygon points="610.9 -.1 767.99 350 769.09 350 611.99 -.1 610.9 -.1" style="fill:url(#d);"/><polygon points="593.73 -.1 750.89 350 751.98 350 594.83 -.1 593.73 -.1" style="fill:url(#e);"/><polygon points="576.63 -.1 733.75 350 734.84 350 577.72 -.1 576.63 -.1" style="fill:url(#f);"/><polygon points="559.47 -.1 716.56 350 717.66 350 560.56 -.1 559.47 -.1" style="fill:url(#g);"/><polygon points="542.38 -.1 699.47 350 700.57 350 543.47 -.1 542.38 -.1" style="fill:url(#h);"/><polygon points="525.19 -.1 682.28 350 683.38 350 526.28 -.1 525.19 -.1" style="fill:url(#i);"/><polygon points="508.03 -.1 665.2 350 666.3 350 509.12 -.1 508.03 -.1" style="fill:url(#j);"/><polygon points="490.95 -.1 648.04 350 649.14 350 492.04 -.1 490.95 -.1" style="fill:url(#k);"/><polygon points="473.76 -.1 630.85 350 631.95 350 474.85 -.1 473.76 -.1" style="fill:url(#l);"/><polygon points="456.58 -.1 613.73 350 614.83 350 457.68 -.1 456.58 -.1" style="fill:url(#m);"/><polygon points="439.48 -.1 596.57 350 597.67 350 440.57 -.1 439.48 -.1" style="fill:url(#n);"/><polygon points="422.29 -.1 579.41 350 580.51 350 423.39 -.1 422.29 -.1" style="fill:url(#o);"/><polygon points="405.24 -.1 562.33 350 563.43 350 406.33 -.1 405.24 -.1" style="fill:url(#p);"/><polygon points="388.05 -.1 545.14 350 546.24 350 389.14 -.1 388.05 -.1" style="fill:url(#q);"/><polygon points="370.86 -.1 528.01 350 529.11 350 371.96 -.1 370.86 -.1" style="fill:url(#r);"/><polygon points="353.77 -.1 510.89 350 511.98 350 354.86 -.1 353.77 -.1" style="fill:url(#s);"/><polygon points="336.62 -.1 493.72 350 494.81 350 337.71 -.1 336.62 -.1" style="fill:url(#t);"/><polygon points="319.53 -.1 476.62 350 477.72 350 320.62 -.1 319.53 -.1" style="fill:url(#u);"/><polygon points="302.34 -.1 459.43 350 460.53 350 303.43 -.1 302.34 -.1" style="fill:url(#v);"/><polygon points="289.07 6.21 272.46 -.1 269.65 -.1 288.33 6.99 442.32 350 443.42 350 289.16 6.39 289.07 6.21" style="fill:url(#w);"/><polygon points="276.87 17.01 231.8 -.1 228.98 -.1 276.13 17.79 425.2 350 426.29 350 276.96 17.19 276.87 17.01" style="fill:url(#x);"/><polygon points="264.57 27.91 190.78 -.1 187.96 -.1 263.83 28.69 408 350 409.1 350 264.66 28.1 264.57 27.91" style="fill:url(#y);"/><polygon points="252.27 38.81 149.82 -.1 147 -.1 251.53 39.59 390.86 350 391.96 350 252.36 38.99 252.27 38.81" style="fill:url(#z);"/><polygon points="240.07 49.71 108.89 -.1 106.08 -.1 239.33 50.49 373.72 350 374.82 350 240.16 49.89 240.07 49.71" style="fill:url(#aa);"/><polygon points="227.77 60.61 67.91 -.1 65.09 -.1 227.03 61.39 356.55 350 357.65 350 227.86 60.8 227.77 60.61" style="fill:url(#ab);"/><polygon points="215.57 71.41 27.17 -.1 24.35 -.1 214.83 72.19 339.49 350 340.58 350 215.66 71.6 215.57 71.41" style="fill:url(#ac);"/><polygon points="203.27 82.31 0 5.16 0 6.23 202.53 83.09 322.29 350 323.39 350 203.36 82.49 203.27 82.31" style="fill:url(#ad);"/><polygon points="190.97 93.21 0 20.69 0 21.75 190.23 93.99 305.14 350 306.24 350 191.06 93.39 190.97 93.21" style="fill:url(#ae);"/><polygon points="178.77 104.11 0 36.23 0 37.3 178.03 104.89 288.03 350 289.13 350 178.86 104.3 178.77 104.11" style="fill:url(#af);"/><polygon points="166.47 114.91 0 51.72 0 52.79 165.73 115.69 270.87 350 271.96 350 166.56 115.1 166.47 114.91" style="fill:url(#ag);"/><polygon points="154.27 125.81 0 67.26 0 68.32 153.53 126.59 253.78 350 254.87 350 154.36 125.99 154.27 125.81" style="fill:url(#ah);"/><polygon points="141.97 136.71 0 82.8 0 83.87 141.23 137.49 236.58 350 237.68 350 142.06 136.89 141.97 136.71" style="fill:url(#ai);"/><polygon points="129.67 147.61 0 98.36 0 99.43 128.93 148.39 219.44 350 220.54 350 129.76 147.8 129.67 147.61" style="fill:url(#aj);"/><polygon points="117.47 158.51 0 113.9 0 114.97 116.73 159.29 202.32 350 203.41 350 117.56 158.69 117.47 158.51" style="fill:url(#ak);"/><polygon points="105.17 169.31 0 129.39 0 130.46 104.43 170.09 185.16 350 186.25 350 105.26 169.49 105.17 169.31" style="fill:url(#al);"/><polygon points="92.87 180.21 0 144.94 0 146.01 92.13 180.99 167.99 350 169.09 350 92.96 180.39 92.87 180.21" style="fill:url(#am);"/><polygon points="80.67 191.11 0 160.48 0 161.55 79.93 191.89 150.87 350 151.97 350 80.76 191.3 80.67 191.11" style="fill:url(#an);"/><polygon points="68.37 202.01 0 176.04 0 177.11 67.63 202.79 133.72 350 134.81 350 68.46 202.19 68.37 202.01" style="fill:url(#ao);"/><polygon points="56.17 212.81 0 191.49 0 192.56 55.43 213.59 116.64 350 117.73 350 56.26 212.99 56.17 212.81" style="fill:url(#ap);"/><polygon points="43.87 223.71 0 207.06 0 208.12 43.13 224.49 99.45 350 100.54 350 43.96 223.89 43.87 223.71" style="fill:url(#aq);"/><polygon points="31.57 234.61 0 222.62 0 223.69 30.83 235.39 82.27 350 83.37 350 31.66 234.8 31.57 234.61" style="fill:url(#ar);"/><polygon points="19.37 245.51 0 238.15 0 239.22 18.63 246.29 65.17 350 66.27 350 19.46 245.69 19.37 245.51" style="fill:url(#as);"/><polygon points="7.07 256.31 0 253.62 0 254.69 6.33 257.09 48.02 350 49.11 350 7.16 256.49 7.07 256.31" style="fill:url(#at);"/><polygon points="0 281.08 30.93 350 32.02 350 0 278.64 0 281.08" style="fill:url(#au);"/><polygon points="0 319.39 13.74 350 14.83 350 0 316.95 0 319.39" style="fill:url(#av);"/><polygon points="713.68 -.1 870.77 350 871.87 350 714.77 -.1 713.68 -.1" style="fill:url(#aw);"/><polygon points="730.87 -.1 887.96 350 889.06 350 731.96 -.1 730.87 -.1" style="fill:url(#ax);"/><polygon points="747.97 -.1 905.12 350 906.22 350 749.07 -.1 747.97 -.1" style="fill:url(#ay);"/><polygon points="765.11 -.1 922.23 350 923.33 350 766.21 -.1 765.11 -.1" style="fill:url(#az);"/><polygon points="782.3 -.1 939.39 350 940.49 350 783.39 -.1 782.3 -.1" style="fill:url(#ba);"/><polygon points="799.39 -.1 956.48 350 957.58 350 800.48 -.1 799.39 -.1" style="fill:url(#bb);"/><polygon points="816.58 -.1 973.67 350 974.77 350 817.67 -.1 816.58 -.1" style="fill:url(#bc);"/><polygon points="833.66 -.1 990.83 350 991.93 350 834.75 -.1 833.66 -.1" style="fill:url(#bd);"/><polygon points="850.81 -.1 1007.91 350 1009.01 350 851.91 -.1 850.81 -.1" style="fill:url(#be);"/><polygon points="868.01 -.1 1025.1 350 1026.2 350 869.1 -.1 868.01 -.1" style="fill:url(#bf);"/><polygon points="885.12 -.1 1042.28 350 1043.37 350 886.22 -.1 885.12 -.1" style="fill:url(#bg);"/><polygon points="902.29 -.1 1059.38 350 1060.48 350 903.38 -.1 902.29 -.1" style="fill:url(#bh);"/><polygon points="919.45 -.1 1076.57 350 1077.67 350 920.54 -.1 919.45 -.1" style="fill:url(#bi);"/><polygon points="936.53 -.1 1093.62 350 1094.72 350 937.62 -.1 936.53 -.1" style="fill:url(#bj);"/><polygon points="953.72 -.1 1110.81 350 1111.91 350 954.81 -.1 953.72 -.1" style="fill:url(#bk);"/><polygon points="970.84 -.1 1128 350 1129.09 350 971.94 -.1 970.84 -.1" style="fill:url(#bl);"/><polygon points="987.97 -.1 1145.09 350 1146.19 350 989.07 -.1 987.97 -.1" style="fill:url(#bm);"/><polygon points="1005.14 -.1 1162.24 350 1163.34 350 1006.24 -.1 1005.14 -.1" style="fill:url(#bn);"/><polygon points="1022.24 -.1 1179.33 350 1180.43 350 1023.33 -.1 1022.24 -.1" style="fill:url(#bo);"/><polygon points="1039.43 -.1 1196.52 350 1197.62 350 1040.52 -.1 1039.43 -.1" style="fill:url(#bp);"/><polygon points="1057.63 -.1 1056.54 -.1 1210.84 343.6 1210.93 343.79 1227.27 350 1230.09 350 1211.67 343.01 1057.63 -.1" style="fill:url(#bq);"/><polygon points="1074.76 -.1 1073.66 -.1 1223.04 332.81 1223.13 332.99 1267.94 350 1270.75 350 1223.87 332.21 1074.76 -.1" style="fill:url(#br);"/><polygon points="1091.95 -.1 1090.85 -.1 1235.34 321.9 1235.43 322.09 1308.96 350 1311.77 350 1236.17 321.31 1091.95 -.1" style="fill:url(#bs);"/><polygon points="1109.09 -.1 1108 -.1 1247.64 311.01 1247.73 311.19 1349.92 350 1352.73 350 1248.47 310.41 1109.09 -.1" style="fill:url(#bt);"/><polygon points="1126.23 -.1 1125.14 -.1 1259.84 300.1 1259.93 300.29 1390.84 350 1393.66 350 1260.67 299.51 1126.23 -.1" style="fill:url(#bu);"/><polygon points="1143.4 -.1 1142.31 -.1 1272.14 289.21 1272.23 289.39 1431.82 350 1434.64 350 1272.97 288.61 1143.4 -.1" style="fill:url(#bv);"/><polygon points="1160.47 -.1 1159.37 -.1 1284.34 278.4 1284.43 278.59 1472.57 350 1475.39 350 1285.17 277.81 1160.47 -.1" style="fill:url(#bw);"/><polygon points="1177.66 -.1 1176.56 -.1 1296.64 267.51 1296.73 267.69 1500 344.84 1500 343.77 1297.47 266.91 1177.66 -.1" style="fill:url(#bx);"/><polygon points="1194.81 -.1 1193.72 -.1 1308.94 256.6 1309.03 256.79 1500 329.31 1500 328.24 1309.77 256.01 1194.81 -.1" style="fill:url(#by);"/><polygon points="1211.92 -.1 1210.83 -.1 1321.14 245.71 1321.23 245.89 1500 313.77 1500 312.7 1321.97 245.11 1211.92 -.1" style="fill:url(#bz);"/><polygon points="1229.09 -.1 1227.99 -.1 1333.44 234.9 1333.53 235.09 1500 298.27 1500 297.21 1334.27 234.31 1229.09 -.1" style="fill:url(#ca);"/><polygon points="1246.18 -.1 1245.08 -.1 1345.64 224.01 1345.73 224.19 1500 282.75 1500 281.68 1346.47 223.41 1246.18 -.1" style="fill:url(#cb);"/><polygon points="1263.37 -.1 1262.28 -.1 1357.94 213.1 1358.03 213.29 1500 267.2 1500 266.13 1358.77 212.51 1263.37 -.1" style="fill:url(#cc);"/><polygon points="1280.52 -.1 1279.42 -.1 1370.24 202.21 1370.33 202.39 1500 251.64 1500 250.57 1371.07 201.61 1280.52 -.1" style="fill:url(#cd);"/><polygon points="1297.64 -.1 1296.54 -.1 1382.44 191.31 1382.53 191.49 1500 236.1 1500 235.03 1383.27 190.71 1297.64 -.1" style="fill:url(#ce);"/><polygon points="1314.8 -.1 1313.7 -.1 1394.74 180.51 1394.83 180.69 1500 220.61 1500 219.54 1395.57 179.91 1314.8 -.1" style="fill:url(#cf);"/><polygon points="1331.96 -.1 1330.87 -.1 1407.04 169.6 1407.13 169.79 1500 205.06 1500 203.99 1407.87 169.01 1331.96 -.1" style="fill:url(#cg);"/><polygon points="1349.08 -.1 1347.99 -.1 1419.24 158.71 1419.33 158.89 1500 189.52 1500 188.45 1420.07 158.11 1349.08 -.1" style="fill:url(#ch);"/><polygon points="1366.24 -.1 1365.14 -.1 1431.54 147.81 1431.63 147.99 1500 173.96 1500 172.89 1432.37 147.21 1366.24 -.1" style="fill:url(#ci);"/><polygon points="1383.32 -.1 1382.22 -.1 1443.74 137.01 1443.83 137.19 1500 158.51 1500 157.44 1444.57 136.41 1383.32 -.1" style="fill:url(#cj);"/><polygon points="1400.51 -.1 1399.41 -.1 1456.04 126.1 1456.13 126.29 1500 142.94 1500 141.88 1456.87 125.51 1400.51 -.1" style="fill:url(#ck);"/><polygon points="1417.68 -.1 1416.59 -.1 1468.34 115.21 1468.43 115.39 1500 127.38 1500 126.31 1469.17 114.61 1417.68 -.1" style="fill:url(#cl);"/><polygon points="1434.78 -.1 1433.69 -.1 1480.54 104.31 1480.63 104.49 1500 111.85 1500 110.78 1481.37 103.71 1434.78 -.1" style="fill:url(#cm);"/><polygon points="1451.94 -.1 1450.84 -.1 1492.84 93.51 1492.93 93.69 1500 96.38 1500 95.31 1493.67 92.91 1451.94 -.1" style="fill:url(#cn);"/><polygon points="1467.93 -.1 1500 71.36 1500 68.92 1469.03 -.1 1467.93 -.1" style="fill:url(#co);"/><polygon points="1486.22 -.1 1485.12 -.1 1500 33.05 1500 30.61 1486.22 -.1" style="fill:url(#cp);"/></g></svg>