<svg xmlns="http://www.w3.org/2000/svg" xmlns:xlink="http://www.w3.org/1999/xlink" width="46" height="46" viewBox="0 0 46 46">
  <defs>
    <clipPath id="clip-Video-Proctoring">
      <rect width="46" height="46"/>
    </clipPath>
  </defs>
  <g id="Video-Proctoring" clip-path="url(#clip-Video-Proctoring)">
    <g id="Video-proctoring-2" data-name="Video-proctoring" transform="translate(-7.7 3.486)">
      <g id="Group_2625" data-name="Group 2625" transform="translate(9.7 0.3)">
        <path id="Path_9822" data-name="Path 9822" d="M17.6,47.5V18.7a1.528,1.528,0,0,1,1.5-1.5H49.462a1.528,1.528,0,0,1,1.5,1.5V47.5H17.6" transform="translate(-13.04 -7.445)" fill="#1e9cd8"/>
        <rect id="Rectangle_3006" data-name="Rectangle 3006" width="30.304" height="21.242" transform="translate(6.061 12.757)" fill="#fff"/>
        <path id="Path_9823" data-name="Path 9823" d="M14.26,64.4H9.7v3h4.56v-3m37.865,0h-4.56v3h4.56v-3" transform="translate(-9.7 -27.4)" fill="#0aac4b"/>
        <path id="Path_9824" data-name="Path 9824" d="M50.963,64.4H17.6v3.059H50.963V64.4" transform="translate(-13.04 -27.4)" fill="#046b39"/>
        <path id="Path_9825" data-name="Path 9825" d="M47.554,14.944H39.3C39.3,13.328,41.147,12,43.4,12S47.554,13.27,47.554,14.944Z" transform="translate(-22.214 -5.247)" fill="#1e9cd8" fill-rule="evenodd"/>
        <path id="Path_9826" data-name="Path 9826" d="M43.455.3A4.156,4.156,0,1,1,39.3,4.456h0A4.1,4.1,0,0,1,43.455.3Z" transform="translate(-22.213 -0.3)" fill="#0aac4b" fill-rule="evenodd"/>
        <path id="Path_9827" data-name="Path 9827" d="M47.3,6.232a4.181,4.181,0,0,1-3,1.732,4.181,4.181,0,0,1-3-1.732,4.181,4.181,0,0,1,3-1.732,4.181,4.181,0,0,1,3,1.732" transform="translate(-23.06 -2.076)" fill="#fff"/>
        <path id="Path_9828" data-name="Path 9828" d="M46.84,6.57a1.27,1.27,0,1,0-1.27,1.27,1.211,1.211,0,0,0,1.27-1.27h0" transform="translate(-24.328 -2.414)" fill="#1e9cd8"/>
        <path id="Path_9829" data-name="Path 9829" d="M45.95,6.2a.75.75,0,1,0,0,1.5h0a.716.716,0,0,0,.75-.693.931.931,0,0,0-.173-.519.179.179,0,0,1-.115.058.248.248,0,0,1-.231-.231V6.258c-.115,0-.173-.058-.231-.058" transform="translate(-24.709 -2.794)" fill="#046b39"/>
        <path id="Path_9830" data-name="Path 9830" d="M47.073,6a.153.153,0,0,0-.173.173,1.207,1.207,0,0,1,.346.231.212.212,0,0,0,.058-.173A.248.248,0,0,0,47.073,6" transform="translate(-25.428 -2.71)" fill="#a3dcf5"/>
        <path id="Path_9831" data-name="Path 9831" d="M46.9,6.3v.058a.248.248,0,0,0,.231.231c.058,0,.115,0,.115-.058A1.208,1.208,0,0,0,46.9,6.3" transform="translate(-25.428 -2.837)" fill="#a1c8b6"/>
      </g>
      <g id="Group_2626" data-name="Group 2626" transform="translate(26.035 16.365)">
        <path id="Path_9832" data-name="Path 9832" d="M42.849,43.2a4.773,4.773,0,0,0-4.1,2.251,4.844,4.844,0,0,0-.75,2.54V51.4h9.7V47.991A4.756,4.756,0,0,0,42.849,43.2Z" transform="translate(-38 -33.503)" fill="#00ac41"/>
        <path id="Path_9833" data-name="Path 9833" d="M42.949,36.1A4.854,4.854,0,1,0,38.1,31.249a5.047,5.047,0,0,0,.75,2.6A4.906,4.906,0,0,0,42.949,36.1Z" transform="translate(-38.042 -26.4)" fill="#00ac41"/>
      </g>
    </g>
  </g>
</svg>
