<svg width="36" height="36" viewBox="0 0 36 36" fill="none" xmlns="http://www.w3.org/2000/svg">
<path d="M32.625 4.5H3.375C1.51088 4.5 0 6.01088 0 7.875V25.875C0 27.7391 1.51088 29.25 3.375 29.25H13.5V32.625H11.8125C11.502 32.625 11.25 32.877 11.25 33.1875C11.25 33.498 11.502 33.75 11.8125 33.75H24.1875C24.498 33.75 24.75 33.498 24.75 33.1875C24.75 32.877 24.498 32.625 24.1875 32.625H22.5V29.25H32.625C34.4891 29.25 36 27.7391 36 25.875V7.875C36 6.01088 34.4891 4.5 32.625 4.5ZM21.375 32.625H14.625V29.25H21.375V32.625ZM34.875 25.875C34.875 27.1181 33.8681 28.125 32.625 28.125H3.375C2.13188 28.125 1.125 27.1181 1.125 25.875V7.875C1.125 6.63188 2.13188 5.625 3.375 5.625H32.625C33.8681 5.625 34.875 6.63188 34.875 7.875V25.875ZM29.0306 10.1587C28.1509 9.9855 27.3712 10.4963 27.1035 11.25H20.25V10.125H15.75V11.25H8.8965C8.62875 10.4963 7.848 9.9855 6.96938 10.1587C6.32475 10.2859 5.79938 10.8022 5.66437 11.4457C5.43375 12.5381 6.26062 13.5 7.3125 13.5C8.046 13.5 8.66475 13.0286 8.8965 12.375H15.75V12.627C10.8135 13.6361 7.03687 17.8672 6.76575 23.0287C6.74888 23.3516 7.00537 23.625 7.32937 23.625C7.62525 23.625 7.87388 23.3955 7.8885 23.0996C8.12362 18.5265 11.4142 14.7634 15.75 13.7745V14.625H20.25V13.7734C24.5858 14.7634 27.8764 18.5265 28.1115 23.0985C28.1273 23.3955 28.3748 23.625 28.6706 23.625C28.9946 23.625 29.2511 23.3516 29.2342 23.0287C28.9631 17.8672 25.1865 13.6361 20.25 12.627V12.375H27.1035C27.3364 13.0286 27.954 13.5 28.6875 13.5C29.7394 13.5 30.5662 12.5381 30.3368 11.4457C30.2006 10.8022 29.6753 10.2859 29.0306 10.1587ZM7.3125 12.375C7.002 12.375 6.75 12.123 6.75 11.8125C6.75 11.502 7.002 11.25 7.3125 11.25C7.623 11.25 7.875 11.502 7.875 11.8125C7.875 12.123 7.623 12.375 7.3125 12.375ZM19.125 13.5H16.875V11.25H19.125V13.5ZM28.6875 12.375C28.377 12.375 28.125 12.123 28.125 11.8125C28.125 11.502 28.377 11.25 28.6875 11.25C28.998 11.25 29.25 11.502 29.25 11.8125C29.25 12.123 28.998 12.375 28.6875 12.375Z" fill="#2E448D"/>
</svg>
